{"glyphs":{"0":{"ha":917,"x_min":50,"x_max":867,"o":"m 461 -14 q 253 49 346 -14 q 105 225 160 111 q 50 490 50 339 q 104 754 50 642 q 251 929 158 867 q 457 992 343 992 q 666 929 574 992 q 813 753 758 867 q 867 488 867 640 q 813 223 867 336 q 667 48 758 110 q 461 -14 575 -14 m 458 157 q 574 194 525 157 q 649 306 622 232 q 676 489 676 379 q 649 672 676 599 q 573 783 622 746 q 457 819 524 819 q 343 783 392 819 q 267 673 294 746 q 240 490 240 600 q 267 306 240 379 q 343 194 294 232 q 458 157 392 157 z "},"1":{"ha":510,"x_min":32,"x_max":410,"o":"m 224 0 l 224 976 l 410 976 l 410 0 l 224 0 m 32 813 l 32 976 l 396 976 l 396 813 l 32 813 z "},"2":{"ha":768,"x_min":36,"x_max":719,"o":"m 36 108 l 404 493 q 467 567 443 535 q 503 630 492 600 q 514 690 514 660 q 474 786 514 751 q 372 821 435 821 q 259 788 308 821 q 167 682 210 754 l 38 792 q 183 941 96 890 q 382 992 269 992 q 549 954 478 992 q 660 850 621 917 q 699 694 699 783 q 684 586 699 635 q 635 490 669 538 q 542 382 601 442 l 274 108 l 36 108 m 36 0 l 36 108 l 197 164 l 719 164 l 719 0 l 36 0 z "},"3":{"ha":764,"x_min":28,"x_max":714,"o":"m 346 -14 q 165 22 247 -14 q 28 124 83 57 l 153 247 q 232 181 181 206 q 343 156 283 156 q 439 176 399 156 q 502 233 479 196 q 525 318 525 269 q 502 406 525 369 q 436 461 479 442 q 333 481 393 481 q 279 477 307 481 q 232 467 251 474 l 315 572 q 384 591 350 583 q 447 599 418 599 q 583 563 522 599 q 678 463 643 528 q 714 311 714 399 q 668 141 714 214 q 540 27 622 68 q 346 -14 457 -14 m 232 467 l 232 575 l 482 865 l 699 868 l 440 572 l 232 467 m 82 813 l 82 976 l 699 976 l 699 868 l 544 813 l 82 813 z "},"4":{"ha":839,"x_min":35,"x_max":804,"o":"m 35 344 l 368 976 l 576 976 l 235 344 l 35 344 m 35 233 l 35 344 l 104 399 l 804 399 l 804 233 l 35 233 m 496 0 l 496 622 l 682 622 l 682 0 l 496 0 z "},"5":{"ha":768,"x_min":24,"x_max":722,"o":"m 347 -14 q 163 22 246 -14 q 24 124 79 57 l 149 247 q 228 181 176 206 q 343 156 281 156 q 442 176 400 156 q 509 235 485 197 q 533 325 533 274 q 509 417 533 379 q 444 474 485 454 q 354 493 404 493 q 259 480 301 493 q 178 438 217 467 l 189 557 q 244 602 215 585 q 310 628 274 619 q 397 638 347 638 q 576 594 504 638 q 685 477 647 550 q 722 317 722 404 q 675 146 722 221 q 544 28 628 71 q 347 -14 460 -14 m 178 438 l 88 526 l 132 976 l 303 976 l 253 519 l 178 438 m 161 813 l 132 976 l 668 976 l 668 813 l 161 813 z "},"6":{"ha":789,"x_min":42,"x_max":749,"o":"m 394 -14 q 215 31 294 -14 q 88 153 135 76 q 42 325 42 231 q 131 585 42 454 l 401 976 l 618 976 l 322 563 l 253 543 q 290 599 268 575 q 346 635 311 622 q 433 647 381 647 q 592 606 521 647 q 706 494 663 565 q 749 329 749 422 q 701 156 749 233 q 574 32 654 78 q 394 -14 493 -14 m 394 156 q 481 178 443 156 q 540 241 518 201 q 563 331 563 281 q 540 420 563 381 q 481 482 518 460 q 394 504 443 504 q 308 481 346 504 q 248 419 269 458 q 226 331 226 381 q 248 241 226 281 q 308 178 269 201 q 394 156 346 156 z "},"7":{"ha":729,"x_min":32,"x_max":696,"o":"m 167 0 l 510 867 l 696 867 l 363 0 l 167 0 m 32 813 l 32 976 l 696 976 l 696 867 l 625 813 l 32 813 z "},"8":{"ha":771,"x_min":46,"x_max":725,"o":"m 386 -14 q 206 22 282 -14 q 88 124 131 58 q 46 271 46 189 q 72 394 46 339 q 148 488 99 450 q 264 542 197 526 l 260 496 q 165 544 204 510 q 107 627 126 579 q 88 726 88 675 q 126 865 88 806 q 231 958 164 925 q 386 992 299 992 q 540 958 474 992 q 645 865 607 925 q 683 726 683 806 q 664 627 683 675 q 606 544 644 579 q 511 496 568 510 l 507 542 q 624 488 575 526 q 699 394 672 450 q 725 271 725 339 q 683 124 725 189 q 565 22 642 58 q 386 -14 489 -14 m 386 151 q 468 170 432 151 q 524 222 504 189 q 544 297 544 256 q 524 373 544 340 q 468 424 504 406 q 386 443 432 443 q 303 424 339 443 q 247 373 268 406 q 226 297 226 340 q 247 222 226 256 q 303 170 268 189 q 386 151 339 151 m 386 586 q 475 621 440 586 q 510 710 510 656 q 475 800 510 765 q 386 835 440 835 q 297 800 332 835 q 261 711 261 765 q 297 621 261 656 q 386 586 332 586 z "},"9":{"ha":789,"x_min":40,"x_max":747,"o":"m 171 0 l 468 414 l 536 435 q 498 378 519 403 q 443 342 476 354 q 356 329 410 329 q 198 370 269 329 q 83 483 126 411 q 40 649 40 556 q 88 822 40 743 q 215 946 135 900 q 394 992 296 992 q 574 946 494 992 q 701 824 654 900 q 747 653 747 747 q 657 392 747 524 l 386 0 l 171 0 m 394 474 q 481 496 443 474 q 540 558 518 518 q 561 646 561 597 q 540 736 561 697 q 481 798 518 775 q 394 821 443 821 q 308 798 346 821 q 248 736 269 775 q 226 646 226 697 q 248 557 226 596 q 308 496 269 518 q 394 474 347 474 z "},"A":{"ha":993,"x_min":28,"x_max":967,"o":"m 28 0 l 421 976 l 575 976 l 967 0 l 765 0 l 463 801 l 532 801 l 225 0 l 28 0 m 236 182 l 236 340 l 761 340 l 761 182 l 236 182 z "},"Á":{"ha":993,"x_min":28,"x_max":967,"o":"m 28 0 l 421 976 l 575 976 l 967 0 l 765 0 l 463 801 l 532 801 l 225 0 l 28 0 m 236 182 l 236 340 l 761 340 l 761 182 l 236 182 m 407 1063 l 338 1149 l 538 1365 l 654 1224 l 407 1063 z "},"Ă":{"ha":993,"x_min":28,"x_max":967,"o":"m 28 0 l 421 976 l 575 976 l 967 0 l 765 0 l 463 801 l 532 801 l 225 0 l 28 0 m 236 182 l 236 340 l 761 340 l 761 182 l 236 182 m 753 1300 q 719 1173 753 1231 q 629 1082 686 1115 q 499 1049 572 1049 q 367 1082 425 1049 q 276 1173 310 1115 q 242 1300 242 1231 l 394 1300 q 423 1225 394 1256 q 499 1194 451 1194 q 551 1208 528 1194 q 587 1247 574 1222 q 600 1300 600 1271 l 753 1300 z "},"Ǎ":{"ha":993,"x_min":28,"x_max":967,"o":"m 28 0 l 421 976 l 575 976 l 967 0 l 765 0 l 463 801 l 532 801 l 225 0 l 28 0 m 236 182 l 236 340 l 761 340 l 761 182 l 236 182 m 682 1347 l 751 1267 l 556 1058 l 438 1058 l 242 1267 l 311 1347 l 561 1171 l 429 1171 l 682 1347 z "},"Â":{"ha":993,"x_min":28,"x_max":967,"o":"m 28 0 l 421 976 l 575 976 l 967 0 l 765 0 l 463 801 l 532 801 l 225 0 l 28 0 m 236 182 l 236 340 l 761 340 l 761 182 l 236 182 m 311 1058 l 242 1139 l 438 1347 l 557 1347 l 753 1139 l 683 1058 l 432 1236 l 564 1235 l 311 1058 z "},"Ä":{"ha":993,"x_min":28,"x_max":967,"o":"m 28 0 l 421 976 l 575 976 l 967 0 l 765 0 l 463 801 l 532 801 l 225 0 l 28 0 m 236 182 l 236 340 l 761 340 l 761 182 l 236 182 m 347 1074 q 275 1103 304 1074 q 246 1178 246 1133 q 275 1252 246 1222 q 347 1282 304 1282 q 422 1252 393 1282 q 450 1178 450 1222 q 422 1103 450 1133 q 347 1074 393 1074 m 646 1074 q 574 1103 603 1074 q 544 1178 544 1133 q 574 1252 544 1222 q 646 1282 603 1282 q 720 1252 692 1282 q 749 1178 749 1222 q 720 1103 749 1133 q 646 1074 692 1074 z "},"À":{"ha":993,"x_min":28,"x_max":967,"o":"m 28 0 l 421 976 l 575 976 l 967 0 l 765 0 l 463 801 l 532 801 l 225 0 l 28 0 m 236 182 l 236 340 l 761 340 l 761 182 l 236 182 m 561 1056 l 314 1217 l 432 1358 l 631 1142 l 561 1056 z "},"Ā":{"ha":993,"x_min":28,"x_max":967,"o":"m 28 0 l 421 976 l 575 976 l 967 0 l 765 0 l 463 801 l 532 801 l 225 0 l 28 0 m 236 182 l 236 340 l 761 340 l 761 182 l 236 182 m 233 1249 l 761 1249 l 761 1107 l 233 1107 l 233 1249 z "},"Ą":{"ha":993,"x_min":28,"x_max":1007,"o":"m 28 0 l 421 976 l 575 976 l 967 0 l 765 0 l 463 801 l 532 801 l 225 0 l 28 0 m 236 182 l 236 340 l 761 340 l 761 182 l 236 182 m 875 -294 q 750 -261 801 -294 q 699 -154 699 -228 q 741 -40 699 -89 q 863 36 783 10 l 967 0 q 883 -56 914 -24 q 853 -129 853 -87 q 866 -167 853 -153 q 906 -181 879 -181 q 939 -174 924 -181 q 965 -162 954 -168 l 1008 -260 q 953 -284 985 -274 q 875 -294 921 -294 z "},"Å":{"ha":993,"x_min":28,"x_max":967,"o":"m 28 0 l 421 976 l 575 976 l 967 0 l 765 0 l 463 801 l 532 801 l 225 0 l 28 0 m 236 182 l 236 340 l 761 340 l 761 182 l 236 182 m 499 914 q 406 938 446 914 q 342 1000 365 961 q 318 1089 318 1039 q 342 1179 318 1139 q 406 1242 365 1219 q 497 1265 446 1265 q 588 1242 549 1265 q 651 1180 628 1219 q 675 1090 675 1140 q 651 1000 675 1040 q 588 937 628 960 q 499 914 549 914 m 499 1026 q 541 1044 524 1026 q 558 1090 558 1063 q 541 1135 558 1117 q 499 1153 524 1153 q 452 1135 469 1153 q 435 1090 435 1117 q 452 1045 435 1064 q 499 1026 469 1026 z "},"Ã":{"ha":993,"x_min":28,"x_max":967,"o":"m 28 0 l 421 976 l 575 976 l 967 0 l 765 0 l 463 801 l 532 801 l 225 0 l 28 0 m 236 182 l 236 340 l 761 340 l 761 182 l 236 182 m 599 1063 q 521 1079 553 1063 q 461 1111 489 1096 q 401 1126 433 1126 q 347 1114 368 1126 q 306 1075 325 1101 l 214 1167 q 297 1247 254 1219 q 396 1275 339 1275 q 474 1259 442 1275 q 533 1227 506 1243 q 593 1211 561 1211 q 649 1224 628 1211 q 689 1263 671 1238 l 781 1172 q 698 1091 740 1119 q 599 1063 656 1063 z "},"Æ":{"ha":1372,"x_min":28,"x_max":1315,"o":"m 28 0 l 421 976 l 792 976 l 792 810 l 536 810 l 225 0 l 28 0 m 236 304 l 236 463 l 747 463 l 747 304 l 236 304 m 811 0 l 811 167 l 1315 167 l 1315 0 l 811 0 m 674 0 l 674 976 l 863 976 l 863 0 l 674 0 m 811 418 l 811 579 l 1267 579 l 1267 418 l 811 418 m 811 810 l 811 976 l 1308 976 l 1308 810 l 811 810 z "},"B":{"ha":876,"x_min":100,"x_max":826,"o":"m 239 0 l 239 154 l 493 154 q 599 196 561 154 q 638 294 638 238 q 621 365 638 333 q 572 416 604 397 q 493 435 539 435 l 239 435 l 239 588 l 472 588 q 566 617 531 588 q 601 704 601 646 q 566 793 601 764 q 472 822 531 822 l 239 822 l 239 976 l 494 976 q 658 941 592 976 q 757 848 724 906 q 790 722 790 790 q 740 578 790 639 q 592 489 689 518 l 600 550 q 767 449 708 519 q 826 281 826 379 q 788 140 826 203 q 677 38 750 76 q 500 0 604 0 l 239 0 m 100 0 l 100 976 l 288 976 l 288 0 l 100 0 z "},"C":{"ha":953,"x_min":51,"x_max":921,"o":"m 553 -14 q 354 24 446 -14 q 194 131 263 63 q 88 292 125 200 q 51 489 51 383 q 88 686 51 594 q 194 846 125 778 q 353 953 263 914 q 553 992 444 992 q 758 953 669 992 q 915 849 847 915 l 788 721 q 689 790 747 765 q 553 815 631 815 q 428 792 485 815 q 331 726 372 769 q 267 622 289 682 q 244 489 244 561 q 267 356 244 415 q 331 252 289 296 q 428 185 372 208 q 553 161 485 161 q 694 186 635 161 q 793 257 753 211 l 921 129 q 763 24 853 61 q 553 -14 672 -14 z "},"Ć":{"ha":953,"x_min":51,"x_max":921,"o":"m 553 -14 q 354 24 446 -14 q 194 131 263 63 q 88 292 125 200 q 51 489 51 383 q 88 686 51 594 q 194 846 125 778 q 353 953 263 914 q 553 992 444 992 q 758 953 669 992 q 915 849 847 915 l 788 721 q 689 790 747 765 q 553 815 631 815 q 428 792 485 815 q 331 726 372 769 q 267 622 289 682 q 244 489 244 561 q 267 356 244 415 q 331 252 289 296 q 428 185 372 208 q 553 161 485 161 q 694 186 635 161 q 793 257 753 211 l 921 129 q 763 24 853 61 q 553 -14 672 -14 m 440 1063 l 371 1149 l 571 1365 l 688 1224 l 440 1063 z "},"Č":{"ha":953,"x_min":51,"x_max":921,"o":"m 553 -14 q 354 24 446 -14 q 194 131 263 63 q 88 292 125 200 q 51 489 51 383 q 88 686 51 594 q 194 846 125 778 q 353 953 263 914 q 553 992 444 992 q 758 953 669 992 q 915 849 847 915 l 788 721 q 689 790 747 765 q 553 815 631 815 q 428 792 485 815 q 331 726 372 769 q 267 622 289 682 q 244 489 244 561 q 267 356 244 415 q 331 252 289 296 q 428 185 372 208 q 553 161 485 161 q 694 186 635 161 q 793 257 753 211 l 921 129 q 763 24 853 61 q 553 -14 672 -14 m 715 1347 l 785 1267 l 589 1058 l 469 1058 l 274 1267 l 343 1347 l 594 1171 l 463 1171 l 715 1347 z "},"Ç":{"ha":953,"x_min":51,"x_max":921,"o":"m 553 -14 q 354 24 446 -14 q 194 131 263 63 q 88 292 125 200 q 51 489 51 383 q 88 686 51 594 q 194 846 125 778 q 353 953 263 914 q 553 992 444 992 q 758 953 669 992 q 915 849 847 915 l 788 721 q 689 790 747 765 q 553 815 631 815 q 428 792 485 815 q 331 726 372 769 q 267 622 289 682 q 244 489 244 561 q 267 356 244 415 q 331 252 289 296 q 428 185 372 208 q 553 161 485 161 q 694 186 635 161 q 793 257 753 211 l 921 129 q 763 24 853 61 q 553 -14 672 -14 m 493 -294 q 401 -282 440 -294 q 324 -246 363 -269 l 389 -164 q 427 -185 406 -176 q 478 -193 449 -193 q 524 -184 510 -193 q 539 -162 539 -175 q 524 -137 539 -147 q 478 -126 510 -126 l 419 -126 l 465 18 l 581 18 l 546 -82 l 488 -36 q 628 -72 576 -35 q 681 -165 681 -108 q 629 -258 681 -221 q 493 -294 578 -294 z "},"Ċ":{"ha":953,"x_min":51,"x_max":921,"o":"m 553 -14 q 354 24 446 -14 q 194 131 263 63 q 88 292 125 200 q 51 489 51 383 q 88 686 51 594 q 194 846 125 778 q 353 953 263 914 q 553 992 444 992 q 758 953 669 992 q 915 849 847 915 l 788 721 q 689 790 747 765 q 553 815 631 815 q 428 792 485 815 q 331 726 372 769 q 267 622 289 682 q 244 489 244 561 q 267 356 244 415 q 331 252 289 296 q 428 185 372 208 q 553 161 485 161 q 694 186 635 161 q 793 257 753 211 l 921 129 q 763 24 853 61 q 553 -14 672 -14 m 531 1074 q 457 1103 486 1074 q 428 1178 428 1133 q 457 1252 428 1222 q 531 1282 486 1282 q 605 1252 576 1282 q 633 1178 633 1222 q 605 1103 633 1133 q 531 1074 576 1074 z "},"D":{"ha":1038,"x_min":100,"x_max":988,"o":"m 229 0 l 229 168 l 478 168 q 643 208 572 168 q 753 319 714 247 q 793 490 793 392 q 753 658 793 586 q 642 769 713 729 q 478 808 571 808 l 225 808 l 225 976 l 481 976 q 681 940 589 976 q 842 838 774 904 q 949 683 911 772 q 988 489 988 594 q 949 294 988 383 q 843 138 911 204 q 683 36 775 72 q 483 0 590 0 l 229 0 m 100 0 l 100 976 l 289 976 l 289 0 l 100 0 z "},"Ð":{"ha":1065,"x_min":32,"x_max":1015,"o":"m 32 567 l 563 567 l 563 417 l 32 417 l 32 567 m 257 0 l 257 168 l 506 168 q 671 208 600 168 q 781 319 742 247 q 821 490 821 392 q 781 658 821 586 q 669 769 740 729 q 506 808 599 808 l 253 808 l 253 976 l 508 976 q 709 940 617 976 q 870 838 801 904 q 977 683 939 772 q 1015 489 1015 594 q 977 294 1015 383 q 871 138 939 204 q 710 36 803 72 q 511 0 618 0 l 257 0 m 128 0 l 128 976 l 317 976 l 317 0 l 128 0 z "},"Ď":{"ha":1038,"x_min":100,"x_max":988,"o":"m 229 0 l 229 168 l 478 168 q 643 208 572 168 q 753 319 714 247 q 793 490 793 392 q 753 658 793 586 q 642 769 713 729 q 478 808 571 808 l 225 808 l 225 976 l 481 976 q 681 940 589 976 q 842 838 774 904 q 949 683 911 772 q 988 489 988 594 q 949 294 988 383 q 843 138 911 204 q 683 36 775 72 q 483 0 590 0 l 229 0 m 100 0 l 100 976 l 289 976 l 289 0 l 100 0 m 667 1347 l 736 1267 l 540 1058 l 421 1058 l 225 1267 l 294 1347 l 546 1171 l 414 1171 l 667 1347 z "},"Đ":{"ha":1069,"x_min":0,"x_max":1018,"o":"m 0 413 l 0 564 l 619 564 l 619 413 l 0 413 m 260 0 l 260 168 l 510 168 q 675 208 604 168 q 785 319 746 247 q 825 490 825 392 q 785 658 825 586 q 674 769 744 729 q 510 808 603 808 l 257 808 l 257 976 l 513 976 q 713 940 621 976 q 874 838 806 904 q 980 683 942 772 q 1018 489 1018 594 q 980 294 1018 383 q 874 138 942 204 q 714 36 806 72 q 515 0 622 0 l 260 0 m 131 0 l 131 976 l 321 976 l 321 0 l 131 0 z "},"E":{"ha":836,"x_min":100,"x_max":779,"o":"m 100 0 l 100 976 l 289 976 l 289 0 l 100 0 m 239 0 l 239 167 l 779 167 l 779 0 l 239 0 m 239 418 l 239 579 l 731 579 l 731 418 l 239 418 m 239 810 l 239 976 l 772 976 l 772 810 l 239 810 z "},"É":{"ha":836,"x_min":100,"x_max":779,"o":"m 100 0 l 100 976 l 289 976 l 289 0 l 100 0 m 239 0 l 239 167 l 779 167 l 779 0 l 239 0 m 239 418 l 239 579 l 731 579 l 731 418 l 239 418 m 239 810 l 239 976 l 772 976 l 772 810 l 239 810 m 357 1063 l 288 1149 l 488 1365 l 604 1224 l 357 1063 z "},"Ě":{"ha":836,"x_min":100,"x_max":779,"o":"m 100 0 l 100 976 l 289 976 l 289 0 l 100 0 m 239 0 l 239 167 l 779 167 l 779 0 l 239 0 m 239 418 l 239 579 l 731 579 l 731 418 l 239 418 m 239 810 l 239 976 l 772 976 l 772 810 l 239 810 m 632 1347 l 701 1267 l 506 1058 l 386 1058 l 190 1267 l 260 1347 l 511 1171 l 379 1171 l 632 1347 z "},"Ê":{"ha":836,"x_min":100,"x_max":779,"o":"m 100 0 l 100 976 l 289 976 l 289 0 l 100 0 m 239 0 l 239 167 l 779 167 l 779 0 l 239 0 m 239 418 l 239 579 l 731 579 l 731 418 l 239 418 m 239 810 l 239 976 l 772 976 l 772 810 l 239 810 m 260 1058 l 190 1139 l 386 1347 l 506 1347 l 701 1139 l 632 1058 l 381 1236 l 513 1235 l 260 1058 z "},"Ë":{"ha":836,"x_min":100,"x_max":779,"o":"m 100 0 l 100 976 l 289 976 l 289 0 l 100 0 m 239 0 l 239 167 l 779 167 l 779 0 l 239 0 m 239 418 l 239 579 l 731 579 l 731 418 l 239 418 m 239 810 l 239 976 l 772 976 l 772 810 l 239 810 m 297 1074 q 225 1103 254 1074 q 196 1178 196 1133 q 225 1252 196 1222 q 297 1282 254 1282 q 372 1252 343 1282 q 400 1178 400 1222 q 372 1103 400 1133 q 297 1074 343 1074 m 596 1074 q 524 1103 553 1074 q 494 1178 494 1133 q 524 1252 494 1222 q 596 1282 553 1282 q 670 1252 642 1282 q 699 1178 699 1222 q 670 1103 699 1133 q 596 1074 642 1074 z "},"Ė":{"ha":836,"x_min":100,"x_max":779,"o":"m 100 0 l 100 976 l 289 976 l 289 0 l 100 0 m 239 0 l 239 167 l 779 167 l 779 0 l 239 0 m 239 418 l 239 579 l 731 579 l 731 418 l 239 418 m 239 810 l 239 976 l 772 976 l 772 810 l 239 810 m 447 1074 q 374 1103 403 1074 q 344 1178 344 1133 q 374 1252 344 1222 q 447 1282 403 1282 q 522 1252 493 1282 q 550 1178 550 1222 q 522 1103 550 1133 q 447 1074 493 1074 z "},"È":{"ha":836,"x_min":100,"x_max":779,"o":"m 100 0 l 100 976 l 289 976 l 289 0 l 100 0 m 239 0 l 239 167 l 779 167 l 779 0 l 239 0 m 239 418 l 239 579 l 731 579 l 731 418 l 239 418 m 239 810 l 239 976 l 772 976 l 772 810 l 239 810 m 511 1056 l 264 1217 l 382 1358 l 581 1142 l 511 1056 z "},"Ē":{"ha":836,"x_min":100,"x_max":779,"o":"m 100 0 l 100 976 l 289 976 l 289 0 l 100 0 m 239 0 l 239 167 l 779 167 l 779 0 l 239 0 m 239 418 l 239 579 l 731 579 l 731 418 l 239 418 m 239 810 l 239 976 l 772 976 l 772 810 l 239 810 m 182 1249 l 710 1249 l 710 1107 l 182 1107 l 182 1249 z "},"Ę":{"ha":836,"x_min":100,"x_max":821,"o":"m 100 0 l 100 976 l 289 976 l 289 0 l 100 0 m 239 0 l 239 167 l 779 167 l 779 0 l 239 0 m 239 418 l 239 579 l 731 579 l 731 418 l 239 418 m 239 810 l 239 976 l 772 976 l 772 810 l 239 810 m 688 -294 q 563 -261 614 -294 q 511 -154 511 -228 q 553 -40 511 -89 q 675 36 596 10 l 779 0 q 696 -56 726 -24 q 665 -129 665 -87 q 678 -167 665 -153 q 718 -181 692 -181 q 751 -174 736 -181 q 778 -162 767 -168 l 821 -260 q 765 -284 797 -274 q 688 -294 733 -294 z "},"F":{"ha":803,"x_min":100,"x_max":754,"o":"m 100 0 l 100 976 l 289 976 l 289 0 l 100 0 m 239 400 l 239 568 l 731 568 l 731 400 l 239 400 m 239 810 l 239 976 l 754 976 l 754 810 l 239 810 z "},"G":{"ha":1081,"x_min":51,"x_max":1036,"o":"m 551 -14 q 356 24 447 -14 q 197 132 265 63 q 90 292 128 201 q 51 489 51 383 q 90 687 51 596 q 199 847 129 778 q 361 953 268 915 q 563 992 454 992 q 785 947 683 992 q 953 819 886 901 l 825 692 q 711 783 779 751 q 561 815 643 815 q 397 774 468 815 q 285 660 325 733 q 244 490 244 588 q 284 319 244 393 q 392 203 324 244 q 550 161 461 161 q 707 195 642 161 q 807 295 772 229 q 842 457 842 361 l 965 372 l 539 376 l 539 540 l 1036 540 l 1036 514 q 974 222 1036 339 q 802 45 911 104 q 551 -14 693 -14 z "},"Ğ":{"ha":1081,"x_min":51,"x_max":1036,"o":"m 551 -14 q 356 24 447 -14 q 197 132 265 63 q 90 292 128 201 q 51 489 51 383 q 90 687 51 596 q 199 847 129 778 q 361 953 268 915 q 563 992 454 992 q 785 947 683 992 q 953 819 886 901 l 825 692 q 711 783 779 751 q 561 815 643 815 q 397 774 468 815 q 285 660 325 733 q 244 490 244 588 q 284 319 244 393 q 392 203 324 244 q 550 161 461 161 q 707 195 642 161 q 807 295 772 229 q 842 457 842 361 l 965 372 l 539 376 l 539 540 l 1036 540 l 1036 514 q 974 222 1036 339 q 802 45 911 104 q 551 -14 693 -14 m 811 1300 q 778 1173 811 1231 q 688 1082 744 1115 q 557 1049 631 1049 q 426 1082 483 1049 q 334 1173 368 1115 q 300 1300 300 1231 l 453 1300 q 481 1225 453 1256 q 557 1194 510 1194 q 609 1208 586 1194 q 645 1247 632 1222 q 658 1300 658 1271 l 811 1300 z "},"Ģ":{"ha":1081,"x_min":51,"x_max":1036,"o":"m 551 -14 q 356 24 447 -14 q 197 132 265 63 q 90 292 128 201 q 51 489 51 383 q 90 687 51 596 q 199 847 129 778 q 361 953 268 915 q 563 992 454 992 q 785 947 683 992 q 953 819 886 901 l 825 692 q 711 783 779 751 q 561 815 643 815 q 397 774 468 815 q 285 660 325 733 q 244 490 244 588 q 284 319 244 393 q 392 203 324 244 q 550 161 461 161 q 707 195 642 161 q 807 295 772 229 q 842 457 842 361 l 965 372 l 539 376 l 539 540 l 1036 540 l 1036 514 q 974 222 1036 339 q 802 45 911 104 q 551 -14 693 -14 m 508 -531 l 419 -472 l 531 -297 l 589 -286 q 564 -315 578 -304 q 535 -325 550 -326 q 472 -290 499 -322 q 449 -211 444 -257 q 488 -131 453 -162 q 572 -103 524 -99 q 651 -144 619 -107 q 678 -231 682 -182 q 666 -277 676 -251 q 629 -343 656 -303 l 508 -531 z "},"Ġ":{"ha":1081,"x_min":51,"x_max":1036,"o":"m 551 -14 q 356 24 447 -14 q 197 132 265 63 q 90 292 128 201 q 51 489 51 383 q 90 687 51 596 q 199 847 129 778 q 361 953 268 915 q 563 992 454 992 q 785 947 683 992 q 953 819 886 901 l 825 692 q 711 783 779 751 q 561 815 643 815 q 397 774 468 815 q 285 660 325 733 q 244 490 244 588 q 284 319 244 393 q 392 203 324 244 q 550 161 461 161 q 707 195 642 161 q 807 295 772 229 q 842 457 842 361 l 965 372 l 539 376 l 539 540 l 1036 540 l 1036 514 q 974 222 1036 339 q 802 45 911 104 q 551 -14 693 -14 m 556 1074 q 482 1103 511 1074 q 453 1178 453 1133 q 482 1252 453 1222 q 556 1282 511 1282 q 630 1252 601 1282 q 658 1178 658 1222 q 630 1103 658 1133 q 556 1074 601 1074 z "},"H":{"ha":1001,"x_min":100,"x_max":901,"o":"m 100 0 l 100 976 l 289 976 l 289 0 l 100 0 m 713 0 l 713 976 l 901 976 l 901 0 l 713 0 m 219 421 l 219 588 l 765 588 l 765 421 l 219 421 z "},"Ħ":{"ha":1001,"x_min":0,"x_max":1001,"o":"m 0 707 l 0 854 l 1001 854 l 1001 707 l 0 707 m 100 0 l 100 976 l 289 976 l 289 0 l 100 0 m 713 0 l 713 976 l 901 976 l 901 0 l 713 0 m 219 421 l 219 588 l 765 588 l 765 421 l 219 421 z "},"I":{"ha":389,"x_min":100,"x_max":289,"o":"m 100 0 l 100 976 l 289 976 l 289 0 l 100 0 z "},"Ĳ":{"ha":901,"x_min":100,"x_max":815,"o":"m 485 -14 q 328 20 396 -14 q 217 113 261 54 l 344 235 q 405 180 369 199 q 483 161 440 161 q 559 179 526 161 q 609 232 592 197 q 626 317 626 267 l 626 976 l 817 976 l 817 328 q 776 148 817 225 q 660 28 735 71 q 485 -14 586 -14 m 100 306 l 100 976 l 282 976 l 282 306 l 100 306 z "},"Í":{"ha":389,"x_min":36,"x_max":353,"o":"m 100 0 l 100 976 l 289 976 l 289 0 l 100 0 m 106 1063 l 36 1149 l 236 1365 l 353 1224 l 106 1063 z "},"Î":{"ha":389,"x_min":-61,"x_max":450,"o":"m 100 0 l 100 976 l 289 976 l 289 0 l 100 0 m 8 1058 l -61 1139 l 135 1347 l 254 1347 l 450 1139 l 381 1058 l 129 1236 l 261 1235 l 8 1058 z "},"Ï":{"ha":389,"x_min":-57,"x_max":447,"o":"m 100 0 l 100 976 l 289 976 l 289 0 l 100 0 m 46 1074 q -26 1103 3 1074 q -56 1178 -56 1133 q -26 1252 -56 1222 q 46 1282 3 1282 q 120 1252 92 1282 q 149 1178 149 1222 q 120 1103 149 1133 q 46 1074 92 1074 m 344 1074 q 272 1103 301 1074 q 243 1178 243 1133 q 272 1252 243 1222 q 344 1282 301 1282 q 419 1252 390 1282 q 447 1178 447 1222 q 419 1103 447 1133 q 344 1074 390 1074 z "},"İ":{"ha":389,"x_min":93,"x_max":297,"o":"m 100 0 l 100 976 l 289 976 l 289 0 l 100 0 m 196 1074 q 122 1103 151 1074 q 93 1178 93 1133 q 122 1252 93 1222 q 196 1282 151 1282 q 270 1252 242 1282 q 299 1178 299 1222 q 270 1103 299 1133 q 196 1074 242 1074 z "},"Ì":{"ha":389,"x_min":13,"x_max":329,"o":"m 100 0 l 100 976 l 289 976 l 289 0 l 100 0 m 260 1056 l 13 1217 l 131 1358 l 329 1142 l 260 1056 z "},"Ī":{"ha":389,"x_min":-50,"x_max":440,"o":"m -50 1249 l 440 1249 l 440 1107 l -50 1107 l -50 1249 m 100 0 l 100 976 l 289 976 l 289 0 l 100 0 z "},"Į":{"ha":389,"x_min":21,"x_max":331,"o":"m 100 0 l 100 976 l 289 976 l 289 0 l 100 0 m 197 -294 q 72 -261 124 -294 q 21 -154 21 -228 q 63 -40 21 -89 q 185 36 106 10 l 289 0 q 206 -56 236 -24 q 175 -129 175 -87 q 188 -167 175 -153 q 228 -181 201 -181 q 261 -174 246 -181 q 288 -162 276 -168 l 331 -260 q 275 -284 307 -274 q 197 -294 243 -294 z "},"J":{"ha":713,"x_min":26,"x_max":626,"o":"m 294 -14 q 138 20 206 -14 q 26 113 71 54 l 154 235 q 215 180 179 199 q 293 161 250 161 q 369 179 336 161 q 419 232 401 197 q 436 317 436 267 l 436 976 l 626 976 l 626 328 q 585 148 626 225 q 470 28 544 71 q 294 -14 396 -14 z "},"K":{"ha":956,"x_min":100,"x_max":931,"o":"m 690 0 l 267 510 l 679 976 l 915 976 l 456 469 l 456 557 l 931 0 l 690 0 m 100 0 l 100 976 l 289 976 l 289 0 l 100 0 z "},"Ķ":{"ha":956,"x_min":100,"x_max":931,"o":"m 690 0 l 267 510 l 679 976 l 915 976 l 456 469 l 456 557 l 931 0 l 690 0 m 100 0 l 100 976 l 289 976 l 289 0 l 100 0 m 401 -531 l 313 -472 l 424 -297 l 482 -286 q 457 -315 471 -304 q 428 -325 443 -326 q 365 -290 392 -322 q 342 -211 338 -257 q 381 -131 346 -162 q 465 -103 417 -99 q 544 -144 513 -107 q 571 -231 575 -182 q 559 -277 569 -251 q 522 -343 549 -303 l 401 -531 z "},"L":{"ha":772,"x_min":100,"x_max":736,"o":"m 100 0 l 100 976 l 289 976 l 289 0 l 100 0 m 239 0 l 239 168 l 736 168 l 736 0 l 239 0 z "},"Ĺ":{"ha":772,"x_min":100,"x_max":736,"o":"m 100 0 l 100 976 l 289 976 l 289 0 l 100 0 m 239 0 l 239 168 l 736 168 l 736 0 l 239 0 m 329 1063 l 260 1149 l 460 1365 l 576 1224 l 329 1063 z "},"Ľ":{"ha":772,"x_min":100,"x_max":736,"o":"m 100 0 l 100 976 l 289 976 l 289 0 l 100 0 m 239 0 l 239 168 l 736 168 l 736 0 l 239 0 m 486 544 l 392 596 l 490 778 l 547 794 q 525 763 538 775 q 496 751 513 751 q 431 781 461 751 q 400 857 400 811 q 433 942 400 907 q 517 976 467 976 q 597 942 563 976 q 632 857 632 907 q 624 810 632 838 q 593 742 615 783 l 486 544 z "},"Ļ":{"ha":772,"x_min":100,"x_max":736,"o":"m 100 0 l 100 976 l 289 976 l 289 0 l 100 0 m 239 0 l 239 168 l 736 168 l 736 0 l 239 0 m 371 -531 l 282 -472 l 393 -297 l 451 -286 q 426 -315 440 -304 q 397 -325 413 -326 q 334 -290 361 -322 q 311 -211 307 -257 q 351 -131 315 -162 q 435 -103 386 -99 q 513 -144 482 -107 q 540 -231 544 -182 q 528 -277 539 -251 q 492 -343 518 -303 l 371 -531 z "},"Ł":{"ha":853,"x_min":81,"x_max":817,"o":"m 81 474 l 481 706 l 481 542 l 81 310 l 81 474 m 182 0 l 182 976 l 371 976 l 371 0 l 182 0 m 321 0 l 321 168 l 817 168 l 817 0 l 321 0 z "},"M":{"ha":1181,"x_min":100,"x_max":1081,"o":"m 100 0 l 100 976 l 233 976 l 629 343 l 553 343 l 947 976 l 1081 976 l 1081 0 l 893 0 l 893 653 l 929 642 l 654 200 l 526 200 l 251 642 l 289 653 l 289 0 l 100 0 z "},"N":{"ha":1010,"x_min":100,"x_max":911,"o":"m 100 0 l 100 976 l 232 976 l 289 788 l 289 0 l 100 0 m 775 0 l 196 750 l 232 976 l 811 226 l 775 0 m 775 0 l 721 183 l 721 976 l 911 976 l 911 0 l 775 0 z "},"Ń":{"ha":1010,"x_min":100,"x_max":911,"o":"m 100 0 l 100 976 l 232 976 l 289 788 l 289 0 l 100 0 m 775 0 l 196 750 l 232 976 l 811 226 l 775 0 m 775 0 l 721 183 l 721 976 l 911 976 l 911 0 l 775 0 m 417 1063 l 347 1149 l 547 1365 l 664 1224 l 417 1063 z "},"Ň":{"ha":1010,"x_min":100,"x_max":911,"o":"m 100 0 l 100 976 l 232 976 l 289 788 l 289 0 l 100 0 m 775 0 l 196 750 l 232 976 l 811 226 l 775 0 m 775 0 l 721 183 l 721 976 l 911 976 l 911 0 l 775 0 m 690 1347 l 760 1267 l 564 1058 l 446 1058 l 250 1267 l 319 1347 l 571 1171 l 439 1171 l 690 1347 z "},"Ņ":{"ha":1010,"x_min":100,"x_max":911,"o":"m 100 0 l 100 976 l 232 976 l 289 788 l 289 0 l 100 0 m 775 0 l 196 750 l 232 976 l 811 226 l 775 0 m 775 0 l 721 183 l 721 976 l 911 976 l 911 0 l 775 0 m 458 -531 l 369 -472 l 481 -297 l 539 -286 q 514 -315 528 -304 q 485 -325 500 -326 q 422 -290 449 -322 q 399 -211 394 -257 q 438 -131 403 -162 q 522 -103 474 -99 q 601 -144 569 -107 q 628 -231 632 -182 q 616 -277 626 -251 q 579 -343 606 -303 l 458 -531 z "},"Ñ":{"ha":1010,"x_min":100,"x_max":911,"o":"m 100 0 l 100 976 l 232 976 l 289 788 l 289 0 l 100 0 m 775 0 l 196 750 l 232 976 l 811 226 l 775 0 m 775 0 l 721 183 l 721 976 l 911 976 l 911 0 l 775 0 m 607 1063 q 529 1079 561 1063 q 469 1111 497 1096 q 410 1126 442 1126 q 355 1114 376 1126 q 314 1075 333 1101 l 222 1167 q 305 1247 263 1219 q 404 1275 347 1275 q 482 1259 450 1275 q 542 1227 514 1243 q 601 1211 569 1211 q 658 1224 636 1211 q 697 1263 679 1238 l 789 1172 q 706 1091 749 1119 q 607 1063 664 1063 z "},"Ŋ":{"ha":1010,"x_min":100,"x_max":911,"o":"m 100 0 l 100 976 l 232 976 l 289 788 l 289 0 l 100 0 m 775 0 l 196 750 l 232 976 l 811 226 l 775 0 m 775 0 l 721 183 l 721 976 l 911 976 l 911 0 l 775 0 m 660 -297 q 540 -274 588 -297 q 453 -207 492 -250 l 568 -92 q 603 -122 585 -112 q 647 -131 622 -131 q 706 -110 682 -131 q 729 -49 729 -89 l 729 671 l 911 671 l 911 -46 q 877 -181 911 -125 q 787 -267 843 -237 q 660 -297 731 -297 z "},"O":{"ha":1111,"x_min":50,"x_max":1061,"o":"m 557 -15 q 358 24 450 -15 q 197 131 265 63 q 89 292 128 200 q 50 490 50 385 q 88 687 50 596 q 195 847 126 778 q 356 953 264 915 q 554 992 447 992 q 754 953 663 992 q 915 847 846 915 q 1022 686 983 778 q 1061 489 1061 594 q 1022 292 1061 383 q 915 131 983 200 q 755 24 846 63 q 557 -15 664 -15 m 554 161 q 718 203 649 161 q 827 318 788 244 q 867 490 867 392 q 844 622 867 563 q 781 726 822 682 q 682 793 739 769 q 554 817 625 817 q 392 776 463 817 q 283 661 322 735 q 243 490 243 588 q 266 356 243 417 q 330 251 289 294 q 428 185 371 208 q 554 161 486 161 z "},"Ó":{"ha":1111,"x_min":50,"x_max":1061,"o":"m 557 -15 q 358 24 450 -15 q 197 131 265 63 q 89 292 128 200 q 50 490 50 385 q 88 687 50 596 q 195 847 126 778 q 356 953 264 915 q 554 992 447 992 q 754 953 663 992 q 915 847 846 915 q 1022 686 983 778 q 1061 489 1061 594 q 1022 292 1061 383 q 915 131 983 200 q 755 24 846 63 q 557 -15 664 -15 m 554 161 q 718 203 649 161 q 827 318 788 244 q 867 490 867 392 q 844 622 867 563 q 781 726 822 682 q 682 793 739 769 q 554 817 625 817 q 392 776 463 817 q 283 661 322 735 q 243 490 243 588 q 266 356 243 417 q 330 251 289 294 q 428 185 371 208 q 554 161 486 161 m 467 1063 l 397 1149 l 597 1365 l 714 1224 l 467 1063 z "},"Ô":{"ha":1111,"x_min":50,"x_max":1061,"o":"m 557 -15 q 358 24 450 -15 q 197 131 265 63 q 89 292 128 200 q 50 490 50 385 q 88 687 50 596 q 195 847 126 778 q 356 953 264 915 q 554 992 447 992 q 754 953 663 992 q 915 847 846 915 q 1022 686 983 778 q 1061 489 1061 594 q 1022 292 1061 383 q 915 131 983 200 q 755 24 846 63 q 557 -15 664 -15 m 554 161 q 718 203 649 161 q 827 318 788 244 q 867 490 867 392 q 844 622 867 563 q 781 726 822 682 q 682 793 739 769 q 554 817 625 817 q 392 776 463 817 q 283 661 322 735 q 243 490 243 588 q 266 356 243 417 q 330 251 289 294 q 428 185 371 208 q 554 161 486 161 m 369 1058 l 300 1139 l 496 1347 l 615 1347 l 811 1139 l 742 1058 l 490 1236 l 622 1235 l 369 1058 z "},"Ö":{"ha":1111,"x_min":50,"x_max":1061,"o":"m 557 -15 q 358 24 450 -15 q 197 131 265 63 q 89 292 128 200 q 50 490 50 385 q 88 687 50 596 q 195 847 126 778 q 356 953 264 915 q 554 992 447 992 q 754 953 663 992 q 915 847 846 915 q 1022 686 983 778 q 1061 489 1061 594 q 1022 292 1061 383 q 915 131 983 200 q 755 24 846 63 q 557 -15 664 -15 m 554 161 q 718 203 649 161 q 827 318 788 244 q 867 490 867 392 q 844 622 867 563 q 781 726 822 682 q 682 793 739 769 q 554 817 625 817 q 392 776 463 817 q 283 661 322 735 q 243 490 243 588 q 266 356 243 417 q 330 251 289 294 q 428 185 371 208 q 554 161 486 161 m 406 1074 q 333 1103 363 1074 q 304 1178 304 1133 q 333 1252 304 1222 q 406 1282 363 1282 q 480 1252 451 1282 q 508 1178 508 1222 q 480 1103 508 1133 q 406 1074 451 1074 m 704 1074 q 632 1103 661 1074 q 603 1178 603 1133 q 632 1252 603 1222 q 704 1282 661 1282 q 778 1252 750 1282 q 807 1178 807 1222 q 778 1103 807 1133 q 704 1074 750 1074 z "},"Ò":{"ha":1111,"x_min":50,"x_max":1061,"o":"m 557 -15 q 358 24 450 -15 q 197 131 265 63 q 89 292 128 200 q 50 490 50 385 q 88 687 50 596 q 195 847 126 778 q 356 953 264 915 q 554 992 447 992 q 754 953 663 992 q 915 847 846 915 q 1022 686 983 778 q 1061 489 1061 594 q 1022 292 1061 383 q 915 131 983 200 q 755 24 846 63 q 557 -15 664 -15 m 554 161 q 718 203 649 161 q 827 318 788 244 q 867 490 867 392 q 844 622 867 563 q 781 726 822 682 q 682 793 739 769 q 554 817 625 817 q 392 776 463 817 q 283 661 322 735 q 243 490 243 588 q 266 356 243 417 q 330 251 289 294 q 428 185 371 208 q 554 161 486 161 m 621 1056 l 374 1217 l 492 1358 l 690 1142 l 621 1056 z "},"Ő":{"ha":1111,"x_min":50,"x_max":1061,"o":"m 557 -15 q 358 24 450 -15 q 197 131 265 63 q 89 292 128 200 q 50 490 50 385 q 88 687 50 596 q 195 847 126 778 q 356 953 264 915 q 554 992 447 992 q 754 953 663 992 q 915 847 846 915 q 1022 686 983 778 q 1061 489 1061 594 q 1022 292 1061 383 q 915 131 983 200 q 755 24 846 63 q 557 -15 664 -15 m 554 161 q 718 203 649 161 q 827 318 788 244 q 867 490 867 392 q 844 622 867 563 q 781 726 822 682 q 682 793 739 769 q 554 817 625 817 q 392 776 463 817 q 283 661 322 735 q 243 490 243 588 q 266 356 243 417 q 330 251 289 294 q 428 185 371 208 q 554 161 486 161 m 392 1072 l 292 1119 l 381 1401 l 547 1321 l 392 1072 m 682 1072 l 582 1119 l 671 1401 l 838 1321 l 682 1072 z "},"Ō":{"ha":1111,"x_min":50,"x_max":1061,"o":"m 557 -15 q 358 24 450 -15 q 197 131 265 63 q 89 292 128 200 q 50 490 50 385 q 88 687 50 596 q 195 847 126 778 q 356 953 264 915 q 554 992 447 992 q 754 953 663 992 q 915 847 846 915 q 1022 686 983 778 q 1061 489 1061 594 q 1022 292 1061 383 q 915 131 983 200 q 755 24 846 63 q 557 -15 664 -15 m 554 161 q 718 203 649 161 q 827 318 788 244 q 867 490 867 392 q 844 622 867 563 q 781 726 822 682 q 682 793 739 769 q 554 817 625 817 q 392 776 463 817 q 283 661 322 735 q 243 490 243 588 q 266 356 243 417 q 330 251 289 294 q 428 185 371 208 q 554 161 486 161 m 292 1249 l 819 1249 l 819 1107 l 292 1107 l 292 1249 z "},"Ø":{"ha":1111,"x_min":47,"x_max":1064,"o":"m 943 997 l 1064 876 l 168 -21 l 47 101 l 943 997 m 557 -15 q 358 24 450 -15 q 197 131 265 63 q 89 292 128 200 q 50 490 50 385 q 88 687 50 596 q 195 847 126 778 q 356 953 264 915 q 554 992 447 992 q 754 953 663 992 q 915 847 846 915 q 1022 686 983 778 q 1061 489 1061 594 q 1022 292 1061 383 q 915 131 983 200 q 755 24 846 63 q 557 -15 664 -15 m 554 161 q 718 203 649 161 q 827 318 788 244 q 867 490 867 392 q 844 622 867 563 q 781 726 822 682 q 682 793 739 769 q 554 817 625 817 q 392 776 463 817 q 283 661 322 735 q 243 490 243 588 q 266 356 243 417 q 330 251 289 294 q 428 185 371 208 q 554 161 486 161 z "},"Õ":{"ha":1111,"x_min":50,"x_max":1061,"o":"m 557 -15 q 358 24 450 -15 q 197 131 265 63 q 89 292 128 200 q 50 490 50 385 q 88 687 50 596 q 195 847 126 778 q 356 953 264 915 q 554 992 447 992 q 754 953 663 992 q 915 847 846 915 q 1022 686 983 778 q 1061 489 1061 594 q 1022 292 1061 383 q 915 131 983 200 q 755 24 846 63 q 557 -15 664 -15 m 554 161 q 718 203 649 161 q 827 318 788 244 q 867 490 867 392 q 844 622 867 563 q 781 726 822 682 q 682 793 739 769 q 554 817 625 817 q 392 776 463 817 q 283 661 322 735 q 243 490 243 588 q 266 356 243 417 q 330 251 289 294 q 428 185 371 208 q 554 161 486 161 m 657 1063 q 579 1079 611 1063 q 519 1111 547 1096 q 460 1126 492 1126 q 405 1114 426 1126 q 364 1075 383 1101 l 272 1167 q 355 1247 313 1219 q 454 1275 397 1275 q 532 1259 500 1275 q 592 1227 564 1243 q 651 1211 619 1211 q 708 1224 686 1211 q 747 1263 729 1238 l 839 1172 q 756 1091 799 1119 q 657 1063 714 1063 z "},"Œ":{"ha":1604,"x_min":50,"x_max":1546,"o":"m 554 -15 q 357 24 449 -15 q 197 131 265 63 q 89 292 128 200 q 50 490 50 385 q 88 687 50 596 q 195 847 126 778 q 355 953 264 915 q 551 992 446 992 q 741 953 658 992 q 881 847 824 915 q 969 686 939 778 q 999 489 999 594 q 969 292 999 383 q 882 131 939 200 q 742 24 825 63 q 554 -15 660 -15 m 554 161 q 718 203 649 161 q 827 318 788 244 q 867 490 867 392 q 827 660 867 586 q 717 775 788 733 q 554 817 647 817 q 392 776 463 817 q 283 661 322 735 q 243 490 243 588 q 266 356 243 417 q 330 251 289 294 q 428 185 371 208 q 554 161 486 161 m 867 0 l 867 976 l 1056 976 l 1056 0 l 867 0 m 1006 0 l 1006 167 l 1546 167 l 1546 0 l 1006 0 m 1006 418 l 1006 579 l 1499 579 l 1499 418 l 1006 418 m 1006 810 l 1006 976 l 1539 976 l 1539 810 l 1006 810 z "},"P":{"ha":856,"x_min":100,"x_max":813,"o":"m 239 363 l 239 517 l 465 517 q 546 535 510 517 q 603 587 582 553 q 624 669 624 621 q 603 751 624 717 q 546 804 582 786 q 465 822 510 822 l 239 822 l 239 976 l 485 976 q 652 939 578 976 q 769 833 726 901 q 813 669 813 764 q 769 506 813 575 q 652 400 726 438 q 485 363 578 363 l 239 363 m 100 0 l 100 976 l 289 976 l 289 0 l 100 0 z "},"Þ":{"ha":856,"x_min":100,"x_max":813,"o":"m 239 192 l 239 346 l 465 346 q 546 364 510 346 q 603 416 582 382 q 624 499 624 450 q 603 581 624 546 q 546 633 582 615 q 465 651 510 651 l 239 651 l 239 806 l 485 806 q 652 768 578 806 q 769 662 726 731 q 813 499 813 593 q 769 335 813 404 q 652 229 726 267 q 485 192 578 192 l 239 192 m 100 0 l 100 976 l 289 976 l 289 0 l 100 0 z "},"Q":{"ha":1139,"x_min":51,"x_max":1114,"o":"m 558 -15 q 359 24 451 -15 q 197 131 267 63 q 90 292 128 200 q 51 490 51 385 q 90 687 51 596 q 197 847 128 778 q 357 953 265 915 q 556 992 449 992 q 754 953 663 992 q 915 847 846 915 q 1023 686 985 778 q 1061 489 1061 594 q 1023 292 1061 383 q 916 131 985 200 q 756 24 847 63 q 558 -15 664 -15 m 999 -72 l 551 375 l 665 490 l 1114 42 l 999 -72 m 556 161 q 719 203 649 161 q 828 318 789 244 q 868 490 868 392 q 845 622 868 563 q 781 726 822 682 q 682 793 739 769 q 556 817 625 817 q 394 776 464 817 q 284 661 324 735 q 244 490 244 588 q 267 356 244 417 q 331 251 290 294 q 430 185 372 208 q 556 161 488 161 z "},"R":{"ha":889,"x_min":100,"x_max":863,"o":"m 239 408 l 239 556 l 465 556 q 573 591 535 556 q 611 689 611 626 q 573 784 611 746 q 465 822 535 822 l 239 822 l 239 976 l 482 976 q 648 940 576 976 q 759 839 719 903 q 799 692 799 775 q 759 542 799 606 q 647 444 719 479 q 479 408 575 408 l 239 408 m 100 0 l 100 976 l 289 976 l 289 0 l 100 0 m 633 0 l 311 422 l 485 476 l 863 0 l 633 0 z "},"Ŕ":{"ha":889,"x_min":100,"x_max":863,"o":"m 239 408 l 239 556 l 465 556 q 573 591 535 556 q 611 689 611 626 q 573 784 611 746 q 465 822 535 822 l 239 822 l 239 976 l 482 976 q 648 940 576 976 q 759 839 719 903 q 799 692 799 775 q 759 542 799 606 q 647 444 719 479 q 479 408 575 408 l 239 408 m 100 0 l 100 976 l 289 976 l 289 0 l 100 0 m 633 0 l 311 422 l 485 476 l 863 0 l 633 0 m 324 1063 l 254 1149 l 454 1365 l 571 1224 l 324 1063 z "},"Ř":{"ha":889,"x_min":100,"x_max":863,"o":"m 239 408 l 239 556 l 465 556 q 573 591 535 556 q 611 689 611 626 q 573 784 611 746 q 465 822 535 822 l 239 822 l 239 976 l 482 976 q 648 940 576 976 q 759 839 719 903 q 799 692 799 775 q 759 542 799 606 q 647 444 719 479 q 479 408 575 408 l 239 408 m 100 0 l 100 976 l 289 976 l 289 0 l 100 0 m 633 0 l 311 422 l 485 476 l 863 0 l 633 0 m 599 1347 l 668 1267 l 472 1058 l 353 1058 l 157 1267 l 226 1347 l 478 1171 l 346 1171 l 599 1347 z "},"Ŗ":{"ha":889,"x_min":100,"x_max":863,"o":"m 239 408 l 239 556 l 465 556 q 573 591 535 556 q 611 689 611 626 q 573 784 611 746 q 465 822 535 822 l 239 822 l 239 976 l 482 976 q 648 940 576 976 q 759 839 719 903 q 799 692 799 775 q 759 542 799 606 q 647 444 719 479 q 479 408 575 408 l 239 408 m 100 0 l 100 976 l 289 976 l 289 0 l 100 0 m 633 0 l 311 422 l 485 476 l 863 0 l 633 0 m 382 -531 l 293 -472 l 404 -297 l 463 -286 q 438 -315 451 -304 q 408 -325 424 -326 q 345 -290 372 -322 q 322 -211 318 -257 q 362 -131 326 -162 q 446 -103 397 -99 q 524 -144 493 -107 q 551 -231 556 -182 q 540 -277 550 -251 q 503 -343 529 -303 l 382 -531 z "},"S":{"ha":790,"x_min":29,"x_max":742,"o":"m 383 -14 q 181 26 265 -14 q 29 147 97 67 l 154 272 q 254 184 197 215 q 393 153 311 153 q 510 182 467 153 q 554 263 554 211 q 529 335 554 307 q 463 382 504 363 q 373 417 422 401 q 274 454 324 433 q 184 506 225 475 q 118 587 143 538 q 93 711 93 636 q 136 863 93 800 q 254 958 179 925 q 424 992 329 992 q 604 954 524 992 q 736 857 685 917 l 611 732 q 523 801 568 779 q 421 824 478 824 q 318 799 356 824 q 281 726 281 774 q 306 661 281 686 q 372 618 331 636 q 462 583 413 600 q 560 546 511 567 q 651 492 610 525 q 717 406 692 458 q 742 278 742 354 q 646 64 742 142 q 383 -14 550 -14 z "},"Ś":{"ha":790,"x_min":29,"x_max":742,"o":"m 383 -14 q 181 26 265 -14 q 29 147 97 67 l 154 272 q 254 184 197 215 q 393 153 311 153 q 510 182 467 153 q 554 263 554 211 q 529 335 554 307 q 463 382 504 363 q 373 417 422 401 q 274 454 324 433 q 184 506 225 475 q 118 587 143 538 q 93 711 93 636 q 136 863 93 800 q 254 958 179 925 q 424 992 329 992 q 604 954 524 992 q 736 857 685 917 l 611 732 q 523 801 568 779 q 421 824 478 824 q 318 799 356 824 q 281 726 281 774 q 306 661 281 686 q 372 618 331 636 q 462 583 413 600 q 560 546 511 567 q 651 492 610 525 q 717 406 692 458 q 742 278 742 354 q 646 64 742 142 q 383 -14 550 -14 m 335 1063 l 265 1149 l 465 1365 l 582 1224 l 335 1063 z "},"Š":{"ha":790,"x_min":29,"x_max":742,"o":"m 383 -14 q 181 26 265 -14 q 29 147 97 67 l 154 272 q 254 184 197 215 q 393 153 311 153 q 510 182 467 153 q 554 263 554 211 q 529 335 554 307 q 463 382 504 363 q 373 417 422 401 q 274 454 324 433 q 184 506 225 475 q 118 587 143 538 q 93 711 93 636 q 136 863 93 800 q 254 958 179 925 q 424 992 329 992 q 604 954 524 992 q 736 857 685 917 l 611 732 q 523 801 568 779 q 421 824 478 824 q 318 799 356 824 q 281 726 281 774 q 306 661 281 686 q 372 618 331 636 q 462 583 413 600 q 560 546 511 567 q 651 492 610 525 q 717 406 692 458 q 742 278 742 354 q 646 64 742 142 q 383 -14 550 -14 m 610 1347 l 679 1267 l 483 1058 l 364 1058 l 168 1267 l 238 1347 l 489 1171 l 357 1171 l 610 1347 z "},"Ş":{"ha":790,"x_min":29,"x_max":742,"o":"m 383 -14 q 181 26 265 -14 q 29 147 97 67 l 154 272 q 254 184 197 215 q 393 153 311 153 q 510 182 467 153 q 554 263 554 211 q 529 335 554 307 q 463 382 504 363 q 373 417 422 401 q 274 454 324 433 q 184 506 225 475 q 118 587 143 538 q 93 711 93 636 q 136 863 93 800 q 254 958 179 925 q 424 992 329 992 q 604 954 524 992 q 736 857 685 917 l 611 732 q 523 801 568 779 q 421 824 478 824 q 318 799 356 824 q 281 726 281 774 q 306 661 281 686 q 372 618 331 636 q 462 583 413 600 q 560 546 511 567 q 651 492 610 525 q 717 406 692 458 q 742 278 742 354 q 646 64 742 142 q 383 -14 550 -14 m 360 -294 q 268 -282 307 -294 q 190 -246 229 -269 l 256 -164 q 294 -185 272 -176 q 344 -193 315 -193 q 391 -184 376 -193 q 406 -162 406 -175 q 391 -137 406 -147 q 344 -126 376 -126 l 286 -126 l 332 18 l 447 18 l 413 -82 l 354 -36 q 495 -72 443 -35 q 547 -165 547 -108 q 496 -258 547 -221 q 360 -294 444 -294 z "},"Ș":{"ha":790,"x_min":29,"x_max":742,"o":"m 383 -14 q 181 26 265 -14 q 29 147 97 67 l 154 272 q 254 184 197 215 q 393 153 311 153 q 510 182 467 153 q 554 263 554 211 q 529 335 554 307 q 463 382 504 363 q 373 417 422 401 q 274 454 324 433 q 184 506 225 475 q 118 587 143 538 q 93 711 93 636 q 136 863 93 800 q 254 958 179 925 q 424 992 329 992 q 604 954 524 992 q 736 857 685 917 l 611 732 q 523 801 568 779 q 421 824 478 824 q 318 799 356 824 q 281 726 281 774 q 306 661 281 686 q 372 618 331 636 q 462 583 413 600 q 560 546 511 567 q 651 492 610 525 q 717 406 692 458 q 742 278 742 354 q 646 64 742 142 q 383 -14 550 -14 m 342 -531 l 253 -472 l 364 -297 l 422 -286 q 397 -315 411 -304 q 368 -325 383 -326 q 305 -290 332 -322 q 282 -211 278 -257 q 322 -131 286 -162 q 406 -103 357 -99 q 484 -144 453 -107 q 511 -231 515 -182 q 499 -277 510 -251 q 463 -343 489 -303 l 342 -531 z "},"ẞ":{"ha":1013,"x_min":100,"x_max":961,"o":"m 481 576 l 731 844 l 894 799 l 688 574 l 481 469 l 481 576 m 594 -12 q 476 -1 521 -12 q 400 31 431 10 l 400 250 q 480 183 428 208 q 592 158 532 158 q 687 178 646 158 q 751 235 728 199 q 774 321 774 272 q 750 408 774 372 q 684 463 726 443 q 581 483 642 483 q 528 480 556 483 q 481 469 500 476 l 564 575 q 631 594 597 586 q 696 601 665 601 q 831 566 771 601 q 926 466 892 531 q 961 313 961 401 q 915 143 961 217 q 787 28 869 69 q 594 -12 704 -12 m 525 1010 q 658 997 592 1010 q 777 966 724 983 q 863 935 831 949 q 894 921 894 921 l 894 799 q 867 803 894 799 q 796 817 840 808 q 701 833 751 825 q 605 845 651 840 q 525 850 558 850 q 394 822 449 850 q 311 747 340 793 q 282 644 282 700 l 282 0 l 100 0 l 100 678 q 156 853 100 779 q 307 969 211 928 q 525 1010 403 1010 z "},"T":{"ha":874,"x_min":31,"x_max":843,"o":"m 342 0 l 342 956 l 532 956 l 532 0 l 342 0 m 31 808 l 31 976 l 843 976 l 843 808 l 31 808 z "},"Ť":{"ha":874,"x_min":31,"x_max":843,"o":"m 342 0 l 342 956 l 532 956 l 532 0 l 342 0 m 31 808 l 31 976 l 843 976 l 843 808 l 31 808 m 622 1347 l 692 1267 l 496 1058 l 378 1058 l 182 1267 l 251 1347 l 501 1171 l 369 1171 l 622 1347 z "},"Ț":{"ha":874,"x_min":31,"x_max":843,"o":"m 342 0 l 342 956 l 532 956 l 532 0 l 342 0 m 31 808 l 31 976 l 843 976 l 843 808 l 31 808 m 390 -531 l 301 -472 l 413 -297 l 471 -286 q 446 -315 460 -304 q 417 -325 432 -326 q 353 -290 381 -322 q 331 -211 326 -257 q 370 -131 335 -162 q 454 -103 406 -99 q 533 -144 501 -107 q 560 -231 564 -182 q 548 -277 558 -251 q 511 -343 538 -303 l 390 -531 z "},"U":{"ha":967,"x_min":88,"x_max":881,"o":"m 485 -14 q 280 37 369 -14 q 139 176 190 88 q 88 378 88 265 l 88 976 l 276 976 l 276 372 q 303 260 276 307 q 378 187 331 213 q 485 161 426 161 q 590 187 544 161 q 663 260 636 213 q 690 371 690 307 l 690 976 l 881 976 l 881 376 q 829 176 881 264 q 690 37 778 88 q 485 -14 601 -14 z "},"Ú":{"ha":967,"x_min":88,"x_max":881,"o":"m 485 -14 q 280 37 369 -14 q 139 176 190 88 q 88 378 88 265 l 88 976 l 276 976 l 276 372 q 303 260 276 307 q 378 187 331 213 q 485 161 426 161 q 590 187 544 161 q 663 260 636 213 q 690 371 690 307 l 690 976 l 881 976 l 881 376 q 829 176 881 264 q 690 37 778 88 q 485 -14 601 -14 m 394 1063 l 325 1149 l 525 1365 l 642 1224 l 394 1063 z "},"Ŭ":{"ha":967,"x_min":88,"x_max":881,"o":"m 485 -14 q 280 37 369 -14 q 139 176 190 88 q 88 378 88 265 l 88 976 l 276 976 l 276 372 q 303 260 276 307 q 378 187 331 213 q 485 161 426 161 q 590 187 544 161 q 663 260 636 213 q 690 371 690 307 l 690 976 l 881 976 l 881 376 q 829 176 881 264 q 690 37 778 88 q 485 -14 601 -14 m 739 1300 q 706 1173 739 1231 q 615 1082 672 1115 q 485 1049 558 1049 q 353 1082 411 1049 q 262 1173 296 1115 q 228 1300 228 1231 l 381 1300 q 409 1225 381 1256 q 485 1194 438 1194 q 537 1208 514 1194 q 573 1247 560 1222 q 586 1300 586 1271 l 739 1300 z "},"Û":{"ha":967,"x_min":88,"x_max":881,"o":"m 485 -14 q 280 37 369 -14 q 139 176 190 88 q 88 378 88 265 l 88 976 l 276 976 l 276 372 q 303 260 276 307 q 378 187 331 213 q 485 161 426 161 q 590 187 544 161 q 663 260 636 213 q 690 371 690 307 l 690 976 l 881 976 l 881 376 q 829 176 881 264 q 690 37 778 88 q 485 -14 601 -14 m 297 1058 l 228 1139 l 424 1347 l 543 1347 l 739 1139 l 669 1058 l 418 1236 l 550 1235 l 297 1058 z "},"Ü":{"ha":967,"x_min":88,"x_max":881,"o":"m 485 -14 q 280 37 369 -14 q 139 176 190 88 q 88 378 88 265 l 88 976 l 276 976 l 276 372 q 303 260 276 307 q 378 187 331 213 q 485 161 426 161 q 590 187 544 161 q 663 260 636 213 q 690 371 690 307 l 690 976 l 881 976 l 881 376 q 829 176 881 264 q 690 37 778 88 q 485 -14 601 -14 m 333 1074 q 261 1103 290 1074 q 232 1178 232 1133 q 261 1252 232 1222 q 333 1282 290 1282 q 408 1252 379 1282 q 436 1178 436 1222 q 408 1103 436 1133 q 333 1074 379 1074 m 632 1074 q 560 1103 589 1074 q 531 1178 531 1133 q 560 1252 531 1222 q 632 1282 589 1282 q 706 1252 678 1282 q 735 1178 735 1222 q 706 1103 735 1133 q 632 1074 678 1074 z "},"Ù":{"ha":967,"x_min":88,"x_max":881,"o":"m 485 -14 q 280 37 369 -14 q 139 176 190 88 q 88 378 88 265 l 88 976 l 276 976 l 276 372 q 303 260 276 307 q 378 187 331 213 q 485 161 426 161 q 590 187 544 161 q 663 260 636 213 q 690 371 690 307 l 690 976 l 881 976 l 881 376 q 829 176 881 264 q 690 37 778 88 q 485 -14 601 -14 m 549 1056 l 301 1217 l 419 1358 l 618 1142 l 549 1056 z "},"Ű":{"ha":967,"x_min":88,"x_max":881,"o":"m 485 -14 q 280 37 369 -14 q 139 176 190 88 q 88 378 88 265 l 88 976 l 276 976 l 276 372 q 303 260 276 307 q 378 187 331 213 q 485 161 426 161 q 590 187 544 161 q 663 260 636 213 q 690 371 690 307 l 690 976 l 881 976 l 881 376 q 829 176 881 264 q 690 37 778 88 q 485 -14 601 -14 m 319 1072 l 219 1119 l 308 1401 l 475 1321 l 319 1072 m 610 1072 l 510 1119 l 599 1401 l 765 1321 l 610 1072 z "},"Ū":{"ha":967,"x_min":88,"x_max":881,"o":"m 485 -14 q 280 37 369 -14 q 139 176 190 88 q 88 378 88 265 l 88 976 l 276 976 l 276 372 q 303 260 276 307 q 378 187 331 213 q 485 161 426 161 q 590 187 544 161 q 663 260 636 213 q 690 371 690 307 l 690 976 l 881 976 l 881 376 q 829 176 881 264 q 690 37 778 88 q 485 -14 601 -14 m 219 1249 l 747 1249 l 747 1107 l 219 1107 l 219 1249 z "},"Ų":{"ha":967,"x_min":88,"x_max":881,"o":"m 485 -14 q 280 37 369 -14 q 139 176 190 88 q 88 378 88 265 l 88 976 l 276 976 l 276 372 q 303 260 276 307 q 378 187 331 213 q 485 161 426 161 q 590 187 544 161 q 663 260 636 213 q 690 371 690 307 l 690 976 l 881 976 l 881 376 q 829 176 881 264 q 690 37 778 88 q 485 -14 601 -14 m 549 -281 q 424 -247 475 -281 q 372 -140 372 -214 q 415 -26 372 -75 q 536 50 457 24 l 640 14 q 557 -42 588 -10 q 526 -115 526 -74 q 540 -153 526 -139 q 579 -167 553 -167 q 613 -160 597 -167 q 639 -149 628 -154 l 682 -246 q 626 -270 658 -260 q 549 -281 594 -281 z "},"Ů":{"ha":967,"x_min":88,"x_max":881,"o":"m 485 -14 q 280 37 369 -14 q 139 176 190 88 q 88 378 88 265 l 88 976 l 276 976 l 276 372 q 303 260 276 307 q 378 187 331 213 q 485 161 426 161 q 590 187 544 161 q 663 260 636 213 q 690 371 690 307 l 690 976 l 881 976 l 881 376 q 829 176 881 264 q 690 37 778 88 q 485 -14 601 -14 m 485 1049 q 392 1072 432 1049 q 328 1135 351 1096 q 304 1224 304 1174 q 328 1314 304 1274 q 392 1377 351 1354 q 483 1400 432 1400 q 574 1377 535 1400 q 638 1315 614 1354 q 661 1225 661 1275 q 638 1135 661 1175 q 574 1072 614 1094 q 485 1049 535 1049 m 485 1161 q 527 1179 510 1161 q 544 1225 544 1197 q 527 1269 544 1251 q 485 1288 510 1288 q 438 1269 456 1288 q 421 1225 421 1251 q 438 1180 421 1199 q 485 1161 456 1161 z "},"V":{"ha":979,"x_min":28,"x_max":951,"o":"m 413 0 l 28 976 l 232 976 l 529 186 l 450 186 l 750 976 l 951 976 l 563 0 l 413 0 z "},"W":{"ha":1378,"x_min":31,"x_max":1349,"o":"m 347 0 l 31 976 l 217 976 l 451 225 l 389 225 l 619 976 l 760 976 l 990 225 l 926 225 l 1163 976 l 1349 976 l 1031 0 l 890 0 l 658 750 l 719 750 l 489 0 l 347 0 z "},"Ẃ":{"ha":1378,"x_min":31,"x_max":1349,"o":"m 347 0 l 31 976 l 217 976 l 451 225 l 389 225 l 619 976 l 760 976 l 990 225 l 926 225 l 1163 976 l 1349 976 l 1031 0 l 890 0 l 658 750 l 719 750 l 489 0 l 347 0 m 600 1063 l 531 1149 l 731 1365 l 847 1224 l 600 1063 z "},"Ŵ":{"ha":1378,"x_min":31,"x_max":1349,"o":"m 347 0 l 31 976 l 217 976 l 451 225 l 389 225 l 619 976 l 760 976 l 990 225 l 926 225 l 1163 976 l 1349 976 l 1031 0 l 890 0 l 658 750 l 719 750 l 489 0 l 347 0 m 503 1058 l 433 1139 l 629 1347 l 749 1347 l 944 1139 l 875 1058 l 624 1236 l 756 1235 l 503 1058 z "},"Ẅ":{"ha":1378,"x_min":31,"x_max":1349,"o":"m 347 0 l 31 976 l 217 976 l 451 225 l 389 225 l 619 976 l 760 976 l 990 225 l 926 225 l 1163 976 l 1349 976 l 1031 0 l 890 0 l 658 750 l 719 750 l 489 0 l 347 0 m 539 1074 q 467 1103 496 1074 q 438 1178 438 1133 q 467 1252 438 1222 q 539 1282 496 1282 q 613 1252 585 1282 q 642 1178 642 1222 q 613 1103 642 1133 q 539 1074 585 1074 m 838 1074 q 765 1103 794 1074 q 736 1178 736 1133 q 765 1252 736 1222 q 838 1282 794 1282 q 912 1252 883 1282 q 940 1178 940 1222 q 912 1103 940 1133 q 838 1074 883 1074 z "},"Ẁ":{"ha":1378,"x_min":31,"x_max":1349,"o":"m 347 0 l 31 976 l 217 976 l 451 225 l 389 225 l 619 976 l 760 976 l 990 225 l 926 225 l 1163 976 l 1349 976 l 1031 0 l 890 0 l 658 750 l 719 750 l 489 0 l 347 0 m 754 1056 l 507 1217 l 625 1358 l 824 1142 l 754 1056 z "},"X":{"ha":982,"x_min":28,"x_max":954,"o":"m 733 0 l 453 435 l 425 435 l 44 976 l 268 976 l 547 567 l 575 567 l 954 0 l 733 0 m 28 0 l 393 522 l 532 429 l 242 0 l 28 0 m 585 464 l 446 557 l 724 976 l 938 976 l 585 464 z "},"Y":{"ha":943,"x_min":25,"x_max":919,"o":"m 403 376 l 25 976 l 243 976 l 536 496 l 411 496 l 704 976 l 919 976 l 538 376 l 403 376 m 378 0 l 378 478 l 568 478 l 568 0 l 378 0 z "},"Ý":{"ha":943,"x_min":25,"x_max":919,"o":"m 403 376 l 25 976 l 243 976 l 536 496 l 411 496 l 704 976 l 919 976 l 538 376 l 403 376 m 378 0 l 378 478 l 568 478 l 568 0 l 378 0 m 382 1063 l 313 1149 l 513 1365 l 629 1224 l 382 1063 z "},"Ŷ":{"ha":943,"x_min":25,"x_max":919,"o":"m 403 376 l 25 976 l 243 976 l 536 496 l 411 496 l 704 976 l 919 976 l 538 376 l 403 376 m 378 0 l 378 478 l 568 478 l 568 0 l 378 0 m 286 1058 l 217 1139 l 413 1347 l 532 1347 l 728 1139 l 658 1058 l 407 1236 l 539 1235 l 286 1058 z "},"Ÿ":{"ha":943,"x_min":25,"x_max":919,"o":"m 403 376 l 25 976 l 243 976 l 536 496 l 411 496 l 704 976 l 919 976 l 538 376 l 403 376 m 378 0 l 378 478 l 568 478 l 568 0 l 378 0 m 322 1074 q 250 1103 279 1074 q 221 1178 221 1133 q 250 1252 221 1222 q 322 1282 279 1282 q 397 1252 368 1282 q 425 1178 425 1222 q 397 1103 425 1133 q 322 1074 368 1074 m 621 1074 q 549 1103 578 1074 q 519 1178 519 1133 q 549 1252 519 1222 q 621 1282 578 1282 q 695 1252 667 1282 q 724 1178 724 1222 q 695 1103 724 1133 q 621 1074 667 1074 z "},"Ỳ":{"ha":943,"x_min":25,"x_max":919,"o":"m 403 376 l 25 976 l 243 976 l 536 496 l 411 496 l 704 976 l 919 976 l 538 376 l 403 376 m 378 0 l 378 478 l 568 478 l 568 0 l 378 0 m 536 1056 l 289 1217 l 407 1358 l 606 1142 l 536 1056 z "},"Z":{"ha":831,"x_min":44,"x_max":782,"o":"m 44 132 l 557 844 l 782 844 l 269 132 l 44 132 m 44 0 l 44 132 l 186 167 l 771 167 l 771 0 l 44 0 m 74 810 l 74 976 l 782 976 l 782 844 l 639 810 l 74 810 z "},"Ź":{"ha":831,"x_min":44,"x_max":782,"o":"m 44 132 l 557 844 l 782 844 l 269 132 l 44 132 m 44 0 l 44 132 l 186 167 l 771 167 l 771 0 l 44 0 m 74 810 l 74 976 l 782 976 l 782 844 l 639 810 l 74 810 m 325 1063 l 256 1149 l 456 1365 l 572 1224 l 325 1063 z "},"Ž":{"ha":831,"x_min":44,"x_max":782,"o":"m 44 132 l 557 844 l 782 844 l 269 132 l 44 132 m 44 0 l 44 132 l 186 167 l 771 167 l 771 0 l 44 0 m 74 810 l 74 976 l 782 976 l 782 844 l 639 810 l 74 810 m 600 1347 l 669 1267 l 474 1058 l 354 1058 l 158 1267 l 228 1347 l 479 1171 l 347 1171 l 600 1347 z "},"Ż":{"ha":831,"x_min":44,"x_max":782,"o":"m 44 132 l 557 844 l 782 844 l 269 132 l 44 132 m 44 0 l 44 132 l 186 167 l 771 167 l 771 0 l 44 0 m 74 810 l 74 976 l 782 976 l 782 844 l 639 810 l 74 810 m 415 1074 q 342 1103 371 1074 q 313 1178 313 1133 q 342 1252 313 1222 q 415 1282 371 1282 q 490 1252 461 1282 q 518 1178 518 1222 q 490 1103 518 1133 q 415 1074 461 1074 z "},"a":{"ha":817,"x_min":39,"x_max":736,"o":"m 361 -14 q 196 32 269 -14 q 81 157 122 78 q 39 335 39 236 q 81 514 39 435 q 196 639 122 593 q 361 685 269 685 q 490 656 433 685 q 581 574 547 626 q 618 457 615 522 l 618 215 q 581 97 615 149 q 490 16 547 46 q 361 -14 433 -14 m 394 154 q 518 205 471 154 q 565 336 565 256 q 544 430 565 389 q 484 494 522 471 q 394 517 446 517 q 306 494 344 517 q 247 430 268 471 q 225 336 225 389 q 247 241 225 282 q 306 177 268 200 q 394 154 344 154 m 556 0 l 556 181 l 585 344 l 556 506 l 556 671 l 736 671 l 736 0 l 556 0 z "},"á":{"ha":817,"x_min":39,"x_max":736,"o":"m 361 -14 q 196 32 269 -14 q 81 157 122 78 q 39 335 39 236 q 81 514 39 435 q 196 639 122 593 q 361 685 269 685 q 490 656 433 685 q 581 574 547 626 q 618 457 615 522 l 618 215 q 581 97 615 149 q 490 16 547 46 q 361 -14 433 -14 m 394 154 q 518 205 471 154 q 565 336 565 256 q 544 430 565 389 q 484 494 522 471 q 394 517 446 517 q 306 494 344 517 q 247 430 268 471 q 225 336 225 389 q 247 241 225 282 q 306 177 268 200 q 394 154 344 154 m 556 0 l 556 181 l 585 344 l 556 506 l 556 671 l 736 671 l 736 0 l 556 0 m 322 757 l 253 843 l 453 1060 l 569 918 l 322 757 z "},"ă":{"ha":817,"x_min":39,"x_max":736,"o":"m 361 -14 q 196 32 269 -14 q 81 157 122 78 q 39 335 39 236 q 81 514 39 435 q 196 639 122 593 q 361 685 269 685 q 490 656 433 685 q 581 574 547 626 q 618 457 615 522 l 618 215 q 581 97 615 149 q 490 16 547 46 q 361 -14 433 -14 m 394 154 q 518 205 471 154 q 565 336 565 256 q 544 430 565 389 q 484 494 522 471 q 394 517 446 517 q 306 494 344 517 q 247 430 268 471 q 225 336 225 389 q 247 241 225 282 q 306 177 268 200 q 394 154 344 154 m 556 0 l 556 181 l 585 344 l 556 506 l 556 671 l 736 671 l 736 0 l 556 0 m 667 994 q 633 867 667 925 q 543 776 600 810 q 413 743 486 743 q 281 776 339 743 q 190 867 224 810 q 156 994 156 925 l 308 994 q 337 919 308 950 q 413 889 365 889 q 465 903 442 889 q 501 941 488 917 q 514 994 514 965 l 667 994 z "},"ǎ":{"ha":817,"x_min":39,"x_max":736,"o":"m 361 -14 q 196 32 269 -14 q 81 157 122 78 q 39 335 39 236 q 81 514 39 435 q 196 639 122 593 q 361 685 269 685 q 490 656 433 685 q 581 574 547 626 q 618 457 615 522 l 618 215 q 581 97 615 149 q 490 16 547 46 q 361 -14 433 -14 m 394 154 q 518 205 471 154 q 565 336 565 256 q 544 430 565 389 q 484 494 522 471 q 394 517 446 517 q 306 494 344 517 q 247 430 268 471 q 225 336 225 389 q 247 241 225 282 q 306 177 268 200 q 394 154 344 154 m 556 0 l 556 181 l 585 344 l 556 506 l 556 671 l 736 671 l 736 0 l 556 0 m 597 1042 l 667 961 l 471 753 l 351 753 l 156 961 l 225 1042 l 476 865 l 344 865 l 597 1042 z "},"â":{"ha":817,"x_min":39,"x_max":736,"o":"m 361 -14 q 196 32 269 -14 q 81 157 122 78 q 39 335 39 236 q 81 514 39 435 q 196 639 122 593 q 361 685 269 685 q 490 656 433 685 q 581 574 547 626 q 618 457 615 522 l 618 215 q 581 97 615 149 q 490 16 547 46 q 361 -14 433 -14 m 394 154 q 518 205 471 154 q 565 336 565 256 q 544 430 565 389 q 484 494 522 471 q 394 517 446 517 q 306 494 344 517 q 247 430 268 471 q 225 336 225 389 q 247 241 225 282 q 306 177 268 200 q 394 154 344 154 m 556 0 l 556 181 l 585 344 l 556 506 l 556 671 l 736 671 l 736 0 l 556 0 m 225 753 l 156 833 l 351 1042 l 471 1042 l 667 833 l 597 753 l 346 931 l 478 929 l 225 753 z "},"ä":{"ha":817,"x_min":39,"x_max":736,"o":"m 361 -14 q 196 32 269 -14 q 81 157 122 78 q 39 335 39 236 q 81 514 39 435 q 196 639 122 593 q 361 685 269 685 q 490 656 433 685 q 581 574 547 626 q 618 457 615 522 l 618 215 q 581 97 615 149 q 490 16 547 46 q 361 -14 433 -14 m 394 154 q 518 205 471 154 q 565 336 565 256 q 544 430 565 389 q 484 494 522 471 q 394 517 446 517 q 306 494 344 517 q 247 430 268 471 q 225 336 225 389 q 247 241 225 282 q 306 177 268 200 q 394 154 344 154 m 556 0 l 556 181 l 585 344 l 556 506 l 556 671 l 736 671 l 736 0 l 556 0 m 263 768 q 190 798 219 768 q 161 872 161 828 q 190 947 161 917 q 263 976 219 976 q 337 947 308 976 q 365 872 365 917 q 337 798 365 828 q 263 768 308 768 m 561 768 q 489 798 518 768 q 460 872 460 828 q 489 947 460 917 q 561 976 518 976 q 635 947 607 976 q 664 872 664 917 q 635 798 664 828 q 561 768 607 768 z "},"à":{"ha":817,"x_min":39,"x_max":736,"o":"m 361 -14 q 196 32 269 -14 q 81 157 122 78 q 39 335 39 236 q 81 514 39 435 q 196 639 122 593 q 361 685 269 685 q 490 656 433 685 q 581 574 547 626 q 618 457 615 522 l 618 215 q 581 97 615 149 q 490 16 547 46 q 361 -14 433 -14 m 394 154 q 518 205 471 154 q 565 336 565 256 q 544 430 565 389 q 484 494 522 471 q 394 517 446 517 q 306 494 344 517 q 247 430 268 471 q 225 336 225 389 q 247 241 225 282 q 306 177 268 200 q 394 154 344 154 m 556 0 l 556 181 l 585 344 l 556 506 l 556 671 l 736 671 l 736 0 l 556 0 m 476 750 l 229 911 l 347 1053 l 546 836 l 476 750 z "},"ā":{"ha":817,"x_min":39,"x_max":736,"o":"m 361 -14 q 196 32 269 -14 q 81 157 122 78 q 39 335 39 236 q 81 514 39 435 q 196 639 122 593 q 361 685 269 685 q 490 656 433 685 q 581 574 547 626 q 618 457 615 522 l 618 215 q 581 97 615 149 q 490 16 547 46 q 361 -14 433 -14 m 394 154 q 518 205 471 154 q 565 336 565 256 q 544 430 565 389 q 484 494 522 471 q 394 517 446 517 q 306 494 344 517 q 247 430 268 471 q 225 336 225 389 q 247 241 225 282 q 306 177 268 200 q 394 154 344 154 m 556 0 l 556 181 l 585 344 l 556 506 l 556 671 l 736 671 l 736 0 l 556 0 m 147 943 l 675 943 l 675 801 l 147 801 l 147 943 z "},"ą":{"ha":817,"x_min":39,"x_max":778,"o":"m 361 -14 q 196 32 269 -14 q 81 157 122 78 q 39 335 39 236 q 81 514 39 435 q 196 639 122 593 q 361 685 269 685 q 490 656 433 685 q 581 574 547 626 q 618 457 615 522 l 618 215 q 581 97 615 149 q 490 16 547 46 q 361 -14 433 -14 m 394 154 q 518 205 471 154 q 565 336 565 256 q 544 430 565 389 q 484 494 522 471 q 394 517 446 517 q 306 494 344 517 q 247 430 268 471 q 225 336 225 389 q 247 241 225 282 q 306 177 268 200 q 394 154 344 154 m 556 0 l 556 181 l 585 344 l 556 506 l 556 671 l 736 671 l 736 0 l 556 0 m 644 -294 q 519 -261 571 -294 q 468 -154 468 -228 q 510 -40 468 -89 q 632 36 553 10 l 736 0 q 653 -56 683 -24 q 622 -129 622 -87 q 635 -167 622 -153 q 675 -181 649 -181 q 708 -174 693 -181 q 735 -162 724 -168 l 778 -260 q 722 -284 754 -274 q 644 -294 690 -294 z "},"å":{"ha":817,"x_min":39,"x_max":736,"o":"m 361 -14 q 196 32 269 -14 q 81 157 122 78 q 39 335 39 236 q 81 514 39 435 q 196 639 122 593 q 361 685 269 685 q 490 656 433 685 q 581 574 547 626 q 618 457 615 522 l 618 215 q 581 97 615 149 q 490 16 547 46 q 361 -14 433 -14 m 394 154 q 518 205 471 154 q 565 336 565 256 q 544 430 565 389 q 484 494 522 471 q 394 517 446 517 q 306 494 344 517 q 247 430 268 471 q 225 336 225 389 q 247 241 225 282 q 306 177 268 200 q 394 154 344 154 m 556 0 l 556 181 l 585 344 l 556 506 l 556 671 l 736 671 l 736 0 l 556 0 m 414 743 q 321 767 361 743 q 257 829 281 790 q 233 918 233 868 q 257 1008 233 968 q 321 1072 281 1049 q 413 1094 361 1094 q 503 1072 464 1094 q 567 1009 543 1049 q 590 919 590 969 q 567 829 590 869 q 503 766 543 789 q 414 743 464 743 m 414 856 q 456 874 439 856 q 474 919 474 892 q 456 964 474 946 q 414 982 439 982 q 367 964 385 982 q 350 919 350 946 q 367 874 350 893 q 414 856 385 856 z "},"ã":{"ha":817,"x_min":39,"x_max":736,"o":"m 361 -14 q 196 32 269 -14 q 81 157 122 78 q 39 335 39 236 q 81 514 39 435 q 196 639 122 593 q 361 685 269 685 q 490 656 433 685 q 581 574 547 626 q 618 457 615 522 l 618 215 q 581 97 615 149 q 490 16 547 46 q 361 -14 433 -14 m 394 154 q 518 205 471 154 q 565 336 565 256 q 544 430 565 389 q 484 494 522 471 q 394 517 446 517 q 306 494 344 517 q 247 430 268 471 q 225 336 225 389 q 247 241 225 282 q 306 177 268 200 q 394 154 344 154 m 556 0 l 556 181 l 585 344 l 556 506 l 556 671 l 736 671 l 736 0 l 556 0 m 513 757 q 435 774 467 757 q 375 806 403 790 q 315 821 347 821 q 260 808 282 821 q 219 769 239 796 l 128 861 q 210 942 168 914 q 310 969 253 969 q 388 953 356 969 q 447 922 419 938 q 507 906 475 906 q 563 919 542 906 q 603 957 585 932 l 694 867 q 612 785 654 814 q 513 757 569 757 z "},"æ":{"ha":1288,"x_min":39,"x_max":1256,"o":"m 939 -14 q 751 31 833 -14 q 622 156 669 76 q 574 336 574 235 q 620 515 574 436 q 747 640 667 593 q 926 686 828 686 q 1098 642 1024 686 q 1215 523 1172 599 q 1257 351 1257 447 q 1255 315 1257 333 q 1247 272 1253 296 l 683 271 l 683 407 l 1163 408 l 1089 351 q 1067 451 1086 411 q 1013 513 1049 492 q 926 535 978 535 q 832 510 872 535 q 770 442 792 486 q 749 339 749 399 q 772 233 749 278 q 838 163 794 188 q 938 139 881 139 q 1031 156 989 139 q 1103 208 1072 174 l 1210 101 q 1091 15 1161 44 q 939 -14 1021 -14 m 361 -14 q 196 32 269 -14 q 81 157 122 78 q 39 335 39 236 q 81 514 39 435 q 196 639 122 593 q 361 685 269 685 q 490 656 433 685 q 581 574 547 626 q 618 457 615 522 l 618 215 q 581 97 615 149 q 490 16 547 46 q 361 -14 433 -14 m 394 154 q 518 205 471 154 q 565 336 565 256 q 544 430 565 389 q 484 494 522 471 q 394 517 446 517 q 306 494 344 517 q 247 430 268 471 q 225 336 225 389 q 247 241 225 282 q 306 177 268 200 q 394 154 344 154 m 556 0 l 556 181 l 585 344 l 556 506 l 556 671 l 736 671 l 736 0 l 556 0 z "},"b":{"ha":817,"x_min":81,"x_max":778,"o":"m 453 -14 q 322 17 381 -14 q 229 100 264 47 q 192 218 194 153 l 192 457 q 230 574 194 522 q 324 656 265 626 q 453 685 382 685 q 619 639 546 685 q 735 514 693 593 q 778 335 778 435 q 735 157 778 236 q 619 32 693 78 q 453 -14 546 -14 m 81 0 l 81 1004 l 263 1004 l 263 506 l 232 344 l 261 181 l 261 0 l 81 0 m 422 154 q 510 177 472 154 q 570 241 549 200 q 592 336 592 282 q 570 430 592 389 q 510 494 549 471 q 421 517 471 517 q 333 494 371 517 q 273 430 294 471 q 251 336 251 389 q 273 241 251 282 q 333 177 294 200 q 422 154 372 154 z "},"c":{"ha":683,"x_min":36,"x_max":661,"o":"m 397 -14 q 213 32 294 -14 q 83 157 131 78 q 36 335 36 236 q 83 514 36 435 q 213 640 131 593 q 397 686 296 686 q 543 657 476 686 q 658 574 610 628 l 542 456 q 478 500 515 485 q 397 515 442 515 q 308 492 347 515 q 245 430 268 469 q 222 336 222 390 q 245 242 222 283 q 308 178 268 201 q 397 156 347 156 q 480 172 443 156 q 543 218 517 188 l 661 100 q 543 15 610 44 q 397 -14 476 -14 z "},"ć":{"ha":683,"x_min":36,"x_max":661,"o":"m 397 -14 q 213 32 294 -14 q 83 157 131 78 q 36 335 36 236 q 83 514 36 435 q 213 640 131 593 q 397 686 296 686 q 543 657 476 686 q 658 574 610 628 l 542 456 q 478 500 515 485 q 397 515 442 515 q 308 492 347 515 q 245 430 268 469 q 222 336 222 390 q 245 242 222 283 q 308 178 268 201 q 397 156 347 156 q 480 172 443 156 q 543 218 517 188 l 661 100 q 543 15 610 44 q 397 -14 476 -14 m 303 757 l 233 843 l 433 1060 l 550 918 l 303 757 z "},"č":{"ha":683,"x_min":36,"x_max":661,"o":"m 397 -14 q 213 32 294 -14 q 83 157 131 78 q 36 335 36 236 q 83 514 36 435 q 213 640 131 593 q 397 686 296 686 q 543 657 476 686 q 658 574 610 628 l 542 456 q 478 500 515 485 q 397 515 442 515 q 308 492 347 515 q 245 430 268 469 q 222 336 222 390 q 245 242 222 283 q 308 178 268 201 q 397 156 347 156 q 480 172 443 156 q 543 218 517 188 l 661 100 q 543 15 610 44 q 397 -14 476 -14 m 576 1042 l 646 961 l 450 753 l 332 753 l 136 961 l 206 1042 l 457 865 l 325 865 l 576 1042 z "},"ç":{"ha":683,"x_min":36,"x_max":661,"o":"m 397 -14 q 213 32 294 -14 q 83 157 131 78 q 36 335 36 236 q 83 514 36 435 q 213 640 131 593 q 397 686 296 686 q 543 657 476 686 q 658 574 610 628 l 542 456 q 478 500 515 485 q 397 515 442 515 q 308 492 347 515 q 245 430 268 469 q 222 336 222 390 q 245 242 222 283 q 308 178 268 201 q 397 156 347 156 q 480 172 443 156 q 543 218 517 188 l 661 100 q 543 15 610 44 q 397 -14 476 -14 m 349 -294 q 257 -282 296 -294 q 179 -246 218 -269 l 244 -164 q 283 -185 261 -176 q 333 -193 304 -193 q 380 -184 365 -193 q 394 -162 394 -175 q 380 -137 394 -147 q 333 -126 365 -126 l 275 -126 l 321 18 l 436 18 l 401 -82 l 343 -36 q 484 -72 432 -35 q 536 -165 536 -108 q 485 -258 536 -221 q 349 -294 433 -294 z "},"ċ":{"ha":683,"x_min":36,"x_max":661,"o":"m 397 -14 q 213 32 294 -14 q 83 157 131 78 q 36 335 36 236 q 83 514 36 435 q 213 640 131 593 q 397 686 296 686 q 543 657 476 686 q 658 574 610 628 l 542 456 q 478 500 515 485 q 397 515 442 515 q 308 492 347 515 q 245 430 268 469 q 222 336 222 390 q 245 242 222 283 q 308 178 268 201 q 397 156 347 156 q 480 172 443 156 q 543 218 517 188 l 661 100 q 543 15 610 44 q 397 -14 476 -14 m 392 768 q 318 798 347 768 q 289 872 289 828 q 318 947 289 917 q 392 976 347 976 q 466 947 438 976 q 494 872 494 917 q 466 798 494 828 q 392 768 438 768 z "},"d":{"ha":817,"x_min":39,"x_max":736,"o":"m 364 -14 q 197 32 271 -14 q 81 157 124 78 q 39 335 39 236 q 81 514 39 435 q 197 639 124 593 q 364 685 269 685 q 494 656 436 685 q 587 574 551 626 q 625 457 622 522 l 625 218 q 588 100 622 153 q 494 17 553 47 q 364 -14 436 -14 m 394 154 q 484 177 446 154 q 544 241 522 200 q 565 336 565 282 q 544 430 565 389 q 484 494 522 471 q 396 517 446 517 q 306 493 344 517 q 247 429 268 469 q 225 336 225 389 q 247 241 225 282 q 307 177 268 200 q 394 154 346 154 m 736 0 l 556 0 l 556 181 l 585 344 l 554 506 l 554 1004 l 736 1004 l 736 0 z "},"ð":{"ha":789,"x_min":42,"x_max":749,"o":"m 396 -14 q 216 32 296 -14 q 89 156 136 78 q 42 329 42 233 q 84 494 42 422 q 199 606 126 565 q 357 647 271 647 q 444 635 411 647 q 499 599 478 622 q 538 543 521 575 l 468 563 l 172 976 l 388 976 l 658 585 q 749 325 749 454 q 702 153 749 231 q 576 31 656 76 q 396 -14 496 -14 m 396 156 q 481 178 443 156 q 541 241 519 201 q 563 331 563 281 q 541 419 563 381 q 481 481 519 458 q 396 504 443 504 q 310 482 349 504 q 249 420 271 460 q 226 331 226 381 q 249 241 226 281 q 309 178 271 201 q 396 156 347 156 m 143 675 l 99 790 l 604 976 l 650 863 l 143 675 z "},"ď":{"ha":1101,"x_min":39,"x_max":1033,"o":"m 364 -14 q 197 32 271 -14 q 81 157 124 78 q 39 335 39 236 q 81 514 39 435 q 197 639 124 593 q 364 685 269 685 q 494 656 436 685 q 587 574 551 626 q 625 457 622 522 l 625 218 q 588 100 622 153 q 494 17 553 47 q 364 -14 436 -14 m 394 154 q 484 177 446 154 q 544 241 522 200 q 565 336 565 282 q 544 430 565 389 q 484 494 522 471 q 396 517 446 517 q 306 493 344 517 q 247 429 268 469 q 225 336 225 389 q 247 241 225 282 q 307 177 268 200 q 394 154 346 154 m 736 0 l 556 0 l 556 181 l 585 344 l 554 506 l 554 1004 l 736 1004 l 736 0 m 888 543 l 793 594 l 892 776 l 949 793 q 926 762 939 774 q 897 750 914 750 q 832 780 863 750 q 801 856 801 810 q 835 940 801 906 q 918 975 868 975 q 999 940 964 975 q 1033 856 1033 906 q 1025 809 1033 836 q 994 740 1017 782 l 888 543 z "},"đ":{"ha":833,"x_min":39,"x_max":833,"o":"m 353 754 l 353 919 l 833 919 l 833 754 l 353 754 m 364 -14 q 197 32 271 -14 q 81 157 124 78 q 39 335 39 236 q 81 514 39 435 q 197 639 124 593 q 364 685 269 685 q 494 656 436 685 q 587 574 551 626 q 625 457 622 522 l 625 218 q 588 100 622 153 q 494 17 553 47 q 364 -14 436 -14 m 394 154 q 484 177 446 154 q 544 241 522 200 q 565 336 565 282 q 544 430 565 389 q 484 494 522 471 q 396 517 446 517 q 306 493 344 517 q 247 429 268 469 q 225 336 225 389 q 247 241 225 282 q 307 177 268 200 q 394 154 346 154 m 736 0 l 556 0 l 556 181 l 585 344 l 554 506 l 554 1004 l 736 1004 l 736 0 z "},"e":{"ha":751,"x_min":36,"x_max":719,"o":"m 401 -14 q 214 31 296 -14 q 84 156 132 76 q 36 336 36 235 q 83 515 36 436 q 210 640 129 593 q 389 686 290 686 q 560 642 486 686 q 677 523 635 599 q 719 351 719 447 q 717 315 719 333 q 710 272 715 296 l 146 271 l 146 407 l 625 408 l 551 351 q 530 451 549 411 q 476 513 511 492 q 389 535 440 535 q 294 510 335 535 q 233 442 254 486 q 211 339 211 399 q 234 233 211 278 q 300 163 257 188 q 400 139 343 139 q 493 156 451 139 q 565 208 535 174 l 672 101 q 553 15 624 44 q 401 -14 483 -14 z "},"é":{"ha":751,"x_min":36,"x_max":719,"o":"m 401 -14 q 214 31 296 -14 q 84 156 132 76 q 36 336 36 235 q 83 515 36 436 q 210 640 129 593 q 389 686 290 686 q 560 642 486 686 q 677 523 635 599 q 719 351 719 447 q 717 315 719 333 q 710 272 715 296 l 146 271 l 146 407 l 625 408 l 551 351 q 530 451 549 411 q 476 513 511 492 q 389 535 440 535 q 294 510 335 535 q 233 442 254 486 q 211 339 211 399 q 234 233 211 278 q 300 163 257 188 q 400 139 343 139 q 493 156 451 139 q 565 208 535 174 l 672 101 q 553 15 624 44 q 401 -14 483 -14 m 300 757 l 231 843 l 431 1060 l 547 918 l 300 757 z "},"ě":{"ha":751,"x_min":36,"x_max":719,"o":"m 401 -14 q 214 31 296 -14 q 84 156 132 76 q 36 336 36 235 q 83 515 36 436 q 210 640 129 593 q 389 686 290 686 q 560 642 486 686 q 677 523 635 599 q 719 351 719 447 q 717 315 719 333 q 710 272 715 296 l 146 271 l 146 407 l 625 408 l 551 351 q 530 451 549 411 q 476 513 511 492 q 389 535 440 535 q 294 510 335 535 q 233 442 254 486 q 211 339 211 399 q 234 233 211 278 q 300 163 257 188 q 400 139 343 139 q 493 156 451 139 q 565 208 535 174 l 672 101 q 553 15 624 44 q 401 -14 483 -14 m 574 1042 l 643 961 l 447 753 l 329 753 l 133 961 l 203 1042 l 454 865 l 322 865 l 574 1042 z "},"ê":{"ha":751,"x_min":36,"x_max":719,"o":"m 401 -14 q 214 31 296 -14 q 84 156 132 76 q 36 336 36 235 q 83 515 36 436 q 210 640 129 593 q 389 686 290 686 q 560 642 486 686 q 677 523 635 599 q 719 351 719 447 q 717 315 719 333 q 710 272 715 296 l 146 271 l 146 407 l 625 408 l 551 351 q 530 451 549 411 q 476 513 511 492 q 389 535 440 535 q 294 510 335 535 q 233 442 254 486 q 211 339 211 399 q 234 233 211 278 q 300 163 257 188 q 400 139 343 139 q 493 156 451 139 q 565 208 535 174 l 672 101 q 553 15 624 44 q 401 -14 483 -14 m 203 753 l 133 833 l 329 1042 l 449 1042 l 644 833 l 575 753 l 324 931 l 456 929 l 203 753 z "},"ë":{"ha":751,"x_min":36,"x_max":719,"o":"m 401 -14 q 214 31 296 -14 q 84 156 132 76 q 36 336 36 235 q 83 515 36 436 q 210 640 129 593 q 389 686 290 686 q 560 642 486 686 q 677 523 635 599 q 719 351 719 447 q 717 315 719 333 q 710 272 715 296 l 146 271 l 146 407 l 625 408 l 551 351 q 530 451 549 411 q 476 513 511 492 q 389 535 440 535 q 294 510 335 535 q 233 442 254 486 q 211 339 211 399 q 234 233 211 278 q 300 163 257 188 q 400 139 343 139 q 493 156 451 139 q 565 208 535 174 l 672 101 q 553 15 624 44 q 401 -14 483 -14 m 239 768 q 167 798 196 768 q 138 872 138 828 q 167 947 138 917 q 239 976 196 976 q 313 947 285 976 q 342 872 342 917 q 313 798 342 828 q 239 768 285 768 m 538 768 q 465 798 494 768 q 436 872 436 828 q 465 947 436 917 q 538 976 494 976 q 612 947 583 976 q 640 872 640 917 q 612 798 640 828 q 538 768 583 768 z "},"ė":{"ha":751,"x_min":36,"x_max":719,"o":"m 401 -14 q 214 31 296 -14 q 84 156 132 76 q 36 336 36 235 q 83 515 36 436 q 210 640 129 593 q 389 686 290 686 q 560 642 486 686 q 677 523 635 599 q 719 351 719 447 q 717 315 719 333 q 710 272 715 296 l 146 271 l 146 407 l 625 408 l 551 351 q 530 451 549 411 q 476 513 511 492 q 389 535 440 535 q 294 510 335 535 q 233 442 254 486 q 211 339 211 399 q 234 233 211 278 q 300 163 257 188 q 400 139 343 139 q 493 156 451 139 q 565 208 535 174 l 672 101 q 553 15 624 44 q 401 -14 483 -14 m 389 768 q 315 798 344 768 q 286 872 286 828 q 315 947 286 917 q 389 976 344 976 q 463 947 435 976 q 492 872 492 917 q 463 798 492 828 q 389 768 435 768 z "},"è":{"ha":751,"x_min":36,"x_max":719,"o":"m 401 -14 q 214 31 296 -14 q 84 156 132 76 q 36 336 36 235 q 83 515 36 436 q 210 640 129 593 q 389 686 290 686 q 560 642 486 686 q 677 523 635 599 q 719 351 719 447 q 717 315 719 333 q 710 272 715 296 l 146 271 l 146 407 l 625 408 l 551 351 q 530 451 549 411 q 476 513 511 492 q 389 535 440 535 q 294 510 335 535 q 233 442 254 486 q 211 339 211 399 q 234 233 211 278 q 300 163 257 188 q 400 139 343 139 q 493 156 451 139 q 565 208 535 174 l 672 101 q 553 15 624 44 q 401 -14 483 -14 m 454 750 l 207 911 l 325 1053 l 524 836 l 454 750 z "},"ē":{"ha":751,"x_min":36,"x_max":719,"o":"m 401 -14 q 214 31 296 -14 q 84 156 132 76 q 36 336 36 235 q 83 515 36 436 q 210 640 129 593 q 389 686 290 686 q 560 642 486 686 q 677 523 635 599 q 719 351 719 447 q 717 315 719 333 q 710 272 715 296 l 146 271 l 146 407 l 625 408 l 551 351 q 530 451 549 411 q 476 513 511 492 q 389 535 440 535 q 294 510 335 535 q 233 442 254 486 q 211 339 211 399 q 234 233 211 278 q 300 163 257 188 q 400 139 343 139 q 493 156 451 139 q 565 208 535 174 l 672 101 q 553 15 624 44 q 401 -14 483 -14 m 125 943 l 653 943 l 653 801 l 125 801 l 125 943 z "},"ę":{"ha":751,"x_min":36,"x_max":719,"o":"m 401 -14 q 214 31 296 -14 q 84 156 132 76 q 36 336 36 235 q 83 515 36 436 q 210 640 129 593 q 389 686 290 686 q 560 642 486 686 q 677 523 635 599 q 719 351 719 447 q 717 315 719 333 q 710 272 715 296 l 146 271 l 146 407 l 625 408 l 551 351 q 530 451 549 411 q 476 513 511 492 q 389 535 440 535 q 294 510 335 535 q 233 442 254 486 q 211 339 211 399 q 234 233 211 278 q 300 163 257 188 q 400 139 343 139 q 493 156 451 139 q 565 208 535 174 l 672 101 q 553 15 624 44 q 401 -14 483 -14 m 457 -281 q 332 -247 383 -281 q 281 -140 281 -214 q 323 -26 281 -75 q 444 50 365 24 l 549 14 q 465 -42 496 -10 q 435 -115 435 -74 q 448 -153 435 -139 q 488 -167 461 -167 q 521 -160 506 -167 q 547 -149 536 -154 l 590 -246 q 535 -270 567 -260 q 457 -281 503 -281 z "},"f":{"ha":582,"x_min":14,"x_max":650,"o":"m 169 0 l 169 743 q 204 885 169 824 q 303 983 239 947 q 453 1019 367 1019 q 565 997 518 1019 q 650 936 613 975 l 535 819 q 501 843 519 835 q 456 851 483 851 q 378 824 406 851 q 351 747 351 797 l 351 0 l 169 0 m 14 511 l 14 671 l 550 671 l 550 511 l 14 511 z "},"g":{"ha":804,"x_min":36,"x_max":725,"o":"m 361 -297 q 172 -259 254 -297 q 42 -151 90 -221 l 157 -36 q 244 -106 196 -82 q 360 -131 292 -131 q 494 -87 444 -131 q 543 32 543 -44 l 543 200 l 574 347 l 544 494 l 544 671 l 725 671 l 725 35 q 678 -140 725 -65 q 550 -256 632 -214 q 361 -297 468 -297 m 353 18 q 190 62 263 18 q 77 182 118 106 q 36 353 36 258 q 77 522 36 447 q 190 641 118 597 q 353 685 263 685 q 485 656 428 685 q 576 576 543 626 q 613 457 610 525 l 613 246 q 576 127 610 179 q 484 47 542 75 q 353 18 426 18 m 389 183 q 476 205 439 183 q 533 265 513 226 q 554 351 554 303 q 533 439 554 401 q 476 498 513 476 q 389 519 439 519 q 301 498 339 519 q 243 438 264 476 q 222 351 222 400 q 243 266 222 304 q 301 206 264 228 q 389 183 339 183 z "},"ğ":{"ha":804,"x_min":36,"x_max":725,"o":"m 361 -297 q 172 -259 254 -297 q 42 -151 90 -221 l 157 -36 q 244 -106 196 -82 q 360 -131 292 -131 q 494 -87 444 -131 q 543 32 543 -44 l 543 200 l 574 347 l 544 494 l 544 671 l 725 671 l 725 35 q 678 -140 725 -65 q 550 -256 632 -214 q 361 -297 468 -297 m 353 18 q 190 62 263 18 q 77 182 118 106 q 36 353 36 258 q 77 522 36 447 q 190 641 118 597 q 353 685 263 685 q 485 656 428 685 q 576 576 543 626 q 613 457 610 525 l 613 246 q 576 127 610 179 q 484 47 542 75 q 353 18 426 18 m 389 183 q 476 205 439 183 q 533 265 513 226 q 554 351 554 303 q 533 439 554 401 q 476 498 513 476 q 389 519 439 519 q 301 498 339 519 q 243 438 264 476 q 222 351 222 400 q 243 266 222 304 q 301 206 264 228 q 389 183 339 183 m 667 994 q 633 867 667 925 q 543 776 600 810 q 413 743 486 743 q 281 776 339 743 q 190 867 224 810 q 156 994 156 925 l 308 994 q 337 919 308 950 q 413 889 365 889 q 465 903 442 889 q 501 941 488 917 q 514 994 514 965 l 667 994 z "},"ģ":{"ha":804,"x_min":36,"x_max":725,"o":"m 361 -297 q 172 -259 254 -297 q 42 -151 90 -221 l 157 -36 q 244 -106 196 -82 q 360 -131 292 -131 q 494 -87 444 -131 q 543 32 543 -44 l 543 200 l 574 347 l 544 494 l 544 671 l 725 671 l 725 35 q 678 -140 725 -65 q 550 -256 632 -214 q 361 -297 468 -297 m 353 18 q 190 62 263 18 q 77 182 118 106 q 36 353 36 258 q 77 522 36 447 q 190 641 118 597 q 353 685 263 685 q 485 656 428 685 q 576 576 543 626 q 613 457 610 525 l 613 246 q 576 127 610 179 q 484 47 542 75 q 353 18 426 18 m 389 183 q 476 205 439 183 q 533 265 513 226 q 554 351 554 303 q 533 439 554 401 q 476 498 513 476 q 389 519 439 519 q 301 498 339 519 q 243 438 264 476 q 222 351 222 400 q 243 266 222 304 q 301 206 264 228 q 389 183 339 183 m 542 1093 l 432 919 l 374 908 q 399 938 385 926 q 428 947 413 949 q 491 912 464 944 q 514 833 518 879 q 474 753 510 786 q 389 725 439 721 q 312 767 343 729 q 285 853 281 804 q 297 899 286 872 q 333 964 307 925 l 453 1151 l 542 1093 z "},"ġ":{"ha":804,"x_min":36,"x_max":725,"o":"m 361 -297 q 172 -259 254 -297 q 42 -151 90 -221 l 157 -36 q 244 -106 196 -82 q 360 -131 292 -131 q 494 -87 444 -131 q 543 32 543 -44 l 543 200 l 574 347 l 544 494 l 544 671 l 725 671 l 725 35 q 678 -140 725 -65 q 550 -256 632 -214 q 361 -297 468 -297 m 353 18 q 190 62 263 18 q 77 182 118 106 q 36 353 36 258 q 77 522 36 447 q 190 641 118 597 q 353 685 263 685 q 485 656 428 685 q 576 576 543 626 q 613 457 610 525 l 613 246 q 576 127 610 179 q 484 47 542 75 q 353 18 426 18 m 389 183 q 476 205 439 183 q 533 265 513 226 q 554 351 554 303 q 533 439 554 401 q 476 498 513 476 q 389 519 439 519 q 301 498 339 519 q 243 438 264 476 q 222 351 222 400 q 243 266 222 304 q 301 206 264 228 q 389 183 339 183 m 413 768 q 339 798 368 768 q 310 872 310 828 q 339 947 310 917 q 413 976 368 976 q 487 947 458 976 q 515 872 515 917 q 487 798 515 828 q 413 768 458 768 z "},"h":{"ha":781,"x_min":81,"x_max":714,"o":"m 532 0 l 532 385 q 494 482 532 444 q 397 519 457 519 q 328 503 358 519 q 280 456 297 486 q 263 385 263 425 l 192 421 q 225 559 192 500 q 317 651 258 618 q 453 685 376 685 q 588 651 529 685 q 681 560 647 618 q 714 425 714 501 l 714 0 l 532 0 m 81 0 l 81 1004 l 263 1004 l 263 0 l 81 0 z "},"ħ":{"ha":781,"x_min":0,"x_max":714,"o":"m 0 754 l 0 919 l 482 919 l 482 754 l 0 754 m 532 0 l 532 385 q 494 482 532 444 q 397 519 457 519 q 328 503 358 519 q 280 456 297 486 q 263 385 263 425 l 192 421 q 225 559 192 500 q 317 651 258 618 q 453 685 376 685 q 588 651 529 685 q 681 560 647 618 q 714 425 714 501 l 714 0 l 532 0 m 81 0 l 81 1004 l 263 1004 l 263 0 l 81 0 z "},"i":{"ha":344,"x_min":69,"x_max":275,"o":"m 81 0 l 81 671 l 264 671 l 264 0 l 81 0 m 172 779 q 99 809 128 779 q 69 883 69 839 q 99 957 69 926 q 172 988 128 988 q 247 957 218 988 q 275 883 275 926 q 247 809 275 839 q 172 779 218 779 z "},"ı":{"ha":343,"x_min":81,"x_max":263,"o":"m 81 0 l 81 671 l 263 671 l 263 0 l 81 0 z "},"í":{"ha":343,"x_min":13,"x_max":329,"o":"m 81 0 l 81 671 l 263 671 l 263 0 l 81 0 m 82 757 l 13 843 l 213 1060 l 329 918 l 82 757 z "},"î":{"ha":343,"x_min":-85,"x_max":426,"o":"m 81 0 l 81 671 l 263 671 l 263 0 l 81 0 m -15 753 l -85 833 l 111 1042 l 231 1042 l 426 833 l 357 753 l 106 931 l 238 929 l -15 753 z "},"ï":{"ha":343,"x_min":-81,"x_max":424,"o":"m 81 0 l 81 671 l 263 671 l 263 0 l 81 0 m 22 768 q -50 798 -21 768 q -79 872 -79 828 q -50 947 -79 917 q 22 976 -21 976 q 97 947 68 976 q 125 872 125 917 q 97 798 125 828 q 22 768 68 768 m 321 768 q 249 798 278 768 q 219 872 219 828 q 249 947 219 917 q 321 976 278 976 q 395 947 367 976 q 424 872 424 917 q 395 798 424 828 q 321 768 367 768 z "},"ì":{"ha":343,"x_min":-11,"x_max":306,"o":"m 81 0 l 81 671 l 263 671 l 263 0 l 81 0 m 236 750 l -11 911 l 107 1053 l 306 836 l 236 750 z "},"ĳ":{"ha":701,"x_min":69,"x_max":635,"o":"m 81 0 l 81 671 l 264 671 l 264 0 l 81 0 m 172 779 q 99 809 128 779 q 69 883 69 839 q 99 957 69 926 q 172 988 128 988 q 247 957 218 988 q 275 883 275 926 q 247 809 275 839 q 172 779 218 779 m 371 -297 q 251 -274 299 -297 q 164 -207 203 -250 l 279 -92 q 315 -122 296 -112 q 358 -131 333 -131 q 417 -110 393 -131 q 440 -49 440 -89 l 440 671 l 622 671 l 622 -46 q 588 -181 622 -125 q 498 -267 554 -237 q 371 -297 442 -297 m 533 779 q 460 809 489 779 q 431 883 431 839 q 460 957 431 926 q 533 988 489 988 q 608 957 579 988 q 636 883 636 926 q 608 809 636 839 q 533 779 579 779 z "},"ī":{"ha":343,"x_min":-74,"x_max":417,"o":"m -74 943 l 417 943 l 417 801 l -74 801 l -74 943 m 81 0 l 81 671 l 263 671 l 263 0 l 81 0 z "},"į":{"ha":344,"x_min":-6,"x_max":304,"o":"m 81 0 l 81 671 l 264 671 l 264 0 l 81 0 m 172 779 q 99 809 128 779 q 69 883 69 839 q 99 957 69 926 q 172 988 128 988 q 247 957 218 988 q 275 883 275 926 q 247 809 275 839 q 172 779 218 779 m 171 -294 q 46 -261 97 -294 q -6 -154 -6 -228 q 37 -40 -6 -89 q 158 36 79 10 l 263 0 q 179 -56 210 -24 q 149 -129 149 -87 q 162 -167 149 -153 q 201 -181 175 -181 q 235 -174 219 -181 q 261 -162 250 -168 l 304 -260 q 249 -284 281 -274 q 171 -294 217 -294 z "},"j":{"ha":357,"x_min":-181,"x_max":292,"o":"m 26 -297 q -94 -274 -46 -297 q -181 -207 -142 -250 l -65 -92 q -30 -122 -49 -112 q 14 -131 -11 -131 q 72 -110 49 -131 q 96 -49 96 -89 l 96 671 l 278 671 l 278 -46 q 244 -181 278 -125 q 153 -267 210 -237 q 26 -297 97 -297 m 189 779 q 115 809 144 779 q 86 883 86 839 q 115 957 86 926 q 189 988 144 988 q 263 957 235 988 q 292 883 292 926 q 263 809 292 839 q 189 779 235 779 z "},"ȷ":{"ha":357,"x_min":-181,"x_max":278,"o":"m 26 -297 q -94 -274 -46 -297 q -181 -207 -142 -250 l -65 -92 q -30 -122 -49 -112 q 14 -131 -11 -131 q 72 -110 49 -131 q 96 -49 96 -89 l 96 671 l 278 671 l 278 -46 q 244 -181 278 -125 q 153 -267 210 -237 q 26 -297 97 -297 z "},"k":{"ha":733,"x_min":81,"x_max":731,"o":"m 508 0 l 249 346 l 507 671 l 717 671 l 414 304 l 421 393 l 731 0 l 508 0 m 81 0 l 81 1004 l 263 1004 l 263 0 l 81 0 z "},"ķ":{"ha":733,"x_min":81,"x_max":731,"o":"m 508 0 l 249 346 l 507 671 l 717 671 l 414 304 l 421 393 l 731 0 l 508 0 m 81 0 l 81 1004 l 263 1004 l 263 0 l 81 0 m 336 -531 l 247 -472 l 358 -297 l 417 -286 q 392 -315 406 -304 q 363 -325 378 -326 q 299 -290 326 -322 q 276 -211 272 -257 q 316 -131 281 -162 q 400 -103 351 -99 q 478 -144 447 -107 q 506 -231 510 -182 q 494 -277 504 -251 q 457 -343 483 -303 l 336 -531 z "},"l":{"ha":343,"x_min":81,"x_max":263,"o":"m 81 0 l 81 1004 l 263 1004 l 263 0 l 81 0 z "},"ĺ":{"ha":343,"x_min":47,"x_max":364,"o":"m 81 0 l 81 1004 l 263 1004 l 263 0 l 81 0 m 117 1063 l 47 1149 l 247 1365 l 364 1224 l 117 1063 z "},"ľ":{"ha":628,"x_min":81,"x_max":560,"o":"m 81 0 l 81 1004 l 263 1004 l 263 0 l 81 0 m 414 544 l 319 596 l 418 778 l 475 794 q 453 763 465 775 q 424 751 440 751 q 358 781 389 751 q 328 857 328 811 q 361 942 328 907 q 444 976 394 976 q 525 942 490 976 q 560 857 560 907 q 551 810 560 838 q 521 742 543 783 l 414 544 z "},"ļ":{"ha":343,"x_min":36,"x_max":297,"o":"m 81 0 l 81 1004 l 263 1004 l 263 0 l 81 0 m 124 -531 l 35 -472 l 146 -297 l 204 -286 q 179 -315 193 -304 q 150 -325 165 -326 q 87 -290 114 -322 q 64 -211 60 -257 q 103 -131 68 -162 q 188 -103 139 -99 q 266 -144 235 -107 q 293 -231 297 -182 q 281 -277 292 -251 q 244 -343 271 -303 l 124 -531 z "},"ł":{"ha":546,"x_min":81,"x_max":465,"o":"m 81 474 l 465 697 l 465 533 l 81 310 l 81 474 m 182 0 l 182 1004 l 364 1004 l 364 0 l 182 0 z "},"m":{"ha":1204,"x_min":81,"x_max":1138,"o":"m 81 0 l 81 671 l 263 671 l 263 0 l 81 0 m 518 0 l 518 396 q 481 487 518 454 q 390 519 444 519 q 325 505 354 519 q 279 463 296 490 q 263 396 263 435 l 192 431 q 226 565 192 508 q 318 653 260 622 q 450 685 376 685 q 576 653 519 685 q 667 566 633 622 q 700 431 700 510 l 700 0 l 518 0 m 956 0 l 956 396 q 919 487 956 454 q 828 519 882 519 q 763 505 793 519 q 717 463 733 490 q 700 396 700 435 l 596 421 q 639 560 601 501 q 738 652 676 619 q 874 685 799 685 q 1008 653 949 685 q 1103 564 1068 622 q 1138 425 1138 506 l 1138 0 l 956 0 z "},"n":{"ha":781,"x_min":81,"x_max":714,"o":"m 532 0 l 532 385 q 494 482 532 444 q 397 519 457 519 q 328 503 358 519 q 280 456 297 486 q 263 385 263 425 l 192 421 q 226 559 192 500 q 320 651 260 618 q 457 685 381 685 q 589 648 531 685 q 681 552 647 611 q 714 425 714 493 l 714 0 l 532 0 m 81 0 l 81 671 l 263 671 l 263 0 l 81 0 z "},"ń":{"ha":781,"x_min":81,"x_max":714,"o":"m 532 0 l 532 385 q 494 482 532 444 q 397 519 457 519 q 328 503 358 519 q 280 456 297 486 q 263 385 263 425 l 192 421 q 226 559 192 500 q 320 651 260 618 q 457 685 381 685 q 589 648 531 685 q 681 552 647 611 q 714 425 714 493 l 714 0 l 532 0 m 81 0 l 81 671 l 263 671 l 263 0 l 81 0 m 301 757 l 232 843 l 432 1060 l 549 918 l 301 757 z "},"ň":{"ha":781,"x_min":81,"x_max":714,"o":"m 532 0 l 532 385 q 494 482 532 444 q 397 519 457 519 q 328 503 358 519 q 280 456 297 486 q 263 385 263 425 l 192 421 q 226 559 192 500 q 320 651 260 618 q 457 685 381 685 q 589 648 531 685 q 681 552 647 611 q 714 425 714 493 l 714 0 l 532 0 m 81 0 l 81 671 l 263 671 l 263 0 l 81 0 m 576 1042 l 646 961 l 450 753 l 331 753 l 135 961 l 204 1042 l 456 865 l 324 865 l 576 1042 z "},"ņ":{"ha":781,"x_min":81,"x_max":714,"o":"m 532 0 l 532 385 q 494 482 532 444 q 397 519 457 519 q 328 503 358 519 q 280 456 297 486 q 263 385 263 425 l 192 421 q 226 559 192 500 q 320 651 260 618 q 457 685 381 685 q 589 648 531 685 q 681 552 647 611 q 714 425 714 493 l 714 0 l 532 0 m 81 0 l 81 671 l 263 671 l 263 0 l 81 0 m 343 -531 l 254 -472 l 365 -297 l 424 -286 q 399 -315 413 -304 q 369 -325 385 -326 q 306 -290 333 -322 q 283 -211 279 -257 q 323 -131 288 -162 q 407 -103 358 -99 q 485 -144 454 -107 q 513 -231 517 -182 q 501 -277 511 -251 q 464 -343 490 -303 l 343 -531 z "},"ñ":{"ha":781,"x_min":81,"x_max":714,"o":"m 532 0 l 532 385 q 494 482 532 444 q 397 519 457 519 q 328 503 358 519 q 280 456 297 486 q 263 385 263 425 l 192 421 q 226 559 192 500 q 320 651 260 618 q 457 685 381 685 q 589 648 531 685 q 681 552 647 611 q 714 425 714 493 l 714 0 l 532 0 m 81 0 l 81 671 l 263 671 l 263 0 l 81 0 m 492 757 q 414 774 446 757 q 354 806 382 790 q 294 821 326 821 q 240 808 261 821 q 199 769 218 796 l 107 861 q 190 942 147 914 q 289 969 232 969 q 367 953 335 969 q 426 922 399 938 q 486 906 454 906 q 542 919 521 906 q 582 957 564 932 l 674 867 q 591 785 633 814 q 492 757 549 757 z "},"ŋ":{"ha":781,"x_min":81,"x_max":714,"o":"m 463 -297 q 342 -274 390 -297 q 256 -207 294 -250 l 371 -92 q 406 -122 388 -112 q 450 -131 425 -131 q 508 -110 485 -131 q 532 -49 532 -89 l 532 226 l 714 226 l 714 -46 q 680 -181 714 -125 q 590 -267 646 -237 q 463 -297 533 -297 m 532 0 l 532 385 q 494 482 532 444 q 397 519 457 519 q 328 503 358 519 q 280 456 297 486 q 263 385 263 425 l 192 421 q 226 559 192 500 q 320 651 260 618 q 457 685 381 685 q 589 648 531 685 q 681 552 647 611 q 714 425 714 493 l 714 0 l 532 0 m 81 0 l 81 671 l 263 671 l 263 0 l 81 0 z "},"o":{"ha":790,"x_min":36,"x_max":754,"o":"m 396 -14 q 213 33 294 -14 q 84 159 132 79 q 36 338 36 239 q 83 515 36 436 q 213 640 131 593 q 394 686 294 686 q 578 640 497 686 q 707 515 660 593 q 754 338 754 436 q 707 159 754 239 q 578 33 660 79 q 396 -14 497 -14 m 394 156 q 485 178 446 156 q 547 242 525 201 q 568 336 568 283 q 546 429 568 389 q 485 492 524 469 q 394 515 446 515 q 306 492 344 515 q 244 429 267 469 q 222 336 222 389 q 244 242 222 283 q 306 178 267 201 q 394 156 344 156 z "},"ó":{"ha":790,"x_min":36,"x_max":754,"o":"m 396 -14 q 213 33 294 -14 q 84 159 132 79 q 36 338 36 239 q 83 515 36 436 q 213 640 131 593 q 394 686 294 686 q 578 640 497 686 q 707 515 660 593 q 754 338 754 436 q 707 159 754 239 q 578 33 660 79 q 396 -14 497 -14 m 394 156 q 485 178 446 156 q 547 242 525 201 q 568 336 568 283 q 546 429 568 389 q 485 492 524 469 q 394 515 446 515 q 306 492 344 515 q 244 429 267 469 q 222 336 222 389 q 244 242 222 283 q 306 178 267 201 q 394 156 344 156 m 307 757 l 238 843 l 438 1060 l 554 918 l 307 757 z "},"ô":{"ha":790,"x_min":36,"x_max":754,"o":"m 396 -14 q 213 33 294 -14 q 84 159 132 79 q 36 338 36 239 q 83 515 36 436 q 213 640 131 593 q 394 686 294 686 q 578 640 497 686 q 707 515 660 593 q 754 338 754 436 q 707 159 754 239 q 578 33 660 79 q 396 -14 497 -14 m 394 156 q 485 178 446 156 q 547 242 525 201 q 568 336 568 283 q 546 429 568 389 q 485 492 524 469 q 394 515 446 515 q 306 492 344 515 q 244 429 267 469 q 222 336 222 389 q 244 242 222 283 q 306 178 267 201 q 394 156 344 156 m 210 753 l 140 833 l 336 1042 l 456 1042 l 651 833 l 582 753 l 331 931 l 463 929 l 210 753 z "},"ö":{"ha":790,"x_min":36,"x_max":754,"o":"m 396 -14 q 213 33 294 -14 q 84 159 132 79 q 36 338 36 239 q 83 515 36 436 q 213 640 131 593 q 394 686 294 686 q 578 640 497 686 q 707 515 660 593 q 754 338 754 436 q 707 159 754 239 q 578 33 660 79 q 396 -14 497 -14 m 394 156 q 485 178 446 156 q 547 242 525 201 q 568 336 568 283 q 546 429 568 389 q 485 492 524 469 q 394 515 446 515 q 306 492 344 515 q 244 429 267 469 q 222 336 222 389 q 244 242 222 283 q 306 178 267 201 q 394 156 344 156 m 246 768 q 174 798 203 768 q 144 872 144 828 q 174 947 144 917 q 246 976 203 976 q 320 947 292 976 q 349 872 349 917 q 320 798 349 828 q 246 768 292 768 m 544 768 q 472 798 501 768 q 443 872 443 828 q 472 947 443 917 q 544 976 501 976 q 619 947 590 976 q 647 872 647 917 q 619 798 647 828 q 544 768 590 768 z "},"ò":{"ha":790,"x_min":36,"x_max":754,"o":"m 396 -14 q 213 33 294 -14 q 84 159 132 79 q 36 338 36 239 q 83 515 36 436 q 213 640 131 593 q 394 686 294 686 q 578 640 497 686 q 707 515 660 593 q 754 338 754 436 q 707 159 754 239 q 578 33 660 79 q 396 -14 497 -14 m 394 156 q 485 178 446 156 q 547 242 525 201 q 568 336 568 283 q 546 429 568 389 q 485 492 524 469 q 394 515 446 515 q 306 492 344 515 q 244 429 267 469 q 222 336 222 389 q 244 242 222 283 q 306 178 267 201 q 394 156 344 156 m 461 750 l 214 911 l 332 1053 l 531 836 l 461 750 z "},"ő":{"ha":790,"x_min":36,"x_max":754,"o":"m 396 -14 q 213 33 294 -14 q 84 159 132 79 q 36 338 36 239 q 83 515 36 436 q 213 640 131 593 q 394 686 294 686 q 578 640 497 686 q 707 515 660 593 q 754 338 754 436 q 707 159 754 239 q 578 33 660 79 q 396 -14 497 -14 m 394 156 q 485 178 446 156 q 547 242 525 201 q 568 336 568 283 q 546 429 568 389 q 485 492 524 469 q 394 515 446 515 q 306 492 344 515 q 244 429 267 469 q 222 336 222 389 q 244 242 222 283 q 306 178 267 201 q 394 156 344 156 m 232 767 l 132 814 l 221 1096 l 388 1015 l 232 767 m 522 767 l 422 814 l 511 1096 l 678 1015 l 522 767 z "},"ō":{"ha":790,"x_min":36,"x_max":754,"o":"m 396 -14 q 213 33 294 -14 q 84 159 132 79 q 36 338 36 239 q 83 515 36 436 q 213 640 131 593 q 394 686 294 686 q 578 640 497 686 q 707 515 660 593 q 754 338 754 436 q 707 159 754 239 q 578 33 660 79 q 396 -14 497 -14 m 394 156 q 485 178 446 156 q 547 242 525 201 q 568 336 568 283 q 546 429 568 389 q 485 492 524 469 q 394 515 446 515 q 306 492 344 515 q 244 429 267 469 q 222 336 222 389 q 244 242 222 283 q 306 178 267 201 q 394 156 344 156 m 132 943 l 660 943 l 660 801 l 132 801 l 132 943 z "},"ø":{"ha":790,"x_min":21,"x_max":772,"o":"m 121 -40 l 21 60 l 672 711 l 772 611 l 121 -40 m 394 -14 q 213 33 294 -14 q 83 159 131 79 q 36 338 36 239 q 83 515 36 436 q 213 640 131 593 q 394 686 294 686 q 578 640 497 686 q 707 515 660 593 q 754 338 754 436 q 707 159 754 239 q 578 33 660 79 q 394 -14 497 -14 m 394 144 q 490 169 449 144 q 555 237 532 193 q 578 336 578 281 q 554 435 578 393 q 490 502 531 478 q 394 526 449 526 q 300 502 342 526 q 235 435 258 478 q 213 336 213 393 q 235 237 213 281 q 300 169 258 193 q 394 144 342 144 z "},"õ":{"ha":790,"x_min":36,"x_max":754,"o":"m 396 -14 q 213 33 294 -14 q 84 159 132 79 q 36 338 36 239 q 83 515 36 436 q 213 640 131 593 q 394 686 294 686 q 578 640 497 686 q 707 515 660 593 q 754 338 754 436 q 707 159 754 239 q 578 33 660 79 q 396 -14 497 -14 m 394 156 q 485 178 446 156 q 547 242 525 201 q 568 336 568 283 q 546 429 568 389 q 485 492 524 469 q 394 515 446 515 q 306 492 344 515 q 244 429 267 469 q 222 336 222 389 q 244 242 222 283 q 306 178 267 201 q 394 156 344 156 m 497 757 q 419 774 451 757 q 360 806 388 790 q 300 821 332 821 q 245 808 267 821 q 204 769 224 796 l 113 861 q 195 942 153 914 q 294 969 238 969 q 372 953 340 969 q 432 922 404 938 q 492 906 460 906 q 548 919 526 906 q 588 957 569 932 l 679 867 q 597 785 639 814 q 497 757 554 757 z "},"œ":{"ha":1294,"x_min":36,"x_max":1263,"o":"m 396 -14 q 213 33 294 -14 q 84 159 132 79 q 36 338 36 239 q 83 515 36 436 q 213 640 131 593 q 394 686 294 686 q 578 640 497 686 q 707 515 660 593 q 754 338 754 436 q 707 159 754 239 q 578 33 660 79 q 396 -14 497 -14 m 394 156 q 485 178 446 156 q 547 242 525 201 q 568 336 568 283 q 546 429 568 389 q 485 492 524 469 q 394 515 446 515 q 306 492 344 515 q 244 429 267 469 q 222 336 222 389 q 244 242 222 283 q 306 178 267 201 q 394 156 344 156 m 944 -14 q 757 31 839 -14 q 627 156 675 76 q 579 336 579 235 q 626 515 579 436 q 753 640 672 593 q 932 686 833 686 q 1103 642 1029 686 q 1220 523 1178 599 q 1263 351 1263 447 q 1260 315 1263 333 q 1253 272 1258 296 l 689 271 l 689 407 l 1168 408 l 1094 351 q 1073 451 1092 411 q 1019 513 1054 492 q 932 535 983 535 q 838 510 878 535 q 776 442 797 486 q 754 339 754 399 q 777 233 754 278 q 843 163 800 188 q 943 139 886 139 q 1036 156 994 139 q 1108 208 1078 174 l 1215 101 q 1097 15 1167 44 q 944 -14 1026 -14 z "},"p":{"ha":817,"x_min":81,"x_max":778,"o":"m 453 -14 q 322 16 381 -14 q 229 97 264 46 q 192 215 194 149 l 192 453 q 230 572 194 519 q 323 654 265 624 q 453 685 381 685 q 619 639 546 685 q 735 514 693 593 q 778 335 778 435 q 735 157 778 236 q 619 32 693 78 q 453 -14 546 -14 m 81 -281 l 81 671 l 263 671 l 263 494 l 232 332 l 261 169 l 261 -281 l 81 -281 m 421 154 q 510 177 471 154 q 570 241 549 200 q 592 336 592 282 q 570 430 592 389 q 510 494 549 471 q 421 517 471 517 q 333 494 372 517 q 273 430 294 471 q 251 336 251 389 q 273 241 251 282 q 333 177 294 200 q 421 154 371 154 z "},"þ":{"ha":817,"x_min":81,"x_max":778,"o":"m 453 -14 q 322 16 381 -14 q 229 97 264 46 q 192 215 194 149 l 192 453 q 230 572 194 519 q 323 654 265 624 q 453 685 381 685 q 619 639 546 685 q 735 514 693 593 q 778 335 778 435 q 735 157 778 236 q 619 32 693 78 q 453 -14 546 -14 m 81 -281 l 81 1004 l 263 1004 l 263 494 l 232 332 l 261 169 l 261 -281 l 81 -281 m 421 154 q 509 177 471 154 q 569 241 547 200 q 592 336 592 282 q 570 430 592 389 q 510 494 549 471 q 421 517 471 517 q 333 494 372 517 q 273 430 294 471 q 251 336 251 389 q 273 241 251 282 q 333 177 294 200 q 421 154 371 154 z "},"q":{"ha":817,"x_min":39,"x_max":736,"o":"m 361 -14 q 196 32 269 -14 q 81 157 122 78 q 39 335 39 236 q 81 514 39 435 q 196 639 122 593 q 361 685 269 685 q 490 656 433 685 q 581 574 547 626 q 618 457 615 522 l 618 215 q 581 97 615 149 q 490 16 547 46 q 361 -14 433 -14 m 394 154 q 518 205 471 154 q 565 336 565 256 q 544 430 565 389 q 484 494 522 471 q 394 517 446 517 q 306 494 344 517 q 247 430 268 471 q 225 336 225 389 q 247 241 225 282 q 306 177 268 200 q 394 154 344 154 m 556 -281 l 556 169 l 585 332 l 556 494 l 556 671 l 736 671 l 736 -281 l 556 -281 z "},"r":{"ha":603,"x_min":81,"x_max":594,"o":"m 81 0 l 81 671 l 263 671 l 263 0 l 81 0 m 263 371 l 192 418 q 264 613 204 542 q 436 685 324 685 q 524 669 485 685 q 594 617 563 653 l 481 486 q 444 511 465 503 q 394 519 422 519 q 299 483 336 519 q 263 371 263 446 z "},"ŕ":{"ha":603,"x_min":81,"x_max":594,"o":"m 81 0 l 81 671 l 263 671 l 263 0 l 81 0 m 263 371 l 192 418 q 264 613 204 542 q 436 685 324 685 q 524 669 485 685 q 594 617 563 653 l 481 486 q 444 511 465 503 q 394 519 422 519 q 299 483 336 519 q 263 371 263 446 m 219 757 l 150 843 l 350 1060 l 467 918 l 219 757 z "},"ř":{"ha":603,"x_min":53,"x_max":594,"o":"m 81 0 l 81 671 l 263 671 l 263 0 l 81 0 m 263 371 l 192 418 q 264 613 204 542 q 436 685 324 685 q 524 669 485 685 q 594 617 563 653 l 481 486 q 444 511 465 503 q 394 519 422 519 q 299 483 336 519 q 263 371 263 447 m 493 1042 l 563 961 l 367 753 l 249 753 l 53 961 l 122 1042 l 374 865 l 242 865 l 493 1042 z "},"ŗ":{"ha":603,"x_min":36,"x_max":594,"o":"m 81 0 l 81 671 l 263 671 l 263 0 l 81 0 m 263 371 l 192 418 q 264 613 204 542 q 436 685 324 685 q 524 669 485 685 q 594 617 563 653 l 481 486 q 444 511 465 503 q 394 519 422 519 q 299 483 336 519 q 263 371 263 446 m 124 -531 l 35 -472 l 146 -297 l 204 -286 q 179 -315 193 -304 q 150 -325 165 -326 q 87 -290 114 -322 q 64 -211 60 -257 q 103 -131 68 -162 q 188 -103 139 -99 q 266 -144 235 -107 q 293 -231 297 -182 q 281 -277 292 -251 q 244 -343 271 -303 l 124 -531 z "},"s":{"ha":617,"x_min":19,"x_max":583,"o":"m 311 -15 q 199 0 254 -15 q 99 42 144 15 q 19 108 53 69 l 128 218 q 208 160 163 179 q 310 140 254 140 q 377 153 354 140 q 400 190 400 165 q 376 233 400 218 q 313 259 351 249 q 231 283 274 269 q 150 317 189 296 q 87 377 111 339 q 63 476 63 415 q 94 588 63 540 q 183 661 125 635 q 321 688 242 688 q 472 658 404 688 q 583 571 539 629 l 474 461 q 405 515 443 499 q 322 532 367 532 q 260 519 282 532 q 239 485 239 507 q 263 446 239 460 q 326 422 288 432 q 408 398 365 411 q 488 361 450 385 q 551 299 526 338 q 575 199 575 260 q 504 42 575 100 q 311 -15 433 -15 z "},"ś":{"ha":617,"x_min":19,"x_max":583,"o":"m 311 -15 q 199 0 254 -15 q 99 42 144 15 q 19 108 53 69 l 128 218 q 208 160 163 179 q 310 140 254 140 q 377 153 354 140 q 400 190 400 165 q 376 233 400 218 q 313 259 351 249 q 231 283 274 269 q 150 317 189 296 q 87 377 111 339 q 63 476 63 415 q 94 588 63 540 q 183 661 125 635 q 321 688 242 688 q 472 658 404 688 q 583 571 539 629 l 474 461 q 405 515 443 499 q 322 532 367 532 q 260 519 282 532 q 239 485 239 507 q 263 446 239 460 q 326 422 288 432 q 408 398 365 411 q 488 361 450 385 q 551 299 526 338 q 575 199 575 260 q 504 42 575 100 q 311 -15 433 -15 m 232 757 l 163 843 l 363 1060 l 479 918 l 232 757 z "},"š":{"ha":617,"x_min":19,"x_max":583,"o":"m 311 -15 q 199 0 254 -15 q 99 42 144 15 q 19 108 53 69 l 128 218 q 208 160 163 179 q 310 140 254 140 q 377 153 354 140 q 400 190 400 165 q 376 233 400 218 q 313 259 351 249 q 231 283 274 269 q 150 317 189 296 q 87 377 111 339 q 63 476 63 415 q 94 588 63 540 q 183 661 125 635 q 321 688 242 688 q 472 658 404 688 q 583 571 539 629 l 474 461 q 405 515 443 499 q 322 532 367 532 q 260 519 282 532 q 239 485 239 507 q 263 446 239 460 q 326 422 288 432 q 408 398 365 411 q 488 361 450 385 q 551 299 526 338 q 575 199 575 260 q 504 42 575 100 q 311 -15 433 -15 m 506 1042 l 575 961 l 379 753 l 261 753 l 65 961 l 135 1042 l 386 865 l 254 865 l 506 1042 z "},"ş":{"ha":617,"x_min":19,"x_max":583,"o":"m 311 -15 q 199 0 254 -15 q 99 42 144 15 q 19 108 53 69 l 128 218 q 208 160 163 179 q 310 140 254 140 q 377 153 354 140 q 400 190 400 165 q 376 233 400 218 q 313 259 351 249 q 231 283 274 269 q 150 317 189 296 q 87 377 111 339 q 63 476 63 415 q 94 588 63 540 q 183 661 125 635 q 321 688 242 688 q 472 658 404 688 q 583 571 539 629 l 474 461 q 405 515 443 499 q 322 532 367 532 q 260 519 282 532 q 239 485 239 507 q 263 446 239 460 q 326 422 288 432 q 408 398 365 411 q 488 361 450 385 q 551 299 526 338 q 575 199 575 260 q 504 42 575 100 q 311 -15 433 -15 m 288 -294 q 196 -282 235 -294 q 118 -246 157 -269 l 183 -164 q 222 -185 200 -176 q 272 -193 243 -193 q 319 -184 304 -193 q 333 -162 333 -175 q 319 -137 333 -147 q 272 -126 304 -126 l 214 -126 l 260 18 l 375 18 l 340 -82 l 282 -36 q 423 -72 371 -35 q 475 -165 475 -108 q 424 -258 475 -221 q 288 -294 372 -294 z "},"ș":{"ha":617,"x_min":19,"x_max":583,"o":"m 311 -15 q 199 0 254 -15 q 99 42 144 15 q 19 108 53 69 l 128 218 q 208 160 163 179 q 310 140 254 140 q 377 153 354 140 q 400 190 400 165 q 376 233 400 218 q 313 259 351 249 q 231 283 274 269 q 150 317 189 296 q 87 377 111 339 q 63 476 63 415 q 94 588 63 540 q 183 661 125 635 q 321 688 242 688 q 472 658 404 688 q 583 571 539 629 l 474 461 q 405 515 443 499 q 322 532 367 532 q 260 519 282 532 q 239 485 239 507 q 263 446 239 460 q 326 422 288 432 q 408 398 365 411 q 488 361 450 385 q 551 299 526 338 q 575 199 575 260 q 504 42 575 100 q 311 -15 433 -15 m 269 -531 l 181 -472 l 292 -297 l 350 -286 q 325 -315 339 -304 q 296 -325 311 -326 q 233 -290 260 -322 q 210 -211 206 -257 q 249 -131 214 -162 q 333 -103 285 -99 q 412 -144 381 -107 q 439 -231 443 -182 q 427 -277 438 -251 q 390 -343 417 -303 l 269 -531 z "},"ß":{"ha":813,"x_min":81,"x_max":779,"o":"m 463 -14 q 363 0 401 -14 q 293 40 325 14 l 374 178 q 406 159 388 167 q 457 151 425 151 q 522 168 493 151 q 569 217 551 185 q 586 292 586 249 q 566 367 586 333 q 511 420 546 400 q 433 440 476 440 l 361 440 l 361 593 l 406 593 q 467 609 440 593 q 509 655 494 625 q 524 725 524 685 q 508 791 524 763 q 463 836 492 819 q 396 853 435 853 q 299 817 336 853 q 261 721 261 782 l 261 0 l 81 0 l 81 717 q 120 868 81 800 q 231 976 160 936 q 399 1017 303 1017 q 560 978 493 1017 q 665 877 628 940 q 701 739 701 814 q 659 597 701 657 q 542 511 617 538 l 544 569 q 669 517 617 556 q 751 419 722 478 q 779 285 779 361 q 756 168 779 222 q 690 74 732 114 q 589 10 647 33 q 463 -14 531 -14 z "},"t":{"ha":540,"x_min":22,"x_max":518,"o":"m 179 0 l 179 950 l 361 950 l 361 0 l 179 0 m 22 511 l 22 671 l 518 671 l 518 511 l 22 511 z "},"ť":{"ha":707,"x_min":22,"x_max":638,"o":"m 179 0 l 179 950 l 361 950 l 361 0 l 179 0 m 22 511 l 22 671 l 518 671 l 518 511 l 22 511 m 492 711 l 397 763 l 496 944 l 553 961 q 531 930 543 942 q 501 918 518 918 q 436 948 467 918 q 406 1024 406 978 q 439 1108 406 1074 q 522 1143 472 1143 q 603 1108 568 1143 q 638 1024 638 1074 q 629 977 638 1004 q 599 908 621 950 l 492 711 z "},"ț":{"ha":540,"x_min":22,"x_max":518,"o":"m 179 0 l 179 950 l 361 950 l 361 0 l 179 0 m 22 511 l 22 671 l 518 671 l 518 511 l 22 511 m 222 -531 l 133 -472 l 244 -297 l 303 -286 q 278 -315 292 -304 q 249 -325 264 -326 q 185 -290 213 -322 q 163 -211 158 -257 q 202 -131 167 -162 q 286 -103 238 -99 q 365 -144 333 -107 q 392 -231 396 -182 q 380 -277 390 -251 q 343 -343 369 -303 l 222 -531 z "},"u":{"ha":733,"x_min":63,"x_max":669,"o":"m 367 -14 q 209 24 278 -14 q 101 128 140 61 q 63 282 63 194 l 63 671 l 246 671 l 246 286 q 260 215 246 244 q 301 169 274 185 q 367 154 329 154 q 456 189 424 154 q 488 286 488 224 l 488 671 l 669 671 l 669 282 q 631 126 669 193 q 524 23 593 60 q 367 -14 456 -14 z "},"ú":{"ha":733,"x_min":63,"x_max":669,"o":"m 367 -14 q 209 24 278 -14 q 101 128 140 61 q 63 282 63 194 l 63 671 l 246 671 l 246 286 q 260 215 246 244 q 301 169 274 185 q 367 154 329 154 q 456 189 424 154 q 488 286 488 224 l 488 671 l 669 671 l 669 282 q 631 126 669 193 q 524 23 593 60 q 367 -14 456 -14 m 278 757 l 208 843 l 408 1060 l 525 918 l 278 757 z "},"ŭ":{"ha":733,"x_min":63,"x_max":669,"o":"m 367 -14 q 209 24 278 -14 q 101 128 140 61 q 63 282 63 194 l 63 671 l 246 671 l 246 286 q 260 215 246 244 q 301 169 274 185 q 367 154 329 154 q 456 189 424 154 q 488 286 488 224 l 488 671 l 669 671 l 669 282 q 631 126 669 193 q 524 23 593 60 q 367 -14 456 -14 m 622 994 q 589 867 622 925 q 499 776 556 810 q 368 743 442 743 q 237 776 294 743 q 145 867 179 810 q 111 994 111 925 l 264 994 q 292 919 264 950 q 368 889 321 889 q 420 903 397 889 q 456 941 443 917 q 469 994 469 965 l 622 994 z "},"û":{"ha":733,"x_min":63,"x_max":669,"o":"m 367 -14 q 209 24 278 -14 q 101 128 140 61 q 63 282 63 194 l 63 671 l 246 671 l 246 286 q 260 215 246 244 q 301 169 274 185 q 367 154 329 154 q 456 189 424 154 q 488 286 488 224 l 488 671 l 669 671 l 669 282 q 631 126 669 193 q 524 23 593 60 q 367 -14 456 -14 m 181 753 l 111 833 l 307 1042 l 426 1042 l 622 833 l 553 753 l 301 931 l 433 929 l 181 753 z "},"ü":{"ha":733,"x_min":63,"x_max":669,"o":"m 367 -14 q 209 24 278 -14 q 101 128 140 61 q 63 282 63 194 l 63 671 l 246 671 l 246 286 q 260 215 246 244 q 301 169 274 185 q 367 154 329 154 q 456 189 424 154 q 488 286 488 224 l 488 671 l 669 671 l 669 282 q 631 126 669 193 q 524 23 593 60 q 367 -14 456 -14 m 218 768 q 146 798 175 768 q 117 872 117 828 q 146 947 117 917 q 218 976 175 976 q 292 947 264 976 q 321 872 321 917 q 292 798 321 828 q 218 768 264 768 m 517 768 q 444 798 474 768 q 415 872 415 828 q 444 947 415 917 q 517 976 474 976 q 591 947 563 976 q 619 872 619 917 q 591 798 619 828 q 517 768 563 768 z "},"ù":{"ha":733,"x_min":63,"x_max":669,"o":"m 367 -14 q 209 24 278 -14 q 101 128 140 61 q 63 282 63 194 l 63 671 l 246 671 l 246 286 q 260 215 246 244 q 301 169 274 185 q 367 154 329 154 q 456 189 424 154 q 488 286 488 224 l 488 671 l 669 671 l 669 282 q 631 126 669 193 q 524 23 593 60 q 367 -14 456 -14 m 432 750 l 185 911 l 303 1053 l 501 836 l 432 750 z "},"ű":{"ha":733,"x_min":63,"x_max":669,"o":"m 367 -14 q 209 24 278 -14 q 101 128 140 61 q 63 282 63 194 l 63 671 l 246 671 l 246 286 q 260 215 246 244 q 301 169 274 185 q 367 154 329 154 q 456 189 424 154 q 488 286 488 224 l 488 671 l 669 671 l 669 282 q 631 126 669 193 q 524 23 593 60 q 367 -14 456 -14 m 204 767 l 104 814 l 193 1096 l 358 1015 l 204 767 m 494 767 l 394 814 l 483 1096 l 649 1015 l 494 767 z "},"ū":{"ha":733,"x_min":63,"x_max":669,"o":"m 367 -14 q 209 24 278 -14 q 101 128 140 61 q 63 282 63 194 l 63 671 l 246 671 l 246 286 q 260 215 246 244 q 301 169 274 185 q 367 154 329 154 q 456 189 424 154 q 488 286 488 224 l 488 671 l 669 671 l 669 282 q 631 126 669 193 q 524 23 593 60 q 367 -14 456 -14 m 104 943 l 632 943 l 632 801 l 104 801 l 104 943 z "},"ų":{"ha":733,"x_min":63,"x_max":669,"o":"m 367 -14 q 209 24 278 -14 q 101 128 140 61 q 63 282 63 194 l 63 671 l 246 671 l 246 286 q 260 215 246 244 q 301 169 274 185 q 367 154 329 154 q 456 189 424 154 q 488 286 488 224 l 488 671 l 669 671 l 669 282 q 631 126 669 193 q 524 23 593 60 q 367 -14 456 -14 m 413 -281 q 288 -247 339 -281 q 236 -140 236 -214 q 278 -26 236 -75 q 400 50 321 24 l 504 14 q 421 -42 451 -10 q 390 -115 390 -74 q 403 -153 390 -139 q 443 -167 417 -167 q 476 -160 461 -167 q 503 -149 492 -154 l 546 -246 q 490 -270 522 -260 q 413 -281 458 -281 z "},"ů":{"ha":733,"x_min":63,"x_max":669,"o":"m 367 -14 q 209 24 278 -14 q 101 128 140 61 q 63 282 63 194 l 63 671 l 246 671 l 246 286 q 260 215 246 244 q 301 169 274 185 q 367 154 329 154 q 456 189 424 154 q 488 286 488 224 l 488 671 l 669 671 l 669 282 q 631 126 669 193 q 524 23 593 60 q 367 -14 456 -14 m 369 743 q 276 767 317 743 q 213 829 236 790 q 189 918 189 868 q 213 1008 189 968 q 276 1072 236 1049 q 368 1094 317 1094 q 459 1072 419 1094 q 522 1009 499 1049 q 546 919 546 969 q 522 829 546 869 q 459 766 499 789 q 369 743 419 743 m 369 856 q 412 874 394 856 q 429 919 429 892 q 412 964 429 946 q 369 982 394 982 q 323 964 340 982 q 306 919 306 946 q 323 874 306 893 q 369 856 340 856 z "},"v":{"ha":726,"x_min":3,"x_max":724,"o":"m 299 0 l 3 671 l 203 671 l 415 118 l 317 118 l 531 671 l 724 671 l 429 0 l 299 0 z "},"w":{"ha":1068,"x_min":8,"x_max":1060,"o":"m 260 0 l 8 671 l 192 671 l 356 183 l 300 182 l 468 671 l 600 671 l 768 182 l 713 183 l 876 671 l 1060 671 l 810 0 l 678 0 l 508 464 l 560 464 l 390 0 l 260 0 z "},"ẃ":{"ha":1068,"x_min":8,"x_max":1060,"o":"m 260 0 l 8 671 l 192 671 l 356 183 l 300 182 l 468 671 l 600 671 l 768 182 l 713 183 l 876 671 l 1060 671 l 810 0 l 678 0 l 508 464 l 560 464 l 390 0 l 260 0 m 444 757 l 375 843 l 575 1060 l 692 918 l 444 757 z "},"ŵ":{"ha":1068,"x_min":8,"x_max":1060,"o":"m 260 0 l 8 671 l 192 671 l 356 183 l 300 182 l 468 671 l 600 671 l 768 182 l 713 183 l 876 671 l 1060 671 l 810 0 l 678 0 l 508 464 l 560 464 l 390 0 l 260 0 m 349 753 l 279 833 l 475 1042 l 594 1042 l 790 833 l 721 753 l 469 931 l 601 929 l 349 753 z "},"ẅ":{"ha":1068,"x_min":8,"x_max":1060,"o":"m 260 0 l 8 671 l 192 671 l 356 183 l 300 182 l 468 671 l 600 671 l 768 182 l 713 183 l 876 671 l 1060 671 l 810 0 l 678 0 l 508 464 l 560 464 l 390 0 l 260 0 m 385 768 q 313 798 342 768 q 283 872 283 828 q 313 947 283 917 q 385 976 342 976 q 459 947 431 976 q 488 872 488 917 q 459 798 488 828 q 385 768 431 768 m 683 768 q 611 798 640 768 q 582 872 582 828 q 611 947 582 917 q 683 976 640 976 q 758 947 729 976 q 786 872 786 917 q 758 798 786 828 q 683 768 729 768 z "},"ẁ":{"ha":1068,"x_min":8,"x_max":1060,"o":"m 260 0 l 8 671 l 192 671 l 356 183 l 300 182 l 468 671 l 600 671 l 768 182 l 713 183 l 876 671 l 1060 671 l 810 0 l 678 0 l 508 464 l 560 464 l 390 0 l 260 0 m 599 750 l 351 911 l 469 1053 l 668 836 l 599 750 z "},"x":{"ha":726,"x_min":11,"x_max":714,"o":"m 500 0 l 324 272 l 286 300 l 25 671 l 240 671 l 403 425 l 438 399 l 714 0 l 500 0 m 11 0 l 285 383 l 389 260 l 217 0 l 11 0 m 444 301 l 338 424 l 497 671 l 701 671 l 444 301 z "},"y":{"ha":731,"x_min":11,"x_max":719,"o":"m 292 -6 l 11 671 l 208 671 l 394 154 l 328 154 l 521 671 l 719 671 l 421 -6 l 292 -6 m 106 -281 l 310 151 l 421 -6 l 299 -281 l 106 -281 z "},"ý":{"ha":731,"x_min":11,"x_max":719,"o":"m 292 -6 l 11 671 l 208 671 l 394 154 l 328 154 l 521 671 l 719 671 l 421 -6 l 292 -6 m 106 -281 l 310 151 l 421 -6 l 299 -281 l 106 -281 m 276 757 l 207 843 l 407 1060 l 524 918 l 276 757 z "},"ŷ":{"ha":731,"x_min":11,"x_max":719,"o":"m 292 -6 l 11 671 l 208 671 l 394 154 l 328 154 l 521 671 l 719 671 l 421 -6 l 292 -6 m 106 -281 l 310 151 l 421 -6 l 299 -281 l 106 -281 m 179 753 l 110 833 l 306 1042 l 425 1042 l 621 833 l 551 753 l 300 931 l 432 929 l 179 753 z "},"ÿ":{"ha":731,"x_min":11,"x_max":719,"o":"m 292 -6 l 11 671 l 208 671 l 394 154 l 328 154 l 521 671 l 719 671 l 421 -6 l 292 -6 m 106 -281 l 310 151 l 421 -6 l 299 -281 l 106 -281 m 215 768 q 143 798 172 768 q 114 872 114 828 q 143 947 114 917 q 215 976 172 976 q 290 947 261 976 q 318 872 318 917 q 290 798 318 828 q 215 768 261 768 m 514 768 q 442 798 471 768 q 413 872 413 828 q 442 947 413 917 q 514 976 471 976 q 588 947 560 976 q 617 872 617 917 q 588 798 617 828 q 514 768 560 768 z "},"ỳ":{"ha":731,"x_min":11,"x_max":719,"o":"m 292 -6 l 11 671 l 208 671 l 394 154 l 328 154 l 521 671 l 719 671 l 421 -6 l 292 -6 m 106 -281 l 310 151 l 421 -6 l 299 -281 l 106 -281 m 431 750 l 183 911 l 301 1053 l 500 836 l 431 750 z "},"z":{"ha":647,"x_min":33,"x_max":608,"o":"m 33 104 l 389 567 l 608 567 l 253 104 l 33 104 m 33 0 l 33 104 l 178 158 l 600 158 l 600 0 l 33 0 m 58 513 l 58 671 l 608 671 l 608 567 l 463 513 l 58 513 z "},"ź":{"ha":647,"x_min":33,"x_max":608,"o":"m 33 104 l 389 567 l 608 567 l 253 104 l 33 104 m 33 0 l 33 104 l 178 158 l 600 158 l 600 0 l 33 0 m 58 513 l 58 671 l 608 671 l 608 567 l 463 513 l 58 513 m 253 757 l 183 843 l 383 1060 l 500 918 l 253 757 z "},"ž":{"ha":647,"x_min":33,"x_max":608,"o":"m 33 104 l 389 567 l 608 567 l 253 104 l 33 104 m 33 0 l 33 104 l 178 158 l 600 158 l 600 0 l 33 0 m 58 513 l 58 671 l 608 671 l 608 567 l 463 513 l 58 513 m 528 1042 l 597 961 l 401 753 l 283 753 l 88 961 l 157 1042 l 407 865 l 275 865 l 528 1042 z "},"ż":{"ha":647,"x_min":33,"x_max":608,"o":"m 33 104 l 389 567 l 608 567 l 253 104 l 33 104 m 33 0 l 33 104 l 178 158 l 600 158 l 600 0 l 33 0 m 58 513 l 58 671 l 608 671 l 608 567 l 463 513 l 58 513 m 343 768 q 269 798 299 768 q 240 872 240 828 q 269 947 240 917 q 343 976 299 976 q 417 947 389 976 q 446 872 446 917 q 417 798 446 828 q 343 768 389 768 z "},"ﬁ":{"ha":854,"x_min":14,"x_max":782,"o":"m 169 0 l 169 764 q 201 894 169 836 q 291 985 233 951 q 428 1019 349 1019 q 517 1004 478 1019 q 593 960 557 989 l 489 832 q 462 847 476 842 q 428 851 447 851 q 372 830 392 851 q 351 771 351 808 l 351 0 l 169 0 m 14 511 l 14 671 l 679 671 l 679 511 l 14 511 m 592 0 l 592 671 l 774 671 l 774 0 l 592 0 m 682 725 q 610 754 639 725 q 582 826 582 783 q 610 899 582 869 q 682 928 639 928 q 754 899 726 928 q 782 826 782 869 q 754 754 782 783 q 682 725 726 725 z "},"ﬂ":{"ha":847,"x_min":14,"x_max":767,"o":"m 169 0 l 169 733 q 205 875 169 810 q 308 980 240 940 q 468 1019 375 1019 l 467 851 q 381 818 411 851 q 351 738 351 785 l 351 0 l 169 0 m 14 511 l 14 671 l 663 671 l 663 511 l 14 511 m 585 0 l 585 1004 l 767 1004 l 767 0 l 585 0 z "},"ª":{"ha":497,"x_min":19,"x_max":453,"o":"m 214 563 q 115 590 158 563 q 45 665 71 618 q 19 774 19 713 q 44 882 19 835 q 114 957 69 929 q 214 985 158 985 q 317 950 275 985 q 364 865 358 915 l 364 682 q 317 598 358 633 q 214 563 276 563 m 242 681 q 305 707 281 681 q 329 774 329 733 q 304 841 329 815 q 242 867 279 867 q 178 840 203 867 q 154 774 154 814 q 178 707 154 733 q 242 681 203 681 m 324 571 l 324 679 l 343 778 l 324 876 l 324 976 l 453 976 l 453 571 l 324 571 z "},"º":{"ha":481,"x_min":18,"x_max":464,"o":"m 240 560 q 127 588 178 560 q 47 664 76 615 q 18 772 18 713 q 47 881 18 833 q 126 956 76 928 q 240 985 176 985 q 354 957 304 985 q 434 881 404 929 q 464 772 464 833 q 435 665 464 713 q 355 588 406 617 q 240 560 304 560 m 242 681 q 305 706 281 681 q 329 772 329 732 q 304 839 329 814 q 240 864 279 864 q 177 838 201 864 q 153 772 153 813 q 177 706 153 732 q 242 681 201 681 z "},"⁄":{"ha":954,"x_min":32,"x_max":904,"o":"m 394 432 l 467 358 l 165 -19 l 32 114 l 394 432 m 542 550 l 469 622 l 771 1001 l 904 868 l 542 550 z "},"½":{"ha":954,"x_min":32,"x_max":904,"o":"m 392 428 l 464 358 l 165 -19 l 32 114 l 392 428 m 542 553 l 469 622 l 771 1001 l 904 868 l 542 553 m 194 481 l 194 976 l 343 976 l 343 481 l 194 481 m 103 854 l 103 976 l 336 976 l 336 854 l 103 854 m 506 74 l 706 274 q 726 301 721 289 q 732 325 732 313 q 718 360 732 346 q 679 374 704 374 q 638 360 657 374 q 596 313 619 346 l 499 400 q 581 474 531 450 q 692 499 632 499 q 829 454 779 499 q 879 332 879 410 q 862 253 879 289 q 806 181 844 217 l 683 68 l 506 74 m 506 -6 l 506 74 l 629 117 l 889 117 l 889 -6 l 506 -6 z "},"¼":{"ha":961,"x_min":32,"x_max":914,"o":"m 394 428 l 467 358 l 165 -19 l 32 114 l 394 428 m 542 553 l 469 622 l 771 1001 l 904 868 l 542 553 m 194 481 l 194 976 l 343 976 l 343 481 l 194 481 m 103 854 l 103 976 l 336 976 l 336 854 l 103 854 m 499 161 l 644 490 l 799 490 l 651 161 l 499 161 m 499 82 l 499 161 l 539 204 l 914 204 l 914 82 l 499 82 m 733 -6 l 733 282 l 876 282 l 876 -6 l 733 -6 z "},"¾":{"ha":954,"x_min":33,"x_max":917,"o":"m 369 436 l 442 372 l 167 -19 l 33 114 l 369 436 m 585 544 l 513 608 l 783 1001 l 917 868 l 585 544 m 243 471 q 144 489 190 471 q 65 539 97 507 l 158 632 q 195 605 171 615 q 242 594 219 594 q 290 609 271 594 q 310 649 310 624 q 289 688 310 674 q 233 701 268 701 q 202 699 218 701 q 178 694 186 697 l 244 775 q 295 785 278 782 q 324 789 313 789 q 417 750 379 789 q 454 644 454 711 q 397 519 454 567 q 243 471 340 471 m 178 694 l 178 775 l 283 897 l 440 897 l 333 775 l 178 694 m 104 854 l 104 976 l 440 976 l 440 897 l 332 854 l 104 854 m 467 161 l 611 490 l 765 490 l 618 161 l 467 161 m 467 82 l 467 161 l 506 204 l 881 204 l 881 82 l 467 82 m 701 -6 l 701 282 l 844 282 l 844 -6 l 701 -6 z "},"¹":{"ha":371,"x_min":32,"x_max":272,"o":"m 124 481 l 124 976 l 272 976 l 272 481 l 124 481 m 32 854 l 32 976 l 265 976 l 265 854 l 32 854 z "},"²":{"ha":472,"x_min":33,"x_max":424,"o":"m 40 560 l 240 760 q 261 787 256 775 q 267 811 267 799 q 253 846 267 832 q 214 860 239 860 q 173 846 192 860 q 131 799 154 832 l 33 886 q 116 960 65 936 q 226 985 167 985 q 364 940 314 985 q 414 818 414 896 q 397 739 414 775 q 340 667 379 703 l 218 554 l 40 560 m 40 481 l 40 560 l 165 603 l 424 603 l 424 481 l 40 481 z "},"³":{"ha":467,"x_min":28,"x_max":417,"o":"m 206 471 q 106 489 153 471 q 28 539 60 507 l 121 632 q 158 605 133 615 q 204 594 182 594 q 253 609 233 594 q 272 649 272 624 q 251 688 272 674 q 196 701 231 701 q 165 699 181 701 q 140 694 149 697 l 207 775 q 258 785 240 782 q 286 789 275 789 q 379 750 342 789 q 417 644 417 711 q 360 519 417 567 q 206 471 303 471 m 140 694 l 140 775 l 246 897 l 403 897 l 296 775 l 140 694 m 67 854 l 67 976 l 403 976 l 403 897 l 294 854 l 67 854 z "},"⁴":{"ha":483,"x_min":35,"x_max":449,"o":"m 35 647 l 179 976 l 333 976 l 186 647 l 35 647 m 35 568 l 35 647 l 74 690 l 449 690 l 449 568 l 35 568 m 269 481 l 269 768 l 413 768 l 413 481 l 269 481 z "},"\r":{"ha":833,"x_min":0,"x_max":0,"o":""}," ":{"ha":271,"x_min":0,"x_max":0,"o":""}," ":{"ha":271,"x_min":0,"x_max":0,"o":""},".":{"ha":410,"x_min":92,"x_max":318,"o":"m 206 -14 q 124 19 156 -14 q 92 101 92 53 q 124 183 92 150 q 206 217 156 217 q 286 183 254 217 q 318 101 318 150 q 286 19 318 53 q 206 -14 254 -14 z "},",":{"ha":389,"x_min":79,"x_max":319,"o":"m 79 -165 l 178 18 l 235 33 q 213 3 225 15 q 183 -10 200 -10 q 118 21 149 -10 q 88 97 88 51 q 121 182 88 147 q 204 217 154 217 q 285 182 250 217 q 319 97 319 147 q 311 51 319 78 q 281 -18 303 24 l 174 -215 l 79 -165 z "},":":{"ha":390,"x_min":81,"x_max":308,"o":"m 194 -14 q 113 19 144 -14 q 81 100 81 53 q 113 183 81 150 q 194 217 144 217 q 276 183 244 217 q 308 100 308 150 q 276 19 308 53 q 194 -14 244 -14 m 194 406 q 113 439 144 406 q 81 521 81 472 q 113 603 81 571 q 194 636 144 636 q 276 603 244 636 q 308 521 308 571 q 276 439 308 472 q 194 406 244 406 z "},";":{"ha":382,"x_min":74,"x_max":313,"o":"m 74 -165 l 171 18 l 228 33 q 207 3 219 15 q 178 -10 194 -10 q 111 21 142 -10 q 81 97 81 51 q 115 181 81 146 q 197 217 149 217 q 278 182 243 217 q 313 97 313 147 q 305 51 313 78 q 275 -18 297 24 l 167 -215 l 74 -165 m 192 406 q 110 439 143 406 q 78 521 78 472 q 110 603 78 571 q 192 636 143 636 q 274 603 242 636 q 306 521 306 571 q 274 439 306 472 q 192 406 242 406 z "},"…":{"ha":1118,"x_min":92,"x_max":1026,"o":"m 560 -14 q 478 19 510 -14 q 446 101 446 53 q 478 183 446 150 q 560 217 510 217 q 640 183 608 217 q 672 101 672 150 q 640 19 672 53 q 560 -14 608 -14 m 914 -14 q 832 19 864 -14 q 800 101 800 53 q 832 183 800 150 q 914 217 864 217 q 994 183 963 217 q 1026 101 1026 150 q 994 19 1026 53 q 914 -14 963 -14 m 206 -14 q 124 19 156 -14 q 92 101 92 53 q 124 183 92 150 q 206 217 156 217 q 286 183 254 217 q 318 101 318 150 q 286 19 318 53 q 206 -14 254 -14 z "},"!":{"ha":381,"x_min":72,"x_max":300,"o":"m 117 340 l 89 1004 l 283 1004 l 256 340 l 117 340 m 186 -14 q 104 19 136 -14 q 72 101 72 53 q 104 183 72 150 q 186 217 136 217 q 268 183 236 217 q 300 101 300 150 q 268 19 300 53 q 186 -14 236 -14 z "},"¡":{"ha":386,"x_min":79,"x_max":307,"o":"m 96 -281 l 124 331 l 263 331 l 290 -281 l 96 -281 m 193 454 q 111 488 143 454 q 79 569 79 521 q 111 652 79 619 q 193 685 143 685 q 275 652 243 685 q 307 569 307 619 q 275 488 307 521 q 193 454 243 454 z "},"?":{"ha":699,"x_min":39,"x_max":646,"o":"m 288 339 l 282 606 l 331 606 q 401 620 371 606 q 447 663 431 635 q 464 726 464 690 q 448 789 464 763 q 403 830 432 815 q 333 844 374 844 q 233 813 278 844 q 163 725 189 782 l 39 833 q 159 970 81 921 q 343 1019 238 1019 q 501 983 432 1019 q 608 883 569 946 q 646 739 646 819 q 613 603 646 661 q 521 507 579 544 q 385 454 463 469 l 450 529 l 438 339 l 288 339 m 361 -14 q 280 19 313 -14 q 247 101 247 53 q 280 183 247 150 q 361 217 313 217 q 443 183 411 217 q 475 101 475 150 q 443 19 475 53 q 361 -14 411 -14 z "},"¿":{"ha":675,"x_min":54,"x_max":656,"o":"m 351 -296 q 198 -260 265 -296 q 92 -163 131 -225 q 54 -21 54 -101 q 88 113 54 56 q 181 209 121 171 q 318 263 240 247 l 249 194 l 263 332 l 413 332 l 417 118 l 369 118 q 273 85 310 118 q 236 -3 236 51 q 252 -66 236 -39 q 296 -107 268 -93 q 360 -121 324 -121 q 460 -90 417 -121 q 532 -1 504 -58 l 656 -111 q 535 -246 614 -196 q 351 -296 457 -296 m 338 454 q 256 488 289 454 q 224 569 224 521 q 256 652 224 619 q 338 685 289 685 q 419 652 388 685 q 451 569 451 619 q 419 488 451 521 q 338 454 388 454 z "},"·":{"ha":228,"x_min":0,"x_max":228,"o":"m 115 397 q 33 431 65 397 q 1 513 1 464 q 33 594 1 561 q 115 628 65 628 q 196 594 164 628 q 228 513 228 561 q 196 431 228 464 q 115 397 164 397 z "},"•":{"ha":481,"x_min":82,"x_max":397,"o":"m 240 354 q 158 375 194 354 q 102 433 122 396 q 82 513 82 469 q 102 592 82 556 q 158 649 122 628 q 240 671 194 671 q 322 649 286 671 q 377 592 357 628 q 397 513 397 556 q 377 433 397 469 q 322 375 357 396 q 240 354 286 354 z "},"*":{"ha":681,"x_min":51,"x_max":624,"o":"m 301 442 l 297 661 l 122 539 l 51 676 l 251 747 l 85 874 l 194 983 l 321 817 l 390 1018 l 529 947 l 407 771 l 624 767 l 599 613 l 393 676 l 456 468 l 301 442 z "},"#":{"ha":906,"x_min":54,"x_max":851,"o":"m 447 0 l 606 976 l 756 976 l 599 0 l 447 0 m 54 286 l 54 422 l 806 422 l 806 286 l 54 286 m 140 0 l 299 976 l 449 976 l 292 0 l 140 0 m 99 575 l 99 711 l 851 711 l 851 575 l 99 575 z "},"/":{"ha":546,"x_min":8,"x_max":538,"o":"m 8 -65 l 374 1039 l 538 1039 l 172 -65 l 8 -65 z "},"\\":{"ha":546,"x_min":8,"x_max":538,"o":"m 374 -65 l 8 1039 l 172 1039 l 538 -65 l 374 -65 z "},"-":{"ha":642,"x_min":81,"x_max":561,"o":"m 81 272 l 81 438 l 561 438 l 561 272 l 81 272 z "},"–":{"ha":779,"x_min":81,"x_max":699,"o":"m 81 279 l 81 431 l 699 431 l 699 279 l 81 279 z "},"—":{"ha":1200,"x_min":81,"x_max":1113,"o":"m 81 281 l 81 428 l 1113 428 l 1113 281 l 81 281 z "},"_":{"ha":685,"x_min":0,"x_max":685,"o":"m 0 -204 l 0 -56 l 685 -56 l 685 -204 l 0 -204 z "},"(":{"ha":422,"x_min":50,"x_max":396,"o":"m 293 -171 q 163 -9 218 -104 q 79 199 108 86 q 50 435 50 313 q 79 672 50 558 q 163 880 108 785 q 293 1042 218 975 l 396 947 q 256 731 306 861 q 207 435 207 600 q 256 140 207 271 q 396 -76 306 10 l 293 -171 z "},")":{"ha":422,"x_min":28,"x_max":374,"o":"m 129 -171 l 28 -76 q 167 140 118 10 q 215 435 215 271 q 167 731 215 600 q 28 947 118 861 l 129 1042 q 260 880 206 975 q 344 672 314 785 q 374 435 374 558 q 344 199 374 313 q 260 -9 314 86 q 129 -171 206 -104 z "},"{":{"ha":464,"x_min":31,"x_max":419,"o":"m 339 -133 q 164 -72 222 -133 q 117 110 106 -11 l 132 283 q 122 349 136 329 q 69 369 108 369 l 31 369 l 31 506 l 69 506 q 122 526 108 506 q 132 592 136 547 l 117 761 q 164 942 106 881 q 339 1004 222 1004 l 419 1004 l 419 867 l 360 867 q 282 842 301 867 q 267 764 263 817 l 279 618 q 274 519 285 560 q 230 453 264 479 q 132 410 196 426 l 132 463 q 230 423 196 449 q 274 357 264 397 q 279 258 285 317 l 267 108 q 283 30 264 54 q 360 6 301 6 l 419 6 l 419 -133 l 339 -133 z "},"}":{"ha":464,"x_min":40,"x_max":431,"o":"m 122 -133 l 40 -133 l 40 6 l 100 6 q 178 30 158 6 q 193 108 197 54 l 181 258 q 187 357 176 317 q 231 423 197 397 q 328 463 264 449 l 328 410 q 231 453 264 426 q 187 519 197 479 q 181 618 176 560 l 193 764 q 178 842 199 817 q 100 867 158 867 l 40 867 l 40 1004 l 122 1004 q 297 942 239 1004 q 344 761 356 881 l 328 592 q 338 526 324 547 q 392 506 353 506 l 431 506 l 431 369 l 392 369 q 338 349 353 369 q 328 283 324 329 l 343 110 q 297 -72 354 -11 q 122 -133 239 -133 z "},"[":{"ha":479,"x_min":96,"x_max":435,"o":"m 96 -133 l 96 1004 l 246 1004 l 246 -133 l 96 -133 m 169 -133 l 169 6 l 435 6 l 435 -133 l 169 -133 m 169 867 l 169 1004 l 435 1004 l 435 867 l 169 867 z "},"]":{"ha":479,"x_min":44,"x_max":383,"o":"m 233 -133 l 233 1004 l 383 1004 l 383 -133 l 233 -133 m 44 -133 l 44 6 l 310 6 l 310 -133 l 44 -133 m 44 867 l 44 1004 l 310 1004 l 310 867 l 44 867 z "},"‚":{"ha":389,"x_min":79,"x_max":319,"o":"m 79 -165 l 178 18 l 235 33 q 213 3 225 15 q 183 -10 200 -10 q 118 21 149 -10 q 88 97 88 51 q 121 182 88 147 q 204 217 154 217 q 285 182 250 217 q 319 97 319 147 q 311 51 319 78 q 281 -18 303 24 l 174 -215 l 79 -165 z "},"„":{"ha":686,"x_min":79,"x_max":618,"o":"m 379 -164 l 476 18 l 533 35 q 513 3 525 15 q 483 -8 500 -8 q 417 22 447 -8 q 386 97 386 51 q 420 182 386 147 q 503 217 454 217 q 583 182 549 217 q 618 97 618 147 q 610 51 618 78 q 581 -18 603 24 l 472 -215 l 379 -164 m 81 -164 l 178 18 l 236 35 q 214 3 226 15 q 185 -8 201 -8 q 119 22 149 -8 q 89 97 89 51 q 122 182 89 147 q 204 217 156 217 q 286 182 251 217 q 321 97 321 147 q 313 51 321 78 q 282 -18 304 24 l 175 -215 l 81 -164 z "},"“":{"ha":654,"x_min":53,"x_max":592,"o":"m 293 967 l 194 783 l 138 768 q 160 799 147 786 q 189 811 174 811 q 255 781 225 811 q 285 704 285 750 q 251 620 285 656 q 169 585 218 585 q 88 619 122 585 q 53 704 53 654 q 61 751 53 724 q 92 819 69 778 l 199 1017 l 293 967 m 592 967 l 493 783 l 436 768 q 458 799 446 786 q 488 811 471 811 q 553 781 524 811 q 583 704 583 750 q 549 620 583 656 q 467 585 515 585 q 386 619 421 585 q 351 704 351 654 q 360 751 351 724 q 390 819 368 778 l 497 1017 l 592 967 z "},"”":{"ha":654,"x_min":64,"x_max":601,"o":"m 363 610 l 460 792 l 517 808 q 496 777 508 789 q 467 765 483 765 q 400 795 431 765 q 369 871 369 825 q 403 956 369 921 q 486 990 438 990 q 567 956 532 990 q 601 871 601 921 q 594 824 601 851 q 564 756 586 797 l 456 558 l 363 610 m 64 610 l 161 792 l 219 808 q 197 777 210 789 q 168 765 185 765 q 102 795 132 765 q 72 871 72 825 q 106 956 72 921 q 188 990 139 990 q 269 956 235 990 q 304 871 304 921 q 296 824 304 851 q 265 756 288 797 l 158 558 l 64 610 z "},"‘":{"ha":356,"x_min":53,"x_max":293,"o":"m 293 967 l 194 783 l 138 768 q 160 799 147 786 q 189 811 174 811 q 255 781 225 811 q 285 704 285 750 q 251 620 285 656 q 169 585 218 585 q 88 619 122 585 q 53 704 53 654 q 61 751 53 724 q 92 819 69 778 l 199 1017 l 293 967 z "},"’":{"ha":357,"x_min":64,"x_max":304,"o":"m 64 610 l 161 792 l 219 808 q 197 777 210 789 q 168 765 185 765 q 102 795 132 765 q 72 871 72 825 q 106 956 72 921 q 188 990 139 990 q 269 956 235 990 q 304 871 304 921 q 296 824 304 851 q 265 756 288 797 l 158 558 l 64 610 z "},"«":{"ha":685,"x_min":39,"x_max":647,"o":"m 182 106 l 39 338 l 182 569 l 357 569 l 207 338 l 357 106 l 182 106 m 472 106 l 329 338 l 472 569 l 647 569 l 497 338 l 647 106 l 472 106 z "},"»":{"ha":685,"x_min":38,"x_max":646,"o":"m 328 106 l 478 338 l 328 569 l 503 569 l 646 338 l 503 106 l 328 106 m 38 106 l 188 338 l 38 569 l 213 569 l 356 338 l 213 106 l 38 106 z "},"‹":{"ha":394,"x_min":39,"x_max":357,"o":"m 182 106 l 39 338 l 182 569 l 357 569 l 207 338 l 357 106 l 182 106 z "},"›":{"ha":394,"x_min":38,"x_max":356,"o":"m 38 106 l 188 338 l 38 569 l 213 569 l 356 338 l 213 106 l 38 106 z "},"\"":{"ha":613,"x_min":79,"x_max":533,"o":"m 385 614 l 349 1004 l 533 1004 l 497 614 l 385 614 m 115 614 l 79 1004 l 265 1004 l 228 614 l 115 614 z "},"'":{"ha":342,"x_min":78,"x_max":264,"o":"m 115 614 l 78 1004 l 264 1004 l 226 614 l 115 614 z "},"✓":{"ha":1136,"x_min":26,"x_max":1111,"o":"m 371 93 l 26 435 l 142 550 l 465 226 l 390 225 l 994 901 l 1111 785 l 478 93 l 371 93 z "},"@":{"ha":1038,"x_min":56,"x_max":981,"o":"m 524 -142 q 340 -107 425 -142 q 190 -9 254 -72 q 91 138 126 54 q 56 321 56 222 q 92 506 56 421 q 193 653 128 590 q 345 752 258 717 q 532 788 432 788 q 765 729 664 788 q 924 567 867 671 q 981 329 981 464 q 969 215 981 265 q 929 122 957 164 l 783 125 q 817 183 804 151 q 838 253 831 215 q 844 336 844 292 q 808 511 844 440 q 701 619 771 582 q 535 656 632 656 q 359 615 435 656 q 242 500 283 575 q 200 319 200 425 q 240 144 200 218 q 353 30 281 69 q 521 -10 425 -10 q 642 8 588 -10 q 739 63 696 26 l 832 -32 q 691 -114 769 -86 q 524 -142 613 -142 m 496 115 q 398 142 443 115 q 325 217 353 169 q 297 321 297 264 q 325 428 297 381 q 398 503 353 475 q 496 532 443 532 q 603 501 563 532 q 643 403 643 471 l 643 243 q 603 146 643 176 q 496 115 564 115 m 506 231 q 567 257 544 231 q 590 322 590 283 q 567 389 590 364 q 506 414 544 414 q 443 388 467 414 q 419 322 419 363 q 443 257 419 283 q 506 231 467 231 m 663 122 l 663 231 l 929 231 l 929 122 l 663 122 m 606 122 l 606 229 l 621 328 l 606 424 l 606 522 l 724 522 l 724 122 l 606 122 z "},"&":{"ha":944,"x_min":63,"x_max":935,"o":"m 719 0 l 264 500 q 188 609 213 557 q 163 724 163 661 q 199 858 163 797 q 301 956 236 919 q 449 992 365 992 q 565 972 514 992 q 655 919 617 951 q 717 851 693 888 l 592 735 q 529 798 563 775 q 451 821 496 821 q 372 793 404 821 q 340 724 340 765 q 357 658 340 685 q 403 596 374 631 l 935 0 l 719 0 m 393 -14 q 219 25 293 -14 q 103 131 144 64 q 63 285 63 199 q 110 444 63 374 q 253 560 158 515 l 335 443 q 263 384 288 421 q 239 293 239 347 q 258 220 239 251 q 314 172 278 189 q 397 154 350 154 q 497 179 457 154 q 561 243 538 204 l 683 110 q 611 49 656 76 q 511 3 567 21 q 393 -14 456 -14 z "},"¶":{"ha":999,"x_min":61,"x_max":944,"o":"m 542 363 l 388 363 q 222 400 296 363 q 104 506 147 438 q 61 669 61 575 q 104 833 61 764 q 222 939 147 901 q 388 976 296 976 l 944 976 l 944 822 l 397 822 q 316 804 351 822 q 260 751 281 786 q 239 669 239 717 q 260 587 239 621 q 316 535 281 553 q 397 517 351 517 l 542 517 l 542 363 m 593 -139 l 442 -139 l 442 976 l 593 976 l 593 -139 m 836 -139 l 685 -139 l 685 976 l 836 976 l 836 -139 z "},"§":{"ha":732,"x_min":67,"x_max":664,"o":"m 374 196 l 372 321 q 453 341 424 321 q 482 399 482 361 q 454 458 482 436 q 384 493 426 479 q 293 522 342 507 q 202 563 244 538 q 133 633 160 589 q 106 750 106 676 q 139 876 106 822 q 235 960 172 931 q 383 990 297 990 q 544 956 471 990 q 664 856 618 922 l 553 743 q 477 809 521 788 q 383 831 433 831 q 308 811 335 831 q 282 758 282 792 q 309 704 282 724 q 379 669 336 685 q 470 638 422 654 q 561 597 518 622 q 631 527 604 571 q 658 415 658 483 q 622 299 658 349 q 520 223 585 250 q 374 196 456 196 m 349 -168 q 187 -133 260 -168 q 67 -33 114 -99 l 178 79 q 255 13 211 35 q 349 -8 299 -8 q 423 12 397 -8 q 449 64 449 32 q 422 118 449 99 q 352 153 394 138 q 262 184 310 168 q 171 226 214 200 q 101 295 128 251 q 74 407 74 339 q 110 524 74 475 q 212 599 147 572 q 358 626 276 626 l 360 501 q 279 481 308 501 q 250 424 250 461 q 277 365 250 386 q 347 329 304 343 q 438 300 390 315 q 529 259 486 285 q 599 190 572 233 q 626 72 626 146 q 593 -54 626 0 q 497 -138 560 -108 q 349 -168 435 -168 z "},"©":{"ha":1135,"x_min":71,"x_max":1065,"o":"m 568 -14 q 369 25 460 -14 q 210 133 278 64 q 107 293 143 201 q 71 490 71 385 q 107 688 71 597 q 209 847 143 778 q 366 953 275 915 q 567 990 457 990 q 768 952 676 990 q 926 847 860 914 q 1029 688 993 779 q 1065 489 1065 596 q 1029 292 1065 383 q 926 131 993 200 q 769 24 860 63 q 568 -14 678 -14 m 583 207 q 435 244 501 207 q 329 345 368 282 q 290 489 290 408 q 329 633 290 569 q 435 734 368 697 q 586 771 503 771 q 702 749 649 771 q 796 683 756 726 l 692 578 q 646 610 672 600 q 586 621 619 621 q 519 604 549 621 q 474 558 490 588 q 457 490 457 529 q 474 420 457 450 q 520 374 490 390 q 586 357 550 357 q 649 369 622 357 q 693 404 675 382 l 797 299 q 701 230 756 253 q 583 207 647 207 m 567 54 q 790 112 693 54 q 940 269 886 169 q 994 490 994 368 q 940 710 994 613 q 790 865 886 807 q 567 924 693 924 q 344 866 440 924 q 194 711 247 808 q 140 490 140 614 q 194 269 140 368 q 345 112 249 169 q 567 54 442 54 z "},"®":{"ha":767,"x_min":78,"x_max":689,"o":"m 383 374 q 226 415 294 374 q 117 526 157 456 q 78 683 78 597 q 117 840 78 771 q 224 950 156 910 q 382 990 292 990 q 542 949 472 990 q 650 839 611 908 q 689 683 689 769 q 650 525 689 596 q 542 414 611 454 q 383 374 474 374 m 281 529 l 281 844 l 342 844 l 342 529 l 281 529 m 451 529 l 347 667 l 413 671 l 525 529 l 451 529 m 382 425 q 514 459 457 425 q 603 551 571 493 q 636 683 636 610 q 603 813 636 756 q 514 905 571 871 q 382 939 457 939 q 251 905 308 939 q 163 813 194 871 q 131 683 131 756 q 163 551 131 610 q 251 459 194 493 q 382 425 308 425 m 324 661 l 324 708 l 397 708 q 432 720 419 708 q 444 751 444 732 q 432 782 444 769 q 397 794 419 794 l 324 794 l 324 844 l 403 844 q 476 819 447 844 q 506 753 506 793 q 476 686 506 711 q 401 661 447 661 l 324 661 z "},"™":{"ha":996,"x_min":33,"x_max":963,"o":"m 189 443 l 189 921 l 285 921 l 285 443 l 189 443 m 33 847 l 33 932 l 440 932 l 440 847 l 33 847 m 469 443 l 469 932 l 536 932 l 736 615 l 697 615 l 896 932 l 963 932 l 963 443 l 868 443 l 868 769 l 888 765 l 749 543 l 683 543 l 546 765 l 565 769 l 565 443 l 469 443 z "},"°":{"ha":547,"x_min":46,"x_max":501,"o":"m 274 543 q 156 573 207 543 q 75 653 104 603 q 46 765 46 703 q 75 880 46 829 q 156 960 104 931 q 274 990 207 990 q 392 960 340 990 q 472 880 443 931 q 501 765 501 829 q 472 653 501 703 q 392 573 443 603 q 274 543 340 543 m 274 679 q 333 705 310 679 q 357 765 357 731 q 333 829 357 804 q 274 854 310 854 q 214 829 238 854 q 190 765 190 804 q 214 705 190 731 q 274 679 238 679 z "},"|":{"ha":404,"x_min":119,"x_max":285,"o":"m 119 -181 l 119 1074 l 285 1074 l 285 -181 l 119 -181 z "},"¦":{"ha":404,"x_min":119,"x_max":285,"o":"m 119 550 l 119 1074 l 285 1074 l 285 550 l 119 550 m 119 -181 l 119 344 l 285 344 l 285 -181 l 119 -181 z "},"℠":{"ha":964,"x_min":33,"x_max":931,"o":"m 211 436 q 110 456 151 436 q 33 517 68 476 l 96 579 q 147 535 118 550 q 215 519 175 519 q 275 535 253 519 q 297 575 297 550 q 285 610 297 596 q 251 634 272 625 q 206 651 231 643 q 156 670 181 660 q 111 697 132 681 q 78 738 90 713 q 65 799 65 763 q 88 874 65 843 q 147 922 110 906 q 232 939 185 939 q 322 920 282 939 q 388 872 363 901 l 325 810 q 281 844 304 833 q 229 856 258 856 q 178 843 197 856 q 160 807 160 831 q 172 774 160 788 q 205 752 185 761 q 250 735 225 743 q 300 716 275 728 q 345 688 325 704 q 378 647 365 672 q 390 582 390 621 q 342 475 390 514 q 211 436 294 436 m 438 443 l 438 932 l 504 932 l 704 615 l 665 615 l 864 932 l 931 932 l 931 443 l 836 443 l 836 769 l 856 765 l 717 543 l 651 543 l 514 765 l 533 769 l 533 443 l 438 443 z "},"¢":{"ha":725,"x_min":56,"x_max":679,"o":"m 415 139 q 232 185 314 139 q 103 310 150 231 q 56 488 56 389 q 103 667 56 588 q 232 792 150 746 q 417 839 314 839 q 561 810 494 839 q 678 726 628 781 l 560 608 q 497 653 533 638 q 417 668 461 668 q 326 645 365 668 q 264 583 286 622 q 242 489 242 543 q 264 395 242 436 q 326 331 286 354 q 417 308 365 308 q 499 324 463 308 q 561 371 535 340 l 679 253 q 563 168 629 197 q 415 139 496 139 m 338 14 l 338 963 l 469 963 l 469 14 l 338 14 z "},"¤":{"ha":833,"x_min":81,"x_max":751,"o":"m 417 204 q 265 242 332 204 q 158 344 197 279 q 118 489 118 408 q 157 633 118 569 q 263 733 196 696 q 417 771 331 771 q 569 734 501 771 q 676 633 638 697 q 715 489 715 569 q 676 344 715 408 q 570 242 638 279 q 417 204 503 204 m 175 153 l 81 246 l 218 385 l 313 290 l 175 153 m 417 364 q 478 380 451 364 q 521 424 506 396 q 536 488 536 451 q 521 553 536 525 q 478 596 506 581 q 417 611 451 611 q 355 595 382 611 q 313 551 328 579 q 297 488 297 524 q 313 424 297 451 q 355 380 328 396 q 417 364 382 364 m 658 153 l 521 290 l 614 385 l 751 246 l 658 153 m 218 593 l 81 731 l 175 824 l 313 686 l 218 593 m 614 593 l 521 686 l 658 824 l 751 731 l 614 593 z "},"$":{"ha":825,"x_min":58,"x_max":753,"o":"m 397 -14 q 206 26 288 -14 q 58 147 125 67 l 181 271 q 278 180 224 214 q 407 146 333 146 q 525 176 482 146 q 568 263 568 207 q 543 335 568 307 q 477 382 518 363 q 388 417 436 401 q 290 454 339 433 q 201 506 242 475 q 135 587 160 538 q 111 711 111 636 q 153 863 111 800 q 270 958 196 925 q 439 992 344 992 q 608 954 531 992 q 738 857 686 917 l 614 733 q 528 806 572 781 q 435 831 485 831 q 329 805 367 831 q 292 726 292 779 q 317 661 292 686 q 383 618 342 636 q 473 583 424 600 q 572 546 522 567 q 662 492 621 525 q 728 406 703 458 q 753 278 753 354 q 658 64 753 142 q 397 -14 563 -14 m 364 -139 l 364 1117 l 496 1117 l 496 -139 l 364 -139 z "},"€":{"ha":996,"x_min":14,"x_max":944,"o":"m 593 -14 q 397 24 486 -14 q 243 131 308 63 q 142 292 178 200 q 107 489 107 383 q 142 686 107 594 q 242 846 176 778 q 396 953 307 914 q 592 992 485 992 q 787 953 703 992 q 939 849 871 915 l 811 721 q 716 793 771 768 q 586 818 661 818 q 435 777 500 818 q 333 662 369 736 q 297 489 297 588 q 333 316 297 390 q 436 200 369 242 q 594 158 503 158 q 722 184 667 158 q 817 257 776 210 l 944 129 q 790 24 876 61 q 593 -14 704 -14 m 14 539 l 14 668 l 682 668 l 644 539 l 14 539 m 14 307 l 14 435 l 628 435 l 592 307 l 14 307 z "},"£":{"ha":868,"x_min":82,"x_max":803,"o":"m 210 0 l 210 675 q 251 846 210 774 q 366 958 293 918 q 531 997 439 997 q 696 958 629 997 q 803 860 763 918 l 682 739 q 621 804 653 782 q 535 826 589 826 q 463 809 494 826 q 415 760 432 792 q 399 682 399 728 l 399 0 l 210 0 m 82 0 l 82 168 l 779 168 l 779 0 l 82 0 m 82 404 l 82 547 l 647 547 l 647 404 l 82 404 z "},"¥":{"ha":913,"x_min":64,"x_max":849,"o":"m 388 367 l 64 976 l 276 976 l 510 469 l 407 469 l 640 976 l 849 976 l 522 367 l 388 367 m 363 0 l 363 457 l 551 457 l 551 0 l 363 0 m 317 668 l 357 539 l 92 539 l 92 668 l 317 668 m 92 307 l 92 435 l 821 435 l 821 307 l 92 307 m 572 539 l 625 668 l 821 668 l 821 539 l 572 539 z "},"∕":{"ha":546,"x_min":8,"x_max":538,"o":"m 8 -65 l 374 1039 l 538 1039 l 172 -65 l 8 -65 z "},"+":{"ha":771,"x_min":71,"x_max":700,"o":"m 71 386 l 71 544 l 700 544 l 700 386 l 71 386 m 306 796 l 467 796 l 467 136 l 306 136 l 306 796 z "},"−":{"ha":771,"x_min":71,"x_max":700,"o":"m 71 386 l 71 544 l 700 544 l 700 386 l 71 386 z "},"×":{"ha":771,"x_min":72,"x_max":700,"o":"m 186 151 l 72 265 l 586 779 l 700 665 l 186 151 m 574 163 l 82 654 l 196 768 l 688 276 l 574 163 z "},"÷":{"ha":771,"x_min":71,"x_max":700,"o":"m 71 386 l 71 544 l 700 544 l 700 386 l 71 386 m 386 607 q 315 637 343 607 q 286 710 286 667 q 315 783 286 753 q 386 813 343 813 q 458 783 431 813 q 486 710 486 753 q 458 637 486 667 q 386 607 431 607 m 386 119 q 315 149 343 119 q 286 222 286 179 q 315 294 286 265 q 386 324 343 324 q 458 294 431 324 q 486 222 486 265 q 458 149 486 179 q 386 119 431 119 z "},"=":{"ha":771,"x_min":71,"x_max":700,"o":"m 71 547 l 71 706 l 700 706 l 700 547 l 71 547 m 71 221 l 71 379 l 700 379 l 700 221 l 71 221 z "},">":{"ha":771,"x_min":71,"x_max":701,"o":"m 71 628 l 71 801 l 701 529 l 701 401 l 71 129 l 71 303 l 558 500 l 558 431 l 71 628 z "},"<":{"ha":771,"x_min":71,"x_max":701,"o":"m 701 129 l 71 401 l 71 529 l 701 801 l 701 628 l 213 431 l 213 500 l 701 303 l 701 129 z "},"±":{"ha":771,"x_min":71,"x_max":700,"o":"m 71 488 l 71 644 l 700 644 l 700 488 l 71 488 m 306 803 l 467 803 l 467 331 l 306 331 l 306 803 m 71 122 l 71 281 l 700 281 l 700 122 l 71 122 z "},"~":{"ha":771,"x_min":56,"x_max":717,"o":"m 503 372 q 431 383 461 372 q 375 407 400 393 q 326 431 350 421 q 271 442 301 442 q 209 427 238 442 q 154 383 181 413 l 56 482 q 151 574 100 543 q 267 604 203 604 q 339 594 308 604 q 394 569 369 583 q 444 545 419 556 q 500 535 468 535 q 563 549 533 535 q 618 593 592 563 l 717 494 q 620 403 672 433 q 503 372 568 372 z "},"¬":{"ha":771,"x_min":71,"x_max":700,"o":"m 71 460 l 71 617 l 700 617 l 700 460 l 71 460 m 539 586 l 700 586 l 700 240 l 539 240 l 539 586 z "},"^":{"ha":638,"x_min":54,"x_max":582,"o":"m 438 632 l 283 918 l 356 918 l 200 632 l 54 632 l 261 1004 l 375 1004 l 582 632 l 438 632 z "},"µ":{"ha":813,"x_min":119,"x_max":726,"o":"m 119 -267 l 119 671 l 303 671 l 303 -267 l 119 -267 m 460 -14 q 281 61 342 -14 q 221 253 221 136 l 303 285 q 340 185 303 215 q 424 154 376 154 q 508 185 474 154 q 543 285 543 215 l 543 671 l 726 671 l 726 260 q 692 119 726 181 q 597 22 657 57 q 460 -14 538 -14 z "},"%":{"ha":932,"x_min":51,"x_max":882,"o":"m 78 0 l 683 976 l 856 976 l 250 0 l 78 0 m 679 -14 q 578 13 624 -14 q 505 85 532 40 q 478 188 478 131 q 505 289 478 244 q 577 360 532 333 q 679 388 622 388 q 782 360 736 388 q 855 289 828 333 q 882 188 882 244 q 855 85 882 131 q 783 13 828 40 q 679 -14 738 -14 m 679 118 q 729 138 710 118 q 749 188 749 157 q 728 236 749 217 q 679 256 708 256 q 631 236 650 256 q 613 188 613 217 q 631 138 613 157 q 679 118 650 118 m 251 589 q 151 616 197 589 q 78 689 104 643 q 51 790 51 735 q 78 892 51 847 q 150 963 104 936 q 251 990 196 990 q 355 963 308 990 q 428 892 401 936 q 454 790 454 847 q 427 689 454 735 q 355 616 400 643 q 251 589 310 589 m 251 721 q 301 740 283 721 q 319 790 319 760 q 301 840 319 821 q 251 860 282 860 q 204 840 222 860 q 186 790 186 821 q 204 740 186 760 q 251 721 222 721 z "},"↑":{"ha":914,"x_min":100,"x_max":814,"o":"m 375 689 l 540 689 l 540 43 l 375 43 l 375 689 m 814 307 l 457 664 l 100 307 l 100 539 l 457 896 l 814 539 l 814 307 z "},"↗":{"ha":914,"x_min":100,"x_max":815,"o":"m 610 738 l 726 621 l 218 113 l 100 229 l 610 738 m 653 160 l 651 663 l 147 664 l 310 826 l 815 826 l 815 321 l 653 160 z "},"→":{"ha":914,"x_min":31,"x_max":883,"o":"m 676 553 l 676 388 l 31 388 l 31 553 l 676 553 m 294 113 l 651 469 l 294 826 l 526 826 l 883 469 l 526 113 l 294 113 z "},"↘":{"ha":914,"x_min":100,"x_max":815,"o":"m 725 318 l 610 201 l 100 710 l 217 826 l 725 318 m 147 274 l 651 276 l 653 781 l 815 618 l 815 113 l 310 113 l 147 274 z "},"↓":{"ha":914,"x_min":100,"x_max":814,"o":"m 540 250 l 375 250 l 375 896 l 540 896 l 540 250 m 100 632 l 457 275 l 814 632 l 814 400 l 457 43 l 100 400 l 100 632 z "},"↙":{"ha":914,"x_min":100,"x_max":815,"o":"m 306 201 l 189 318 l 697 826 l 815 710 l 306 201 m 263 781 l 264 276 l 768 275 l 606 113 l 100 113 l 100 618 l 263 781 z "},"←":{"ha":914,"x_min":31,"x_max":883,"o":"m 238 388 l 238 553 l 883 553 l 883 388 l 238 388 m 619 826 l 263 469 l 619 113 l 388 113 l 31 469 l 388 826 l 619 826 z "},"↖":{"ha":914,"x_min":100,"x_max":815,"o":"m 189 622 l 306 738 l 815 231 l 697 113 l 189 622 m 768 665 l 264 664 l 263 160 l 100 321 l 100 826 l 606 826 l 768 665 z "},"̈":{"ha":0,"x_min":81,"x_max":583,"o":"m 182 768 q 110 798 139 768 q 81 872 81 828 q 110 947 81 917 q 182 976 139 976 q 256 947 228 976 q 285 872 285 917 q 256 798 285 828 q 182 768 228 768 m 481 768 q 408 798 438 768 q 379 872 379 828 q 408 947 379 917 q 481 976 438 976 q 555 947 526 976 q 583 872 583 917 q 555 798 583 828 q 481 768 526 768 z "},"̇":{"ha":0,"x_min":125,"x_max":331,"o":"m 228 768 q 154 798 183 768 q 125 872 125 828 q 154 947 125 917 q 228 976 183 976 q 302 947 274 976 q 331 872 331 917 q 302 798 331 828 q 228 768 274 768 z "},"̀":{"ha":0,"x_min":56,"x_max":372,"o":"m 303 750 l 56 911 l 174 1053 l 372 836 l 303 750 z "},"́":{"ha":0,"x_min":56,"x_max":372,"o":"m 125 757 l 56 843 l 256 1060 l 372 918 l 125 757 z "},"̋":{"ha":0,"x_min":56,"x_max":601,"o":"m 156 735 l 56 782 l 144 1064 l 311 983 l 156 735 m 446 735 l 346 782 l 435 1064 l 601 983 l 446 735 z "},"̂":{"ha":0,"x_min":56,"x_max":567,"o":"m 125 753 l 56 833 l 251 1042 l 371 1042 l 567 833 l 497 753 l 246 931 l 378 929 l 125 753 z "},"̌":{"ha":0,"x_min":56,"x_max":567,"o":"m 497 1042 l 567 961 l 371 753 l 251 753 l 56 961 l 125 1042 l 376 865 l 244 865 l 497 1042 z "},"̆":{"ha":0,"x_min":56,"x_max":567,"o":"m 567 994 q 533 867 567 925 q 443 776 500 810 q 313 743 386 743 q 181 776 239 743 q 90 867 124 810 q 56 994 56 925 l 208 994 q 237 919 208 950 q 313 889 265 889 q 365 903 342 889 q 401 941 388 917 q 414 994 414 965 l 567 994 z "},"̊":{"ha":0,"x_min":56,"x_max":413,"o":"m 236 743 q 143 767 183 743 q 79 829 103 790 q 56 918 56 868 q 79 1008 56 968 q 143 1072 103 1049 q 235 1094 183 1094 q 326 1072 286 1094 q 389 1009 365 1049 q 413 919 413 969 q 389 829 413 869 q 326 766 365 789 q 236 743 286 743 m 236 856 q 278 874 261 856 q 296 919 296 892 q 278 964 296 946 q 236 982 261 982 q 190 964 207 982 q 172 919 172 946 q 190 874 172 893 q 236 856 207 856 z "},"̃":{"ha":0,"x_min":56,"x_max":622,"o":"m 440 757 q 363 774 394 757 q 303 806 331 790 q 243 821 275 821 q 188 808 210 821 q 147 769 167 796 l 56 861 q 138 942 96 914 q 238 969 181 969 q 315 953 283 969 q 375 922 347 938 q 435 906 403 906 q 491 919 469 906 q 531 957 513 932 l 622 867 q 540 785 582 814 q 440 757 497 757 z "},"̄":{"ha":0,"x_min":56,"x_max":583,"o":"m 56 943 l 583 943 l 583 801 l 56 801 l 56 943 z "},"̒":{"ha":0,"x_min":46,"x_max":307,"o":"m 307 1093 l 197 919 l 139 908 q 164 938 150 926 q 193 947 178 949 q 256 912 229 944 q 279 833 283 879 q 240 753 275 786 q 154 725 204 721 q 77 767 108 729 q 50 853 46 804 q 62 899 51 872 q 99 964 72 925 l 218 1151 l 307 1093 z "},"̦":{"ha":0,"x_min":46,"x_max":308,"o":"m 135 -531 l 46 -472 l 157 -297 l 215 -286 q 190 -315 204 -304 q 161 -325 176 -326 q 98 -290 125 -322 q 75 -211 71 -257 q 115 -131 79 -162 q 199 -103 150 -99 q 277 -144 246 -107 q 304 -231 308 -182 q 292 -277 303 -251 q 256 -343 282 -303 l 135 -531 z "},"̧":{"ha":0,"x_min":19,"x_max":376,"o":"m 189 -294 q 97 -282 136 -294 q 19 -246 58 -269 l 85 -164 q 123 -185 101 -176 q 174 -193 144 -193 q 220 -184 206 -193 q 235 -162 235 -175 q 220 -137 235 -147 q 174 -126 206 -126 l 115 -126 l 161 18 l 276 18 l 242 -82 l 183 -36 q 324 -72 272 -35 q 376 -165 376 -108 q 325 -258 376 -221 q 189 -294 274 -294 z "},"̨":{"ha":0,"x_min":56,"x_max":365,"o":"m 232 -294 q 107 -261 158 -294 q 56 -154 56 -228 q 98 -40 56 -89 q 219 36 140 10 l 324 0 q 240 -56 271 -24 q 210 -129 210 -87 q 223 -167 210 -153 q 263 -181 236 -181 q 296 -174 281 -181 q 322 -162 311 -168 l 365 -260 q 310 -284 342 -274 q 232 -294 278 -294 z "},"¨":{"ha":664,"x_min":81,"x_max":583,"o":"m 182 768 q 110 798 139 768 q 81 872 81 828 q 110 947 81 917 q 182 976 139 976 q 256 947 228 976 q 285 872 285 917 q 256 798 285 828 q 182 768 228 768 m 481 768 q 408 798 438 768 q 379 872 379 828 q 408 947 379 917 q 481 976 438 976 q 555 947 526 976 q 583 872 583 917 q 555 798 583 828 q 481 768 526 768 z "},"˙":{"ha":456,"x_min":125,"x_max":331,"o":"m 228 768 q 154 798 183 768 q 125 872 125 828 q 154 947 125 917 q 228 976 183 976 q 302 947 274 976 q 331 872 331 917 q 302 798 331 828 q 228 768 274 768 z "},"`":{"ha":428,"x_min":56,"x_max":372,"o":"m 303 750 l 56 911 l 174 1053 l 372 836 l 303 750 z "},"´":{"ha":428,"x_min":56,"x_max":372,"o":"m 125 757 l 56 843 l 256 1060 l 372 918 l 125 757 z "},"˝":{"ha":657,"x_min":56,"x_max":601,"o":"m 156 735 l 56 782 l 144 1064 l 311 983 l 156 735 m 446 735 l 346 782 l 435 1064 l 601 983 l 446 735 z "},"ˆ":{"ha":622,"x_min":56,"x_max":567,"o":"m 125 753 l 56 833 l 251 1042 l 371 1042 l 567 833 l 497 753 l 246 931 l 378 929 l 125 753 z "},"ˇ":{"ha":622,"x_min":56,"x_max":567,"o":"m 497 1042 l 567 961 l 371 753 l 251 753 l 56 961 l 125 1042 l 376 865 l 244 865 l 497 1042 z "},"˘":{"ha":622,"x_min":56,"x_max":567,"o":"m 567 994 q 533 867 567 925 q 443 776 500 810 q 313 743 386 743 q 181 776 239 743 q 90 867 124 810 q 56 994 56 925 l 208 994 q 237 919 208 950 q 313 889 265 889 q 365 903 342 889 q 401 941 388 917 q 414 994 414 965 l 567 994 z "},"˚":{"ha":468,"x_min":56,"x_max":413,"o":"m 236 743 q 143 767 183 743 q 79 829 103 790 q 56 918 56 868 q 79 1008 56 968 q 143 1072 103 1049 q 235 1094 183 1094 q 326 1072 286 1094 q 389 1009 365 1049 q 413 919 413 969 q 389 829 413 869 q 326 766 365 789 q 236 743 286 743 m 236 856 q 278 874 261 856 q 296 919 296 892 q 278 964 296 946 q 236 982 261 982 q 190 964 207 982 q 172 919 172 946 q 190 874 172 893 q 236 856 207 856 z "},"˜":{"ha":678,"x_min":56,"x_max":622,"o":"m 440 757 q 363 774 394 757 q 303 806 331 790 q 243 821 275 821 q 188 808 210 821 q 147 769 167 796 l 56 861 q 138 942 96 914 q 238 969 181 969 q 315 953 283 969 q 375 922 347 938 q 435 906 403 906 q 491 919 469 906 q 531 957 513 932 l 622 867 q 540 785 582 814 q 440 757 497 757 z "},"¯":{"ha":639,"x_min":56,"x_max":583,"o":"m 56 943 l 583 943 l 583 801 l 56 801 l 56 943 z "},"¸":{"ha":401,"x_min":19,"x_max":376,"o":"m 189 -294 q 97 -282 136 -294 q 19 -246 58 -269 l 85 -164 q 123 -185 101 -176 q 174 -193 144 -193 q 220 -184 206 -193 q 235 -162 235 -175 q 220 -137 235 -147 q 174 -126 206 -126 l 115 -126 l 161 18 l 276 18 l 242 -82 l 183 -36 q 324 -72 272 -35 q 376 -165 376 -108 q 325 -258 376 -221 q 189 -294 274 -294 z "},"˛":{"ha":421,"x_min":56,"x_max":365,"o":"m 232 -294 q 107 -261 158 -294 q 56 -154 56 -228 q 98 -40 56 -89 q 219 36 140 10 l 324 0 q 240 -56 271 -24 q 210 -129 210 -87 q 223 -167 210 -153 q 263 -181 236 -181 q 296 -174 281 -181 q 322 -162 311 -168 l 365 -260 q 310 -284 342 -274 q 232 -294 278 -294 z "},"ʼ":{"ha":368,"x_min":49,"x_max":317,"o":"m 49 638 l 169 821 l 232 836 q 210 805 222 817 q 181 793 197 793 q 115 823 144 793 q 85 899 85 853 q 117 983 85 949 q 201 1018 150 1018 q 283 985 250 1018 q 317 901 317 951 q 307 852 317 881 q 271 783 297 824 l 143 586 l 49 638 z "}}}
